<svg width="26" height="18" viewBox="0 0 26 18" fill="none" xmlns="http://www.w3.org/2000/svg">
<path d="M12.4422 8.87612L3.44082 2.1049H22.5591L13.5577 8.87612L13.5563 8.87717C13.4354 8.96948 13.227 9.03985 13.0011 9.03881L12.9988 9.03882C12.7729 9.03984 12.5646 8.96949 12.4436 8.87715L12.4422 8.87612ZM17.9851 9.70937L17.9851 9.70939L22.9013 15.8H3.09864L8.01483 9.70939L8.0149 9.70931C8.2615 9.40354 8.21489 8.95518 7.90921 8.7071L7.90917 8.70706C7.60373 8.45929 7.15548 8.50619 6.9082 8.81269C6.90818 8.81271 6.90816 8.81274 6.90814 8.81276L2.17306 14.679V2.93438L11.5881 10.0162L11.5888 10.0167C12.0081 10.3299 12.5118 10.4632 12.9992 10.4645L13.0004 10.4645C13.4873 10.4635 13.9914 10.3302 14.411 10.0167L14.4117 10.0162L23.8267 2.93438V14.6789L19.0917 8.81274C18.8447 8.50648 18.3963 8.45909 18.0909 8.70693C17.7849 8.95471 17.7384 9.40366 17.9851 9.70937ZM23.7692 0.679199H2.23079C1.41508 0.679199 0.75 1.34724 0.75 2.16352V15.7413C0.75 16.5576 1.41506 17.2257 2.23079 17.2257H23.7692C24.5848 17.2257 25.25 16.5577 25.25 15.7413V2.16352C25.2499 1.34724 24.5849 0.679199 23.7692 0.679199Z" fill="#515151" stroke="white" stroke-width="0.5"/>
</svg>
