<svg width="30" height="30" viewBox="0 0 30 30" fill="none" xmlns="http://www.w3.org/2000/svg">
<path d="M15 28.9636C22.7119 28.9636 28.9636 22.7119 28.9636 15C28.9636 7.28811 22.7119 1.03638 15 1.03638C7.28811 1.03638 1.03638 7.28811 1.03638 15C1.03638 22.7119 7.28811 28.9636 15 28.9636Z" fill="#3F65A6"/>
<path d="M12.8782 10.4073C12.8782 10.811 12.8782 12.611 12.8782 12.611H11.2637V15.3055H12.8782V22.691H16.1946V15.3001H18.42C18.42 15.3001 18.6273 14.0073 18.7309 12.5946C18.4419 12.5946 16.2109 12.5946 16.2109 12.5946C16.2109 12.5946 16.2109 11.0292 16.2109 10.751C16.2109 10.4783 16.5709 10.1073 16.9309 10.1073C17.2855 10.1073 18.0382 10.1073 18.7364 10.1073C18.7364 9.74189 18.7364 8.47098 18.7364 7.30371C17.8037 7.30371 16.7455 7.30371 16.2819 7.30371C12.7964 7.30917 12.8782 10.0037 12.8782 10.4073Z" fill="white"/>
</svg>
