<svg width="30" height="30" viewBox="0 0 30 30" fill="none" xmlns="http://www.w3.org/2000/svg">
<path d="M14.7688 2.84692C7.88126 2.84692 2.27814 8.45005 2.27814 15.3375C2.27814 22.225 7.88126 27.8282 14.7688 27.8282C21.6563 27.8282 27.2594 22.225 27.2594 15.3375C27.2594 8.45005 21.6563 2.84692 14.7688 2.84692ZM14.7688 25.6407C9.08751 25.6407 4.46564 21.0188 4.46564 15.3375C4.46564 9.6563 9.08751 5.03442 14.7688 5.03442C20.45 5.03442 25.0719 9.6563 25.0719 15.3375C25.0719 21.0188 20.45 25.6407 14.7688 25.6407Z" fill="url(#paint0_linear)"/>
<path d="M14.85 12.3064C13.225 12.3064 11.9031 13.6283 11.9031 15.2533C11.9031 16.8783 13.225 18.2001 14.85 18.2001C16.475 18.2001 17.7969 16.8783 17.7969 15.2533C17.7969 13.6283 16.475 12.3064 14.85 12.3064ZM14.85 17.1408C13.8094 17.1408 12.9625 16.2939 12.9625 15.2533C12.9625 14.2126 13.8094 13.3658 14.85 13.3658C15.8906 13.3658 16.7375 14.2126 16.7375 15.2533C16.7375 16.2939 15.8906 17.1408 14.85 17.1408Z" fill="url(#paint1_linear)"/>
<path d="M17.9688 11.4062C17.5813 11.4062 17.2688 11.7219 17.2688 12.1063C17.2688 12.4938 17.5813 12.8062 17.9688 12.8062C18.3563 12.8062 18.6688 12.4906 18.6688 12.1063C18.6719 11.7188 18.3563 11.4062 17.9688 11.4062Z" fill="url(#paint2_linear)"/>
<path d="M17.2219 9.29053H12.3156C10.3312 9.29053 8.72186 10.8999 8.72186 12.8843V17.7874C8.72186 19.7718 10.3312 21.3811 12.3156 21.3811H17.2187C19.2031 21.3811 20.8125 19.7718 20.8125 17.7874V12.8843C20.8156 10.8999 19.2062 9.29053 17.2219 9.29053ZM19.6344 17.7343C19.6344 19.0968 18.5281 20.203 17.1656 20.203H12.3719C11.0094 20.203 9.90311 19.0968 9.90311 17.7343V12.9374C9.90311 11.5749 11.0094 10.4687 12.3719 10.4687H17.1687C18.5312 10.4687 19.6375 11.5749 19.6375 12.9374V17.7343H19.6344Z" fill="url(#paint3_linear)"/>
<defs>
<linearGradient id="paint0_linear" x1="14.7687" y1="31.6834" x2="14.7687" y2="2.45777" gradientUnits="userSpaceOnUse">
<stop stop-color="#BBD532"/>
<stop offset="0.1033" stop-color="#C6C92E"/>
<stop offset="0.3192" stop-color="#DFAB26"/>
<stop offset="0.5228" stop-color="#F6871F"/>
<stop offset="0.7089" stop-color="#E77360"/>
<stop offset="1" stop-color="#D14B9B"/>
</linearGradient>
<linearGradient id="paint1_linear" x1="14.851" y1="31.6834" x2="14.851" y2="2.45793" gradientUnits="userSpaceOnUse">
<stop stop-color="#BBD532"/>
<stop offset="0.1033" stop-color="#C6C92E"/>
<stop offset="0.3192" stop-color="#DFAB26"/>
<stop offset="0.5228" stop-color="#F6871F"/>
<stop offset="0.7089" stop-color="#E77360"/>
<stop offset="1" stop-color="#D14B9B"/>
</linearGradient>
<linearGradient id="paint2_linear" x1="17.9695" y1="31.6832" x2="17.9695" y2="2.45782" gradientUnits="userSpaceOnUse">
<stop stop-color="#BBD532"/>
<stop offset="0.1033" stop-color="#C6C92E"/>
<stop offset="0.3192" stop-color="#DFAB26"/>
<stop offset="0.5228" stop-color="#F6871F"/>
<stop offset="0.7089" stop-color="#E77360"/>
<stop offset="1" stop-color="#D14B9B"/>
</linearGradient>
<linearGradient id="paint3_linear" x1="14.7688" y1="31.6832" x2="14.7688" y2="2.45778" gradientUnits="userSpaceOnUse">
<stop stop-color="#BBD532"/>
<stop offset="0.1033" stop-color="#C6C92E"/>
<stop offset="0.3192" stop-color="#DFAB26"/>
<stop offset="0.5228" stop-color="#F6871F"/>
<stop offset="0.7089" stop-color="#E77360"/>
<stop offset="1" stop-color="#D14B9B"/>
</linearGradient>
</defs>
</svg>
