<svg width="24" height="25" viewBox="0 0 24 25" fill="none" xmlns="http://www.w3.org/2000/svg">
<path d="M12.5624 3.35661C12.5782 3.35661 12.5936 3.35652 12.6093 3.35652C14.894 3.35652 17.0349 4.2424 18.6415 5.85365C20.2613 7.47822 21.1474 9.6436 21.1364 11.9509C21.134 12.4701 21.5517 12.8931 22.0694 12.8955C22.071 12.8955 22.0724 12.8955 22.074 12.8955C22.5896 12.8955 23.0089 12.4775 23.0114 11.9598C23.0247 9.14678 21.9436 6.50607 19.9673 4.52395C18.0063 2.55724 15.3952 1.47607 12.6096 1.47607C12.5925 1.47607 12.5752 1.47612 12.5581 1.47617C12.0403 1.47866 11.6226 1.90162 11.625 2.42086C11.6275 2.93859 12.0467 3.35661 12.5624 3.35661Z" fill="#515151"/>
<path d="M23.9977 19.8794C23.9642 18.9483 23.5775 18.0794 22.9088 17.4327C21.5996 16.1665 20.5026 15.4355 19.4567 15.1324C18.0153 14.7146 16.6804 15.0945 15.4891 16.2615C15.4873 16.2632 15.4855 16.265 15.4837 16.2668L14.215 17.5298C13.427 17.0858 11.8951 16.1087 10.2196 14.4283L10.0963 14.3046C8.43181 12.6353 7.45141 11.0902 7.00535 10.2966L8.26343 9.02529C8.26521 9.02351 8.26695 9.02172 8.26873 9.01989C9.43222 7.82509 9.81102 6.48624 9.39448 5.04067C9.09223 3.99166 8.36346 2.89145 7.10093 1.57832C6.45616 0.907677 5.58981 0.519817 4.66154 0.486249C3.73346 0.452729 2.84128 0.776839 2.14992 1.3993L2.12302 1.42356C2.1105 1.43479 2.09831 1.4464 2.08645 1.4583C0.710197 2.83852 -0.011212 4.77086 0.000131747 7.04636C0.0193506 10.9118 2.13759 15.3324 5.66636 18.8715C5.66931 18.8745 5.67222 18.8774 5.67517 18.8803C6.33855 19.5447 7.09174 20.2021 7.91402 20.8345C8.32489 21.1505 8.91336 21.0725 9.22845 20.6604C9.5435 20.2483 9.46583 19.6581 9.05492 19.3421C8.29385 18.7569 7.59987 18.1512 6.99222 17.5417C6.98932 17.5388 6.98641 17.5359 6.98346 17.533C3.80133 14.3379 1.89192 10.4149 1.87509 7.03691C1.86637 5.28444 2.39199 3.82171 3.3953 2.80504L3.40247 2.79856C4.08395 2.18513 5.11567 2.22245 5.7513 2.88356C8.17854 5.40808 8.00276 6.59992 6.93025 7.70295L5.1924 9.45904C4.91987 9.73444 4.84398 10.1495 5.00139 10.504C5.0455 10.6033 6.11275 12.9687 8.77081 15.6346L8.89419 15.7582C11.5519 18.4238 13.9103 19.4942 14.0094 19.5385C14.3629 19.6964 14.7767 19.6202 15.0513 19.3469L16.8019 17.6042C17.9019 16.5284 19.0902 16.3519 21.6074 18.7864C22.2666 19.4239 22.3038 20.4586 21.6923 21.142L21.6857 21.1493C20.6802 22.1474 19.2373 22.6741 17.509 22.6741C17.4948 22.6741 17.4805 22.6741 17.4663 22.674C16.0848 22.6671 14.4851 22.2873 12.8402 21.5757C12.3648 21.37 11.8131 21.5898 11.608 22.0667C11.4029 22.5435 11.6221 23.0968 12.0975 23.3025C13.9989 24.125 15.802 24.5462 17.4569 24.5546C17.4745 24.5546 17.4919 24.5547 17.5095 24.5547C19.7554 24.5546 21.663 23.8316 23.0285 22.4621C23.0404 22.4502 23.0519 22.438 23.0631 22.4254L23.0874 22.3983C23.7079 21.705 24.0312 20.8104 23.9977 19.8794Z" fill="#515151"/>
<path d="M17.3183 7.18586C16.3127 6.17719 15.3475 5.90953 14.8837 5.78085C14.3845 5.64239 13.8682 5.93596 13.7302 6.43653C13.5922 6.93705 13.8848 7.45502 14.3839 7.59343C14.7632 7.69865 15.3364 7.85766 15.9925 8.51564C16.624 9.14907 16.7918 9.72092 16.9028 10.0993L16.9164 10.1454C17.0371 10.5543 17.4104 10.8191 17.8149 10.8191C17.9031 10.8191 17.9927 10.8065 18.0815 10.7801C18.5779 10.6327 18.8613 10.1095 18.7143 9.61161L18.7016 9.56845C18.557 9.07564 18.2878 8.15827 17.3183 7.18586Z" fill="#515151"/>
</svg>
