<svg width="30" height="30" viewBox="0 0 30 30" fill="none" xmlns="http://www.w3.org/2000/svg">
<path d="M15 1.1521C7.35178 1.1521 1.15198 7.3519 1.15198 15.0001C1.15198 22.6483 7.35178 28.8481 15 28.8481C22.6482 28.8481 28.848 22.6483 28.848 15.0001C28.848 7.3519 22.6482 1.1521 15 1.1521ZM22.4424 20.2552C21.8514 20.6248 19.4499 20.7349 18.8685 20.3125C18.5496 20.0809 18.258 19.7911 17.9811 19.5151C17.7873 19.3222 17.5674 19.2286 17.4009 19.0192C17.265 18.8479 17.1717 18.6457 17.0286 18.4765C16.7871 18.1927 16.4154 17.9512 16.1214 18.298C15.6786 18.8197 16.191 19.8442 15.6006 20.2339C15.4026 20.3647 15.2028 20.4025 14.9553 20.3839L14.4072 20.4088C14.0853 20.4151 13.5753 20.4181 13.209 20.3521C12.8004 20.2783 12.4629 20.0551 12.0933 19.8913C11.3919 19.5802 10.7238 19.1563 10.2153 18.5692C8.83138 16.9702 6.97258 14.7712 6.25048 12.7609C6.10198 12.3478 5.70958 11.5297 6.08158 11.1754C6.58738 10.8079 9.06988 10.7044 9.45718 11.2726C9.61438 11.5036 9.71368 11.8414 9.82498 12.1033C9.96358 12.4297 10.0386 12.7372 10.2552 13.0261C10.4469 13.2823 10.5882 13.54 10.7364 13.8208C10.9029 14.1361 11.0601 14.4385 11.2626 14.7286C11.4 14.926 11.7633 15.3187 11.9928 15.3478C12.5532 15.4195 12.5184 14.0578 12.4767 13.7254C12.4368 13.405 12.4266 13.0651 12.4371 12.7402C12.4461 12.463 12.471 12.0724 12.3069 11.8462C12.0393 11.4772 11.4432 11.7532 11.3967 11.2573C11.4951 11.1166 11.4744 10.9918 12.1317 10.7752C12.6495 10.6051 12.984 10.6105 13.3254 10.6378C14.0214 10.6936 14.7594 10.5052 15.4314 10.7308C16.0734 10.9471 15.9741 11.8594 15.9525 12.406C15.9234 13.1521 15.9546 13.8805 15.9525 14.638C15.9516 14.9827 15.9378 15.3184 16.3584 15.2902C16.7526 15.2641 16.7928 14.9323 16.9809 14.6587C17.2425 14.2771 17.4828 13.8901 17.7492 13.51C18.1083 12.9961 18.2169 12.4186 18.555 11.8921C18.6759 11.704 18.78 11.3032 18.9663 11.1544C19.1073 11.0413 19.3752 11.1004 19.5459 11.1004H19.9518C20.2623 11.1004 20.5791 11.098 20.8983 11.1091C21.3579 11.125 21.8727 11.0194 22.3284 11.0839C24.2949 11.3614 19.8567 15.5653 20.0877 16.3159C20.2473 16.8343 21.2598 17.4136 21.6252 17.8381C22.1103 18.4036 23.6037 19.5277 22.4424 20.2552Z" fill="#4C75A3"/>
</svg>
