<svg width="21" height="20" viewBox="0 0 21 20" fill="none" xmlns="http://www.w3.org/2000/svg">
<path d="M10.9673 20C16.4737 20 20.9375 15.5228 20.9375 10C20.9375 4.47715 16.4737 0 10.9673 0C5.4609 0 0.99707 4.47715 0.99707 10C0.99707 15.5228 5.4609 20 10.9673 20Z" fill="#919191"/>
<path d="M9.45624 15.1875L4.86058 10.5781C4.79826 10.5156 4.79826 10.4219 4.86058 10.3594L6.18475 9.03125C6.24706 8.96875 6.34054 8.96875 6.40285 9.03125L9.56529 12.2031L15.5163 6.23438C15.5786 6.17188 15.6721 6.17188 15.7344 6.23438L17.0585 7.5625C17.1209 7.625 17.1209 7.71875 17.0585 7.78125L9.67433 15.1875C9.61202 15.25 9.51855 15.25 9.45624 15.1875Z" fill="white"/>
</svg>
