<svg width="20" height="20" viewBox="0 0 20 20" fill="none" xmlns="http://www.w3.org/2000/svg">
<path d="M9.97024 20C15.4766 20 19.9405 15.5228 19.9405 10C19.9405 4.47715 15.4766 0 9.97024 0C4.46383 0 0 4.47715 0 10C0 15.5228 4.46383 20 9.97024 20Z" fill="#129C0F"/>
<path d="M8.45917 15.1875L3.86351 10.5781C3.80119 10.5156 3.80119 10.4219 3.86351 10.3594L5.18768 9.03125C5.24999 8.96875 5.34347 8.96875 5.40578 9.03125L8.56821 12.2031L14.5192 6.23438C14.5815 6.17188 14.675 6.17188 14.7373 6.23438L16.0615 7.5625C16.1238 7.625 16.1238 7.71875 16.0615 7.78125L8.67726 15.1875C8.61495 15.25 8.52148 15.25 8.45917 15.1875Z" fill="white"/>
</svg>
