<svg width="40" height="27" viewBox="0 0 40 27" fill="none" xmlns="http://www.w3.org/2000/svg">
<path d="M19.0292 13.6992L4.42817 2.71569H35.5717L20.9707 13.6992L20.9693 13.7002C20.7477 13.8694 20.3848 13.9878 20.001 13.9861L19.9988 13.9861C19.6151 13.9878 19.2523 13.8694 19.0305 13.7002L19.0292 13.6992ZM28.0066 14.8103L28.0066 14.8104L35.9822 24.6913H4.01772L11.9933 14.8104L11.9934 14.8103C12.3335 14.3886 12.2692 13.7703 11.8477 13.4282L11.8476 13.4282C11.4266 13.0867 10.8089 13.1513 10.4681 13.5738C10.4681 13.5738 10.4681 13.5738 10.4681 13.5739L2.71151 23.1834V3.8827L17.8522 15.2712L17.8528 15.2717C18.4874 15.7457 19.2529 15.9497 19.9991 15.9518L20.0003 15.9518C20.7457 15.9502 21.5119 15.7461 22.1468 15.2717L22.1475 15.2712L37.2881 3.8827V23.1833L29.5318 13.5738C29.5317 13.5738 29.5317 13.5738 29.5317 13.5738C29.1911 13.1517 28.5731 13.0865 28.1524 13.4281C27.7306 13.7696 27.6663 14.3887 28.0066 14.8103ZM37.0512 0.75H2.94876C1.73814 0.75 0.75 1.74205 0.75 2.95435V24.4526C0.75 25.6648 1.73813 26.657 2.94876 26.657H37.0512C38.2617 26.657 39.25 25.6649 39.25 24.4526V2.95435C39.2499 1.74205 38.2618 0.75 37.0512 0.75Z" fill="#2B3180" stroke="#2B3180" stroke-width="0.5"/>
</svg>
