<svg width="33" height="26" viewBox="0 0 33 26" fill="none" xmlns="http://www.w3.org/2000/svg">
<path d="M18.018 7.28C18.21 7.28 18.378 7.352 18.522 7.496C18.666 7.64 18.738 7.796 18.738 7.964V25.208C18.738 25.448 18.666 25.64 18.522 25.784C18.378 25.928 18.186 26 17.946 26H17.334C17.094 26 16.902 25.928 16.758 25.784C16.614 25.64 16.542 25.448 16.542 25.208V11.744L11.286 21.932C11.094 22.268 10.914 22.52 10.746 22.688C10.602 22.856 10.374 22.94 10.062 22.94H9.342C9.03 22.94 8.79 22.856 8.622 22.688C8.478 22.52 8.31 22.268 8.118 21.932L2.862 12.032V25.208C2.862 25.448 2.79 25.64 2.646 25.784C2.502 25.928 2.31 26 2.07 26H1.458C1.218 26 1.026 25.928 0.882 25.784C0.738 25.64 0.666 25.448 0.666 25.208V7.964C0.666 7.796 0.738 7.64 0.882 7.496C1.026 7.352 1.194 7.28 1.386 7.28H2.214C2.574 7.28 2.85 7.46 3.042 7.82L9.702 20.42L16.362 7.82C16.554 7.46 16.83 7.28 17.19 7.28H18.018ZM23.5643 13.4C23.3243 13.4 23.1323 13.328 22.9883 13.184C22.8443 13.04 22.7723 12.848 22.7723 12.608V11.996C22.7723 11.804 22.8323 11.624 22.9523 11.456C23.0723 11.264 23.3003 11.048 23.6363 10.808L25.4003 9.548C26.7203 8.588 27.6563 7.892 28.2083 7.46C28.7843 7.004 29.2163 6.56 29.5043 6.128C29.8163 5.672 29.9723 5.168 29.9723 4.616C29.9723 4.016 29.7443 3.536 29.2883 3.176C28.8323 2.792 28.2803 2.6 27.6323 2.6C26.8883 2.6 26.3483 2.732 26.0123 2.996C25.7003 3.26 25.4963 3.5 25.4003 3.716C25.2803 3.956 25.2083 4.1 25.1843 4.148C25.0403 4.412 24.9083 4.592 24.7883 4.688C24.6683 4.76 24.5123 4.796 24.3203 4.796H23.7803C23.3483 4.796 23.1323 4.592 23.1323 4.184C23.1323 3.632 23.3363 3.08 23.7443 2.528C24.1523 1.952 24.7043 1.496 25.4003 1.16C26.0963 0.799998 26.8403 0.619998 27.6323 0.619998C28.9523 0.619998 30.0203 1.016 30.8363 1.808C31.6523 2.6 32.0603 3.536 32.0603 4.616C32.0603 5.48 31.8683 6.248 31.4843 6.92C31.1243 7.568 30.5603 8.204 29.7923 8.828C29.0483 9.452 27.8963 10.304 26.3363 11.384H31.8083C32.0483 11.384 32.2403 11.456 32.3843 11.6C32.5283 11.744 32.6003 11.936 32.6003 12.176V12.608C32.6003 12.848 32.5283 13.04 32.3843 13.184C32.2403 13.328 32.0483 13.4 31.8083 13.4H23.5643Z" fill="#2B3180"/>
</svg>
