<svg width="41" height="41" viewBox="0 0 41 41" fill="none" xmlns="http://www.w3.org/2000/svg">
<path d="M40.9245 5.59321L36.6202 1.3252L35.4149 2.52837L37.645 4.73961H29.9709V6.43868H37.645L35.4149 8.65805L36.6202 9.86123L40.9245 5.59321Z" fill="url(#paint0_linear)"/>
<path d="M35.8249 21.8197C35.8249 20.2263 34.5131 18.9256 32.9061 18.9256C32.5535 18.9256 32.201 18.9906 31.873 19.1126L31.5615 19.2345L31.4139 18.9337C30.9302 17.9419 29.8971 17.3078 28.7903 17.3078C28.3885 17.3078 27.995 17.3891 27.626 17.5436L27.3309 17.6736L27.1669 17.3972C26.6422 16.5355 25.6747 15.9908 24.6581 15.9908C24.4039 15.9908 24.1497 16.0233 23.9038 16.0884L23.4364 16.2103V12.2838L23.6332 12.1781C24.5433 11.6903 25.3058 11.0155 25.8961 10.1701C26.6586 9.08071 27.0603 7.80437 27.0603 6.47925C27.0603 2.90225 24.1251 0 20.5259 0C16.9184 0.00812955 13.9914 2.91851 13.9914 6.48738C13.9914 7.82063 14.4013 9.1051 15.1638 10.1945C15.7459 11.0237 16.5002 11.6903 17.3857 12.1699L17.5743 12.2756V21.0555L17.2217 21.0718C15.2294 21.1775 13.6634 22.8115 13.6634 24.787V29.8029L19.0583 36.4936V40.8998H32.8979L32.9225 35.8757L32.9717 35.7944L35.8495 30.7134L35.8249 21.8197ZM16.9348 9.67416C16.1395 8.78804 15.6967 7.65804 15.6967 6.48738C15.6967 3.85341 17.8612 1.70721 20.5177 1.70721C23.1741 1.70721 25.3386 3.85341 25.3386 6.48738C25.3386 7.69868 24.8876 8.84495 24.0677 9.73107L23.4282 10.4221V8.46286C23.4282 7.69055 23.1249 6.95889 22.5674 6.40609C22.0262 5.84515 21.2883 5.54435 20.5095 5.54435H20.4931C18.8943 5.54435 17.5825 6.84508 17.5743 8.43847V10.3977L16.9348 9.67416ZM31.2089 35.4286L31.1925 39.2007H20.7718V35.892L15.377 29.2013V24.7789C15.377 23.6651 16.2953 22.7627 17.4349 22.7627L19.296 22.6977V8.43847C19.296 8.11329 19.4272 7.80437 19.6568 7.57674C19.8863 7.35724 20.1815 7.2353 20.4931 7.2353C20.821 7.2353 21.1326 7.36537 21.3621 7.593C21.5999 7.82063 21.7229 8.12955 21.7229 8.4466V21.4458H23.4364V18.8849C23.4364 18.2265 23.9858 17.6899 24.6499 17.6899C25.3222 17.6899 25.8633 18.2265 25.8633 18.8849V21.4458H27.5768V20.1938C27.5768 19.5353 28.118 18.9988 28.7821 18.9988C29.4462 18.9988 29.9873 19.5353 29.9873 20.1938V21.4458H31.7583C31.914 20.958 32.3732 20.6165 32.9061 20.6165C33.5702 20.6165 34.1113 21.1531 34.1113 21.8116L34.1277 30.2501L31.2089 35.4286Z" fill="#9EA1BA"/>
<path d="M2.34687e-05 5.59307L4.30441 9.86108L5.50964 8.65791L3.27956 6.44667L10.9537 6.44667L10.9537 4.74759L3.27955 4.7476L5.50964 2.52823L4.30441 1.32505L2.34687e-05 5.59307Z" fill="url(#paint1_linear)"/>
<defs>
<linearGradient id="paint0_linear" x1="29.9702" y1="5.594" x2="40.9228" y2="5.594" gradientUnits="userSpaceOnUse">
<stop offset="0.53125" stop-color="#0D97D5"/>
<stop offset="0.901042" stop-color="#1F6BD8"/>
</linearGradient>
<linearGradient id="paint1_linear" x1="10.9544" y1="5.59228" x2="0.00180008" y2="5.59228" gradientUnits="userSpaceOnUse">
<stop offset="0.6875" stop-color="#0D97D5"/>
<stop offset="0.890625" stop-color="#1F6BD8"/>
</linearGradient>
</defs>
</svg>
