<svg width="74" height="63" viewBox="0 0 74 63" fill="none" xmlns="http://www.w3.org/2000/svg">
<path fill-rule="evenodd" clip-rule="evenodd" d="M72.655 54.94C72.655 58.465 64.308 60.923 56.817 60.923C47.34 60.923 40.975 57.828 40.975 54.939V51.367C43.7 53.963 49.693 55.727 56.817 55.727C63.939 55.727 69.93 53.963 72.655 51.367V54.939V54.94ZM34.842 53.893V48.877C36.3718 48.7775 37.8939 48.5815 39.399 48.29V53.407C37.941 53.707 36.394 53.925 34.834 54.045C34.836 53.993 34.842 53.945 34.842 53.892V53.893ZM17.422 59.875C9.926 59.875 1.575 57.417 1.575 53.892V50.311C4.301 52.913 10.296 54.68 17.422 54.68C24.546 54.68 30.542 52.913 33.266 50.31V53.892C33.266 57.417 24.916 59.875 17.422 59.875ZM17.422 41.135C26.759 41.135 33.266 44.29 33.266 47.12C33.266 50.01 26.899 53.106 17.422 53.106C7.942 53.106 1.575 50.01 1.575 47.12C1.575 43.593 9.926 41.136 17.422 41.136V41.135ZM16.227 37.829C16.567 38.153 16.957 38.464 17.394 38.761L17.402 38.767C17.827 39.054 18.294 39.327 18.802 39.584C17.9436 39.5553 17.0845 39.5529 16.226 39.577V37.83H16.227V37.829ZM16.227 31.059L16.23 31.061C16.566 31.381 16.952 31.69 17.384 31.983C17.394 31.988 17.402 31.995 17.411 32.001C17.839 32.288 18.312 32.564 18.824 32.824C18.844 32.834 18.862 32.842 18.881 32.853C19.39 33.107 19.936 33.345 20.52 33.568L20.616 33.603C20.904 33.711 21.197 33.816 21.501 33.915H21.504C21.811 34.017 22.127 34.112 22.45 34.203C22.495 34.217 22.54 34.227 22.586 34.241C22.876 34.321 23.17 34.398 23.47 34.471C23.509 34.479 23.548 34.489 23.586 34.498C24.2726 34.6592 24.9643 34.798 25.66 34.914L25.866 34.948C26.5887 35.0653 27.3151 35.1591 28.044 35.229C28.133 35.239 28.221 35.246 28.311 35.255C28.7271 35.2938 29.1438 35.3255 29.561 35.35C29.901 35.37 30.244 35.387 30.591 35.4C30.694 35.403 30.795 35.407 30.897 35.408C31.285 35.419 31.679 35.427 32.075 35.427C32.471 35.427 32.863 35.418 33.253 35.408C33.699 35.3966 34.1447 35.3772 34.59 35.35L34.717 35.342C35.097 35.319 35.469 35.289 35.839 35.255L36.103 35.23C36.423 35.198 36.74 35.163 37.053 35.123L37.217 35.103C37.579 35.057 37.934 35.004 38.285 34.948L38.486 34.915C39.1834 34.7991 39.8768 34.66 40.565 34.498L40.671 34.472C40.975 34.399 41.273 34.322 41.565 34.24C41.609 34.227 41.652 34.217 41.696 34.203C42.3167 34.0285 42.9299 33.8283 43.534 33.603L43.626 33.568C44.21 33.346 44.758 33.107 45.268 32.852C45.285 32.842 45.304 32.834 45.321 32.825C45.8182 32.5755 46.2991 32.2949 46.761 31.985C47.1702 31.7089 47.5565 31.4002 47.916 31.062L47.919 31.059V34.64C47.919 34.722 47.895 34.807 47.883 34.89C43.758 35.94 40.77 37.708 39.768 39.828C37.54 40.322 34.943 40.622 32.074 40.622C24.58 40.622 16.227 38.164 16.227 34.64V31.058V31.059ZM16.227 24.285C16.567 24.609 16.957 24.92 17.393 25.215L17.404 25.223C17.8751 25.5381 18.3662 25.8223 18.874 26.074C19.386 26.332 19.94 26.572 20.528 26.797L20.607 26.827C21.255 27.0686 21.9133 27.2815 22.58 27.465C22.9132 27.558 23.2482 27.644 23.585 27.723C23.917 27.803 24.255 27.876 24.6 27.945C24.9546 28.0159 25.3103 28.0812 25.667 28.141L25.865 28.174C26.215 28.231 26.572 28.284 26.934 28.329L27.098 28.349C27.8744 28.4451 28.6534 28.5185 29.434 28.569L29.564 28.576C29.903 28.596 30.246 28.612 30.593 28.624C31.0871 28.642 31.5815 28.6514 32.076 28.652C32.473 28.652 32.864 28.644 33.254 28.634C33.356 28.632 33.458 28.628 33.559 28.625C33.906 28.613 34.249 28.598 34.59 28.577L34.719 28.569C35.097 28.546 35.47 28.515 35.839 28.482L36.105 28.456C36.424 28.424 36.74 28.389 37.052 28.35C37.108 28.342 37.164 28.337 37.219 28.33C37.5752 28.2844 37.9306 28.2327 38.285 28.175L38.489 28.141C38.795 28.089 39.096 28.036 39.392 27.978C39.445 27.967 39.499 27.958 39.554 27.946C39.9306 27.87 40.3057 27.7866 40.679 27.696C40.979 27.624 41.274 27.547 41.562 27.466C41.608 27.455 41.652 27.442 41.699 27.43C42.3182 27.255 42.9301 27.0548 43.533 26.83C43.565 26.82 43.596 26.807 43.629 26.795C44.1863 26.5843 44.7327 26.3456 45.266 26.08L45.324 26.05C45.8204 25.8009 46.3004 25.5204 46.761 25.21C47.194 24.917 47.581 24.61 47.917 24.288L47.919 24.287V27.866C47.919 29.404 45.987 31.034 42.735 32.206C40.111 33.11 36.799 33.686 33.533 33.821C32.3399 33.8701 31.145 33.8591 29.953 33.788C29.0968 33.7376 28.2426 33.6576 27.392 33.548C21.48 32.788 16.228 30.662 16.228 27.865V24.285H16.227ZM16.227 17.515C16.5932 17.8609 16.988 18.1754 17.407 18.455C17.837 18.745 18.313 19.021 18.829 19.282L18.875 19.305C19.386 19.562 19.937 19.802 20.525 20.025L20.609 20.057C21.19 20.274 21.806 20.477 22.454 20.659C22.7934 20.7555 23.1348 20.8449 23.478 20.927L23.583 20.953C23.915 21.032 24.252 21.105 24.598 21.175C24.65 21.185 24.705 21.195 24.757 21.207C25.054 21.265 25.357 21.319 25.664 21.371L25.864 21.404C26.2731 21.4704 26.6836 21.5287 27.095 21.579C27.8721 21.6773 28.6522 21.7507 29.434 21.799L29.555 21.806C29.897 21.826 30.243 21.843 30.591 21.855C30.694 21.858 30.795 21.863 30.897 21.865C31.285 21.875 31.679 21.883 32.075 21.883C32.471 21.883 32.863 21.875 33.253 21.866L33.557 21.856C33.907 21.844 34.253 21.827 34.594 21.806L34.714 21.8C35.4948 21.7517 36.2739 21.6783 37.05 21.58C37.4624 21.5289 37.8738 21.4702 38.284 21.404C38.35 21.395 38.415 21.383 38.479 21.372C38.789 21.321 39.094 21.265 39.395 21.207L39.548 21.177C39.894 21.107 40.232 21.032 40.565 20.954L40.665 20.929C40.974 20.855 41.274 20.777 41.569 20.694L41.689 20.661C42.3411 20.4769 42.985 20.265 43.619 20.026C44.1972 19.808 44.7637 19.56 45.316 19.283C45.8068 19.0369 46.2817 18.7604 46.738 18.455C46.745 18.451 46.751 18.445 46.757 18.443C47.168 18.1662 47.556 17.8565 47.917 17.517V17.516V21.096C47.917 24.621 39.567 27.078 32.074 27.078C22.595 27.078 16.227 23.985 16.227 21.096V17.514V17.515ZM16.227 10.742C17.865 12.307 20.692 13.565 24.229 14.322C26.575 14.825 29.233 15.111 32.075 15.111C34.916 15.111 37.572 14.825 39.919 14.322C43.455 13.565 46.28 12.307 47.918 10.743V14.323C47.918 17.213 41.552 20.307 32.075 20.307C22.595 20.307 16.227 17.212 16.227 14.323V10.743V10.742ZM32.075 1.575C39.569 1.575 47.918 4.03 47.918 7.553C47.918 10.443 41.552 13.534 32.075 13.534C22.595 13.534 16.227 10.443 16.227 7.552C16.227 4.03 24.579 1.575 32.075 1.575ZM56.818 35.428C66.292 35.428 72.656 38.522 72.656 41.41C72.656 44.935 64.309 47.393 56.818 47.393C49.325 47.393 40.976 44.935 40.976 41.41C40.976 38.52 47.34 35.428 56.818 35.428ZM40.975 44.6C43.7 47.2 49.693 48.967 56.817 48.967C63.939 48.967 69.93 47.2 72.655 44.601V48.179C72.655 51.696 64.308 54.151 56.817 54.151C49.324 54.151 40.975 51.696 40.975 48.179V44.6ZM34.842 47.119C34.842 45.209 33.289 43.492 30.694 42.175C30.761 42.177 30.83 42.177 30.897 42.178C31.285 42.19 31.679 42.198 32.075 42.198C34.706 42.198 37.183 41.953 39.399 41.519V46.646C37.944 46.947 36.399 47.165 34.842 47.284V47.119ZM56.818 33.851C54.187 33.851 51.71 34.094 49.495 34.528V7.553C49.495 3.317 41.843 0 32.075 0C22.305 0 14.652 3.317 14.652 7.553V39.65C6.245 40.213 0 43.29 0 47.12V53.893C0 58.132 7.653 61.452 17.423 61.452C25.78 61.452 32.585 59.02 34.377 55.663C36.0658 55.5746 37.7464 55.3697 39.407 55.05C39.539 59.236 47.137 62.5 56.82 62.5C66.585 62.5 74.234 59.178 74.234 54.94V41.41C74.232 37.172 66.583 33.852 56.818 33.852V33.851Z" fill="#0D97D5"/>
</svg>
