<svg width="75" height="62" viewBox="0 0 75 62" fill="none" xmlns="http://www.w3.org/2000/svg">
<path d="M35.0417 38.0524L50.9429 17.319L40.1452 41.1178C39.4619 42.6238 37.6857 43.2916 36.1798 42.6071C34.6726 41.9226 34.0071 40.1452 34.6905 38.6381C34.7845 38.4297 34.9083 38.2262 35.0417 38.0524Z" fill="#0D97D5"/>
<path d="M68.6226 61.581H6.37976C5.75833 61.581 5.18214 61.2583 4.85595 60.7286C1.725 55.6143 0 49.1809 0 42.6071C0 22.1024 16.8226 5.42023 37.5012 5.42023C58.1774 5.42023 75 22.1524 75 42.719C75 49.3143 73.3214 55.5417 70.1452 60.7274C69.8202 61.2583 69.2429 61.581 68.6226 61.581ZM7.40119 58.0071H67.6012C70.1083 53.5583 71.4286 48.2952 71.4286 42.719C71.4286 24.1226 56.2095 8.99285 37.5012 8.99285C18.7917 8.99404 3.57143 24.0714 3.57143 42.6071C3.57143 48.1655 4.92619 53.5928 7.40119 58.0071Z" fill="#0D97D5"/>
<path d="M37.5821 10.9071C36.5964 10.9071 35.7964 10.1071 35.7964 9.12022V1.97141C35.7964 0.984509 36.5964 0.184509 37.5821 0.184509C38.569 0.184509 39.3678 0.984509 39.3678 1.97141V9.12022C39.3678 10.1059 38.569 10.9071 37.5821 10.9071Z" fill="#0D97D5"/>
<path d="M10.2893 35.3286H1.95594C0.970227 35.3286 0.170227 34.5286 0.170227 33.5417C0.170227 32.5548 0.970227 31.7548 1.95594 31.7548H10.2893C11.275 31.7548 12.075 32.5548 12.075 33.5417C12.075 34.5286 11.275 35.3286 10.2893 35.3286Z" fill="#0D97D5"/>
<path d="M72.1941 35.3286H63.8607C62.875 35.3286 62.075 34.5286 62.075 33.5417C62.075 32.5548 62.875 31.7548 63.8607 31.7548H72.1941C73.1798 31.7548 73.9798 32.5548 73.9798 33.5417C73.9798 34.5286 73.1798 35.3286 72.1941 35.3286Z" fill="#0D97D5"/>
</svg>
