<svg width="75" height="74" viewBox="0 0 75 74" fill="none" xmlns="http://www.w3.org/2000/svg">
<path fill-rule="evenodd" clip-rule="evenodd" d="M1.871 40.883H73.131V35.744H1.871V40.884V40.883ZM17.249 15.428V1.87H22.006V33.874H17.249V15.428ZM37.501 30.922C43.376 30.922 48.499 27.634 51.124 22.802V33.874H23.877V22.802C26.504 27.634 31.625 30.922 37.501 30.922ZM52.995 1.87H57.752V33.874H52.995V1.87ZM57.752 66.075C57.19 66.587 56.668 66.931 55.722 66.931C54.579 66.931 54.056 66.429 53.331 65.733C53.2199 65.6264 53.1079 65.5207 52.995 65.416V42.756H57.752V66.076V66.075ZM45.958 65.733C45.233 66.429 44.71 66.931 43.565 66.931C42.422 66.931 41.899 66.429 41.173 65.733C40.375 64.968 39.382 64.013 37.486 64.013C35.591 64.013 34.597 64.968 33.8 65.733C33.075 66.429 32.551 66.931 31.407 66.931C30.263 66.931 29.74 66.429 29.015 65.733C28.217 64.968 27.224 64.013 25.329 64.013C24.77 64.013 24.297 64.103 23.877 64.239V42.754H51.124V64.247C50.647 64.089 50.1475 64.0096 49.645 64.012C47.749 64.012 46.756 64.966 45.958 65.732V65.733ZM19.253 66.93C18.322 66.93 17.802 66.594 17.249 66.095V42.755H22.006V65.39C21.88 65.506 21.758 65.621 21.643 65.731C20.919 66.428 20.396 66.931 19.253 66.931V66.93ZM0.935 42.754H15.379V64.557C14.803 64.239 14.099 64.012 13.179 64.012C11.283 64.012 10.289 64.967 9.492 65.732C8.767 66.428 8.243 66.93 7.1 66.93C5.957 66.93 5.433 66.428 4.709 65.732C3.911 64.967 2.918 64.012 1.022 64.012C0.77389 64.012 0.535942 64.1106 0.360502 64.286C0.185061 64.4614 0.0865 64.6994 0.0865 64.9475C0.0865 65.1956 0.185061 65.4336 0.360502 65.609C0.535942 65.7844 0.77389 65.883 1.022 65.883C2.165 65.883 2.689 66.386 3.414 67.081C4.212 67.847 5.204 68.802 7.1 68.802C8.995 68.802 9.989 67.847 10.786 67.082C11.511 66.386 12.035 65.883 13.179 65.883C14.321 65.883 14.843 66.386 15.567 67.081C16.364 67.847 17.357 68.802 19.252 68.802C21.147 68.802 22.14 67.847 22.937 67.082C23.661 66.386 24.185 65.883 25.328 65.883C26.471 65.883 26.993 66.386 27.719 67.081C28.517 67.847 29.51 68.802 31.406 68.802C33.302 68.802 34.297 67.847 35.093 67.082C35.818 66.386 36.342 65.883 37.485 65.883C38.629 65.883 39.152 66.386 39.878 67.081C40.675 67.847 41.669 68.802 43.564 68.802C45.461 68.802 46.454 67.847 47.252 67.082C47.977 66.386 48.5 65.883 49.644 65.883C50.788 65.883 51.311 66.386 52.036 67.081C52.834 67.847 53.826 68.802 55.721 68.802C57.618 68.802 58.612 67.847 59.41 67.082C60.135 66.386 60.66 65.883 61.804 65.883C62.95 65.883 63.474 66.386 64.2 67.081C64.999 67.847 65.993 68.802 67.891 68.802C69.788 68.802 70.783 67.847 71.581 67.082C72.306 66.387 72.832 65.883 73.978 65.883C74.2261 65.883 74.4641 65.7844 74.6395 65.609C74.8149 65.4336 74.9135 65.1956 74.9135 64.9475C74.9135 64.6994 74.8149 64.4614 74.6395 64.286C74.4641 64.1106 74.2261 64.012 73.978 64.012C72.08 64.012 71.086 64.967 70.287 65.732C69.562 66.428 69.036 66.93 67.891 66.93C66.745 66.93 66.22 66.428 65.494 65.731C64.695 64.967 63.701 64.012 61.804 64.012C60.893 64.012 60.194 64.235 59.621 64.549V42.754H74.065C74.1879 42.754 74.3095 42.7298 74.423 42.6827C74.5365 42.6357 74.6397 42.5667 74.7265 42.4798C74.8133 42.3929 74.8822 42.2897 74.9291 42.1761C74.976 42.0626 75.0001 41.9409 75 41.818V34.808C75 34.6853 74.9758 34.5637 74.9288 34.4503C74.8818 34.337 74.8129 34.234 74.7261 34.1472C74.6392 34.0605 74.5362 33.9917 74.4227 33.9448C74.3093 33.8979 74.1877 33.8739 74.065 33.874H59.622V22.802C62.249 27.634 67.371 30.922 73.245 30.922C73.493 30.922 73.7308 30.8235 73.9061 30.6481C74.0815 30.4728 74.18 30.235 74.18 29.987C74.18 29.739 74.0815 29.5012 73.9061 29.3259C73.7308 29.1505 73.493 29.052 73.245 29.052C65.734 29.052 59.622 22.939 59.622 15.428V0.935001C59.6221 0.812178 59.598 0.690535 59.5511 0.577036C59.5042 0.463537 59.4353 0.360411 59.3484 0.273562C59.2616 0.186713 59.1585 0.117847 59.045 0.0709052C58.9315 0.0239636 58.8098 -0.000131037 58.687 5.35955e-07H52.059C51.9362 -0.000131037 51.8145 0.0239636 51.701 0.0709052C51.5875 0.117847 51.4844 0.186713 51.3976 0.273562C51.3107 0.360411 51.2418 0.463537 51.1949 0.577036C51.148 0.690535 51.1239 0.812178 51.124 0.935001V15.428C51.124 22.939 45.012 29.051 37.501 29.051C29.989 29.051 23.878 22.939 23.878 15.428V0.935001C23.8781 0.812178 23.854 0.690535 23.8071 0.577036C23.7602 0.463537 23.6913 0.360411 23.6044 0.273562C23.5176 0.186713 23.4145 0.117847 23.301 0.0709052C23.1875 0.0239636 23.0658 -0.000131037 22.943 5.35955e-07H16.315C16.1922 -0.000131037 16.0705 0.0239636 15.957 0.0709052C15.8435 0.117847 15.7404 0.186713 15.6536 0.273562C15.5667 0.360411 15.4978 0.463537 15.4509 0.577036C15.404 0.690535 15.3799 0.812178 15.38 0.935001V15.428C15.38 22.939 9.268 29.051 1.756 29.051C1.50789 29.051 1.26994 29.1496 1.0945 29.325C0.919061 29.5004 0.8205 29.7384 0.8205 29.9865C0.8205 30.2346 0.919061 30.4726 1.0945 30.648C1.26994 30.8234 1.50789 30.922 1.756 30.922C7.631 30.922 12.754 27.634 15.38 22.802V33.874H0.935C0.812261 33.8739 0.6907 33.8979 0.577267 33.9448C0.463833 33.9917 0.360752 34.0605 0.273916 34.1472C0.18708 34.234 0.118192 34.337 0.0711921 34.4503C0.0241917 34.5637 -7.03489e-08 34.6853 0 34.808L0 41.818C0 42.335 0.418 42.754 0.935 42.754ZM1.023 71.873C2.166 71.873 2.69 72.375 3.415 73.071C4.212 73.837 5.205 74.791 7.101 74.791C8.996 74.791 9.991 73.837 10.787 73.071C11.512 72.375 12.037 71.873 13.18 71.873C14.322 71.873 14.843 72.375 15.567 73.071C16.365 73.837 17.357 74.791 19.252 74.791C21.148 74.791 22.142 73.837 22.938 73.071C23.662 72.375 24.186 71.873 25.329 71.873C26.472 71.873 26.994 72.375 27.72 73.071C28.518 73.837 29.511 74.791 31.407 74.791C33.303 74.791 34.297 73.837 35.094 73.071C35.819 72.375 36.344 71.873 37.486 71.873C38.63 71.873 39.153 72.375 39.878 73.071C40.676 73.837 41.669 74.791 43.565 74.791C45.461 74.791 46.455 73.837 47.252 73.071C47.978 72.375 48.502 71.873 49.645 71.873C50.789 71.873 51.312 72.375 52.037 73.071C52.835 73.837 53.827 74.791 55.722 74.791C57.619 74.791 58.613 73.837 59.412 73.071C60.136 72.375 60.66 71.873 61.805 71.873C62.951 71.873 63.475 72.375 64.201 73.071C65.001 73.837 65.994 74.791 67.892 74.791C69.789 74.791 70.783 73.837 71.582 73.072C72.307 72.376 72.833 71.873 73.979 71.873C74.227 71.873 74.4648 71.7745 74.6401 71.5991C74.8155 71.4238 74.914 71.186 74.914 70.938C74.914 70.69 74.8155 70.4522 74.6401 70.2769C74.4648 70.1015 74.227 70.003 73.979 70.003C72.081 70.003 71.086 70.956 70.289 71.723C69.563 72.417 69.037 72.921 67.892 72.921C66.746 72.921 66.222 72.417 65.495 71.722C64.696 70.956 63.702 70.002 61.805 70.002C59.908 70.002 58.915 70.956 58.116 71.723C57.392 72.418 56.867 72.921 55.722 72.921C54.579 72.921 54.056 72.418 53.332 71.723C52.533 70.956 51.542 70.003 49.645 70.003C47.749 70.003 46.756 70.956 45.958 71.723C45.233 72.418 44.71 72.921 43.565 72.921C42.421 72.921 41.899 72.418 41.173 71.723C40.375 70.956 39.383 70.003 37.486 70.003C35.591 70.003 34.597 70.956 33.8 71.723C33.075 72.418 32.551 72.921 31.407 72.921C30.263 72.921 29.74 72.418 29.015 71.723C28.217 70.956 27.225 70.003 25.329 70.003C23.434 70.003 22.44 70.956 21.643 71.723C20.919 72.418 20.396 72.921 19.253 72.921C18.11 72.921 17.588 72.418 16.863 71.723C16.066 70.956 15.074 70.003 13.18 70.003C11.284 70.003 10.29 70.956 9.493 71.723C8.768 72.418 8.244 72.921 7.101 72.921C5.958 72.921 5.434 72.418 4.711 71.723C3.912 70.956 2.919 70.003 1.023 70.003C0.775023 70.003 0.537202 70.1015 0.361855 70.2769C0.186509 70.4522 0.088 70.69 0.088 70.938C0.088 71.186 0.186509 71.4238 0.361855 71.5991C0.537202 71.7745 0.775023 71.873 1.023 71.873Z" fill="#0D97D5"/>
</svg>
