<svg width="53" height="38" viewBox="0 0 53 38" fill="none" xmlns="http://www.w3.org/2000/svg">
<path d="M0.820801 12.6746H12.1035V13.6612H1.64192L0.820801 12.6746Z" fill="#BDBCBC"/>
<path d="M7.22797 13.6474H2.68732L1.94824 13.313H6.62609L7.22797 13.6474Z" fill="#9C9A9A"/>
<path d="M1.64224 13.6612H12.9243V14.6464H3.99117L0.968651 20.1633H0L1.64224 13.6612Z" fill="#29242C"/>
<path d="M32.0237 31.6101H23.6159L16.7188 19.6497L20.7168 18.1701L23.5504 22.4633L34.9145 17.6393L39.4475 18.8506C39.4475 18.8506 35.9004 20.5597 34.0609 24.6247C32.6283 27.7906 32.0237 31.6101 32.0237 31.6101Z" fill="#7B7979"/>
<path d="M10.5527 26.3028C9.02416 26.3028 7.8466 22.9493 7.62598 22.2771L8.30439 22.0544C8.78631 23.5216 9.80323 25.5885 10.5527 25.5885C11.3269 25.5885 12.2039 23.5347 12.5796 22.0772L13.2711 22.2544C13.0974 22.93 12.1508 26.3028 10.5527 26.3028Z" fill="#918F90"/>
<path d="M12.586 34.9608C12.104 33.493 11.0878 31.4267 10.3377 31.4267C9.56208 31.4267 8.6851 33.4799 8.31074 34.9387L7.62061 34.7602C7.79297 34.0838 8.74027 30.7124 10.3377 30.7124C11.8662 30.7124 13.0438 34.0652 13.2637 34.7381L12.586 34.9608Z" fill="#918F90"/>
<path d="M14.2328 28.1339C13.4186 28.1339 12.6974 27.9636 12.3816 27.4472C11.5833 26.1435 13.8274 23.3885 14.2859 22.8494L14.8312 23.312C13.8301 24.4888 12.5988 26.4351 12.9904 27.0749C13.3917 27.7292 15.8585 27.3287 17.4015 26.8529L17.6131 27.5355C17.1602 27.6748 15.5717 28.1339 14.2328 28.1339Z" fill="#918F90"/>
<path d="M6.60318 34.1665L6.05991 33.7025C7.10165 32.4809 8.46261 30.3781 8.07514 29.7458C7.67872 29.0971 5.32359 29.5397 3.85715 30.0437L3.62549 29.3673C4.3232 29.1274 7.84557 28.0023 8.68462 29.3722C9.48368 30.6766 7.09131 33.5943 6.60318 34.1665Z" fill="#918F90"/>
<path d="M6.58697 28.2877C5.36735 28.2877 4.0264 27.9788 3.61963 27.8775L3.79199 27.1846C5.30324 27.5603 7.70731 27.8189 8.06996 27.1818C8.45467 26.5034 7.03442 24.604 5.90305 23.4706L6.40842 22.9673C6.92825 23.4857 9.47849 26.1497 8.69046 27.5341C8.36366 28.1105 7.50944 28.2877 6.58697 28.2877Z" fill="#918F90"/>
<path d="M14.7661 34.1969C14.2166 33.6887 11.5168 31.084 12.3082 29.6907C13.0673 28.3552 16.8386 29.1391 17.5859 29.3094L17.4267 30.0044C15.8285 29.6417 13.2941 29.4018 12.9294 30.043C12.5537 30.7055 14.0918 32.6008 15.2508 33.6729L14.7661 34.1969Z" fill="#918F90"/>
<path d="M10.5867 34.543C7.25257 34.543 4.55135 31.8411 4.55135 28.5069C4.55135 25.1742 7.25257 22.4716 10.5867 22.4716C13.9195 22.4716 16.6221 25.1742 16.6221 28.5069C16.6221 31.8411 13.9195 34.543 10.5867 34.543ZM10.6756 20.1633C6.06742 20.1633 2.33203 23.8994 2.33203 28.5069C2.33203 33.1158 6.06742 36.8512 10.6756 36.8512C15.2832 36.8512 19.0193 33.1158 19.0193 28.5069C19.0193 23.8994 15.2832 20.1633 10.6756 20.1633Z" fill="#918F90"/>
<path d="M10.5766 35.2083C6.87572 35.2083 3.87666 32.2085 3.87666 28.5069C3.87666 24.8067 6.87572 21.8063 10.5766 21.8063C14.2776 21.8063 17.2773 24.8067 17.2773 28.5069C17.2773 32.2085 14.2776 35.2083 10.5766 35.2083ZM10.6752 19.245C5.55958 19.245 1.4126 23.3913 1.4126 28.5069C1.4126 33.624 5.55958 37.7703 10.6752 37.7703C15.7909 37.7703 19.9379 33.624 19.9379 28.5069C19.9379 23.3913 15.7909 19.245 10.6752 19.245Z" fill="#29242C"/>
<path d="M13.1379 28.5069C13.1379 29.9223 11.9906 31.0689 10.5766 31.0689C9.16187 31.0689 8.01465 29.9223 8.01465 28.5069C8.01465 27.0922 9.16187 25.945 10.5766 25.945C11.9906 25.945 13.1379 27.0922 13.1379 28.5069Z" fill="#777475"/>
<path d="M11.4965 28.5069C11.4965 29.0157 11.0849 29.4266 10.5767 29.4266C10.0679 29.4266 9.65771 29.0157 9.65771 28.5069C9.65771 27.9995 10.0679 27.5886 10.5767 27.5886C11.0849 27.5886 11.4965 27.9995 11.4965 28.5069Z" fill="#BDBCBC"/>
<path d="M12.0744 29.2267C12.0386 29.2998 12.0696 29.388 12.1434 29.4239C12.2164 29.459 12.3047 29.428 12.3405 29.3549C12.3757 29.2812 12.3454 29.1929 12.2716 29.1577C12.1978 29.1219 12.1096 29.1529 12.0737 29.2267H12.0744ZM11.6146 29.8044C11.5504 29.8555 11.5401 29.9485 11.5911 30.012C11.6421 30.0754 11.7352 30.0857 11.7986 30.0347H11.7993C11.8628 29.9837 11.8731 29.8906 11.8221 29.8272C11.7704 29.7631 11.678 29.7534 11.6139 29.8044H11.6146ZM10.9506 30.1264C10.8706 30.145 10.8217 30.2243 10.8396 30.3036C10.8582 30.3836 10.9375 30.4332 11.0175 30.4146H11.0168C11.0961 30.3967 11.1457 30.3174 11.1278 30.2374C11.1099 30.1581 11.0306 30.1085 10.9513 30.1264H10.9506ZM10.2122 30.1292C10.1329 30.1112 10.0537 30.1609 10.0357 30.2409C10.0178 30.3201 10.0681 30.3994 10.1474 30.4174C10.2274 30.4353 10.3067 30.3849 10.3239 30.3057C10.3419 30.2257 10.2915 30.1464 10.2122 30.1292ZM9.54624 29.8106C9.48212 29.7603 9.38905 29.7707 9.33872 29.8348C9.2877 29.8989 9.29872 29.992 9.36284 30.043C9.42696 30.0933 9.52003 30.0823 9.57036 30.0182C9.62069 29.9541 9.61036 29.8617 9.54624 29.8106ZM9.08363 29.2363C9.04709 29.1626 8.95883 29.1322 8.88506 29.1681C8.81129 29.2039 8.78164 29.2922 8.8175 29.366C8.85335 29.439 8.94229 29.4694 9.01468 29.4335C9.08845 29.3977 9.11879 29.3094 9.08294 29.2363H9.08363ZM8.91539 28.5173C8.9147 28.4359 8.84783 28.3704 8.76648 28.3704C8.68443 28.3711 8.61894 28.438 8.61963 28.5193C8.62032 28.6014 8.6865 28.6669 8.76855 28.6662C8.8499 28.6655 8.91539 28.5993 8.91539 28.5173ZM9.07397 27.7968C9.10913 27.723 9.07741 27.6348 9.00364 27.5996C8.92987 27.5651 8.84163 27.5962 8.80716 27.6706C8.772 27.7444 8.80302 27.8319 8.87748 27.8671C8.95125 27.9023 9.03949 27.8706 9.07397 27.7968ZM9.53038 27.2163C9.59381 27.1653 9.60345 27.0722 9.55243 27.0088C9.50073 26.9453 9.40765 26.9357 9.34422 26.9867C9.28079 27.0384 9.27115 27.1315 9.32286 27.1949C9.37388 27.2583 9.46695 27.268 9.53038 27.2163ZM10.1922 26.8909C10.2715 26.8723 10.3212 26.7923 10.3026 26.713C10.2832 26.6337 10.204 26.5841 10.1247 26.6034C10.0454 26.622 9.99576 26.7013 10.0144 26.7812C10.033 26.8605 10.113 26.9095 10.1922 26.8909ZM10.9306 26.884C11.0106 26.9019 11.0892 26.8509 11.1071 26.7716C11.1244 26.6916 11.0734 26.613 10.9941 26.5951C10.9141 26.5779 10.8355 26.6289 10.8176 26.7082C10.8003 26.7881 10.8513 26.8667 10.9313 26.884H10.9306ZM11.5987 27.1977C11.6628 27.248 11.7559 27.237 11.8062 27.1728C11.8566 27.108 11.8455 27.0157 11.7814 26.9646H11.7807C11.7159 26.915 11.6235 26.926 11.5732 26.9908C11.5229 27.0549 11.5346 27.148 11.5994 27.1977H11.5987ZM12.0655 27.7699C12.1013 27.843 12.1902 27.8726 12.2633 27.8368C12.3364 27.8002 12.366 27.7113 12.3302 27.6382C12.2937 27.5651 12.2047 27.5355 12.1316 27.572C12.0586 27.6079 12.0289 27.6968 12.0655 27.7699ZM12.2378 28.4869C12.2385 28.569 12.3054 28.6345 12.3874 28.6331C12.4688 28.6324 12.5336 28.5655 12.5329 28.4842C12.5322 28.4021 12.4653 28.3366 12.3833 28.338C12.3019 28.3387 12.2364 28.4056 12.2378 28.4876V28.4869ZM12.2378 28.5069C12.2378 28.589 12.3033 28.6551 12.386 28.6551C12.4674 28.6551 12.5336 28.589 12.5336 28.5069C12.5336 28.4256 12.4674 28.3594 12.386 28.3594C12.304 28.3594 12.2378 28.4256 12.2378 28.5069Z" fill="#918F90"/>
<path d="M10.9376 28.5069C10.9376 28.7068 10.7763 28.8689 10.5763 28.8689C10.3757 28.8689 10.2144 28.7068 10.2144 28.5069C10.2144 28.3077 10.3757 28.1463 10.5763 28.1463C10.7763 28.1463 10.9376 28.3077 10.9376 28.5069Z" fill="#656263"/>
<path d="M43.0265 26.3028C41.4966 26.3028 40.3197 22.9486 40.0991 22.2771L40.7775 22.0544C41.2595 23.5216 42.2757 25.5885 43.0265 25.5885C43.8007 25.5885 44.6777 23.5347 45.0514 22.0772L45.7436 22.2544C45.5698 22.93 44.6232 26.3028 43.0265 26.3028Z" fill="#918F90"/>
<path d="M45.0583 34.9608C44.5764 33.493 43.5595 31.4267 42.8101 31.4267C42.0344 31.4267 41.1588 33.4799 40.7845 34.9387L40.0923 34.7602C40.266 34.0838 41.2126 30.7124 42.8101 30.7124C44.3385 30.7124 45.5168 34.0652 45.7374 34.7381L45.0583 34.9608Z" fill="#918F90"/>
<path d="M46.7066 28.1339C45.8917 28.1339 45.1698 27.9636 44.8547 27.4472C44.0564 26.1435 46.3012 23.3885 46.759 22.8494L47.3036 23.312C46.3039 24.4888 45.0719 26.4351 45.4635 27.0749C45.8641 27.7292 48.3323 27.3287 49.8753 26.8529L50.0848 27.5355C49.6333 27.6748 48.0441 28.1339 46.7066 28.1339Z" fill="#918F90"/>
<path d="M39.077 34.1665L38.5331 33.7025C39.5755 32.4809 40.9371 30.3781 40.549 29.7458C40.1525 29.0971 37.7981 29.5397 36.3317 30.0437L36.0986 29.3673C36.7963 29.1274 40.3194 28.0023 41.1578 29.3722C41.9575 30.6766 39.5645 33.5943 39.077 34.1665Z" fill="#918F90"/>
<path d="M39.0603 28.2877C37.84 28.2877 36.4984 27.9788 36.0923 27.8775L36.2653 27.1846C37.7766 27.5603 40.1807 27.8189 40.5433 27.1818C40.928 26.5034 39.5078 24.604 38.3764 23.4706L38.8811 22.9673C39.4009 23.4857 41.9511 26.1497 41.1645 27.5341C40.8363 28.1105 39.9835 28.2877 39.0603 28.2877Z" fill="#918F90"/>
<path d="M47.2381 34.1969C46.69 33.6887 43.9894 31.084 44.7823 29.6907C45.5407 28.3552 49.3106 29.1391 50.0593 29.3094L49.9007 30.0044C48.3019 29.6417 45.7675 29.4018 45.4028 30.0437C45.0264 30.7055 46.5652 32.6008 47.7235 33.6729L47.2381 34.1969Z" fill="#918F90"/>
<path d="M43.0587 34.543C39.7259 34.543 37.0233 31.8411 37.0233 28.5069C37.0233 25.1742 39.7259 22.4716 43.0587 22.4716C46.3928 22.4716 49.0947 25.1742 49.0947 28.5069C49.0947 31.8411 46.3928 34.543 43.0587 34.543ZM43.1476 20.1633C38.5401 20.1633 34.8047 23.8994 34.8047 28.5069C34.8047 33.1158 38.5401 36.8512 43.1476 36.8512C47.7551 36.8512 51.4905 33.1158 51.4905 28.5069C51.4905 23.8994 47.7551 20.1633 43.1476 20.1633Z" fill="#918F90"/>
<path d="M43.0491 35.2083C39.3482 35.2083 36.3484 32.2085 36.3484 28.5069C36.3484 24.8067 39.3482 21.8063 43.0491 21.8063C46.75 21.8063 49.7498 24.8067 49.7498 28.5069C49.7498 32.2085 46.75 35.2083 43.0491 35.2083ZM43.1477 19.245C38.0327 19.245 33.8857 23.3913 33.8857 28.5069C33.8857 33.624 38.0327 37.7703 43.1477 37.7703C48.2633 37.7703 52.4103 33.624 52.4103 28.5069C52.4103 23.3913 48.2633 19.245 43.1477 19.245Z" fill="#29242C"/>
<path d="M45.6112 28.5069C45.6112 29.9223 44.464 31.0689 43.0493 31.0689C41.6345 31.0689 40.4873 29.9223 40.4873 28.5069C40.4873 27.0922 41.6345 25.945 43.0493 25.945C44.464 25.945 45.6112 27.0922 45.6112 28.5069Z" fill="#777475"/>
<path d="M43.9691 28.5069C43.9691 29.0157 43.5575 29.4266 43.0494 29.4266C42.542 29.4266 42.1304 29.0157 42.1304 28.5069C42.1304 27.9995 42.542 27.5886 43.0494 27.5886C43.5575 27.5886 43.9691 27.9995 43.9691 28.5069Z" fill="#BDBCBC"/>
<path d="M44.5474 29.2267C44.5115 29.3005 44.5425 29.3887 44.6163 29.4239C44.6901 29.4597 44.7783 29.4287 44.8135 29.3549C44.8487 29.2812 44.8176 29.1929 44.7446 29.1577C44.6708 29.1226 44.5825 29.1536 44.5474 29.2267ZM44.0875 29.8044C44.0234 29.8555 44.0137 29.9485 44.0641 30.012C44.1151 30.0761 44.2082 30.0864 44.2723 30.0354C44.3357 29.9837 44.3461 29.8913 44.295 29.8272C44.244 29.7638 44.151 29.7534 44.0875 29.8044ZM43.4236 30.1264C43.3436 30.145 43.2947 30.2243 43.3126 30.3036C43.3305 30.3829 43.4098 30.4325 43.4898 30.4146C43.5697 30.396 43.6187 30.3167 43.6001 30.2374C43.5822 30.1574 43.5029 30.1078 43.4236 30.1264ZM42.6852 30.1292C42.6059 30.1112 42.5266 30.1609 42.5087 30.2409C42.4908 30.3208 42.5411 30.3994 42.6211 30.4174C42.7004 30.4353 42.7797 30.3849 42.7969 30.3057C42.8148 30.2257 42.7652 30.1464 42.6852 30.1292ZM42.0199 29.8106C41.9551 29.7603 41.8627 29.7707 41.8117 29.8348C41.7613 29.8989 41.7717 29.992 41.8358 30.043C41.8999 30.0933 41.9923 30.0823 42.0433 30.0182C42.0936 29.9541 42.0833 29.8617 42.0192 29.8106H42.0199ZM41.5566 29.2357C41.52 29.1626 41.4318 29.1322 41.3587 29.1681C41.2856 29.2039 41.2553 29.2922 41.2911 29.366H41.2905C41.3263 29.439 41.4153 29.4694 41.4883 29.4335C41.5614 29.3977 41.5924 29.3094 41.5566 29.2357ZM41.3883 28.5173C41.3877 28.4359 41.3215 28.3697 41.2401 28.3704C41.1581 28.3711 41.0926 28.4373 41.0933 28.5193C41.0933 28.6007 41.1602 28.6662 41.2415 28.6662C41.3236 28.6655 41.389 28.5986 41.3883 28.5173ZM41.5476 27.7968C41.5821 27.723 41.5511 27.6348 41.4766 27.5996C41.4035 27.5644 41.3153 27.5962 41.2801 27.6699C41.245 27.7437 41.2767 27.8319 41.3504 27.8671C41.4242 27.9016 41.5125 27.8706 41.5476 27.7968ZM42.004 27.2163C42.0668 27.1646 42.0771 27.0722 42.0254 27.0088C41.9744 26.9453 41.8813 26.935 41.8179 26.9867C41.7538 27.0384 41.7441 27.1315 41.7958 27.1949C41.8468 27.2583 41.9406 27.268 42.004 27.2163ZM42.6659 26.8909C42.7452 26.8716 42.7948 26.7923 42.7755 26.713C42.7569 26.633 42.6769 26.5841 42.5976 26.6027H42.5983C42.5183 26.6213 42.4694 26.7013 42.488 26.7806C42.5066 26.8598 42.5859 26.9095 42.6659 26.8909ZM43.4043 26.884C43.4843 26.9012 43.5629 26.8509 43.5801 26.7709C43.5973 26.6916 43.5463 26.6123 43.467 26.5951C43.3871 26.5779 43.3085 26.6289 43.2912 26.7082C43.274 26.7881 43.325 26.8667 43.4043 26.884ZM44.0724 27.1984C44.1365 27.2487 44.2295 27.237 44.2792 27.1728C44.3302 27.1087 44.3192 27.0157 44.2544 26.9653C44.1896 26.915 44.0972 26.9267 44.0468 26.9908C43.9965 27.0549 44.0075 27.148 44.0724 27.1984ZM44.5384 27.7699C44.575 27.8437 44.6632 27.8733 44.737 27.8375C44.8101 27.8009 44.8397 27.712 44.8038 27.6389C44.7673 27.5658 44.6784 27.5362 44.6053 27.572C44.5322 27.6086 44.5026 27.6975 44.5391 27.7699H44.5384ZM44.7101 28.4876C44.7108 28.5696 44.7783 28.6351 44.8597 28.6338C44.941 28.6331 45.0065 28.5662 45.0058 28.4849C45.0052 28.4028 44.9376 28.3373 44.8562 28.338C44.7749 28.3394 44.7094 28.4063 44.7101 28.4876ZM44.7101 28.5069C44.7101 28.589 44.7763 28.6551 44.8583 28.6551C44.9404 28.6551 45.0065 28.589 45.0065 28.5069C45.0065 28.4256 44.9397 28.3594 44.8583 28.3594C44.777 28.3594 44.7108 28.4256 44.7108 28.5069H44.7101Z" fill="#918F90"/>
<path d="M43.4103 28.5069C43.4103 28.7068 43.2483 28.8689 43.0491 28.8689C42.8498 28.8689 42.6885 28.7068 42.6885 28.5069C42.6885 28.3077 42.8498 28.1463 43.0491 28.1463C43.2483 28.1463 43.4103 28.3077 43.4103 28.5069Z" fill="#656263"/>
<path d="M21.1846 28.4297C21.1846 28.8834 20.8172 29.2508 20.3635 29.2508H10.69C10.2356 29.2508 9.86816 28.8834 9.86816 28.4297C9.86816 27.9761 10.2356 27.6072 10.69 27.6072H20.3635C20.8172 27.6072 21.1846 27.9761 21.1846 28.4297Z" fill="#868484"/>
<path d="M20.2134 29.2508H19.7404V28.1312L19.8107 28.2973H19.8101L20.1238 29.0385L20.2134 29.2508ZM16.7186 29.2508H12.3489H12.0642H11.4961L15.8299 28.4573V27.6072H16.7186V29.2508Z" fill="#716E6F"/>
<path d="M18.7222 21.7649C19.0166 22.111 18.9738 22.6294 18.6277 22.9224L11.2555 29.1853C10.9101 29.4804 10.391 29.4384 10.0973 29.0929C9.80358 28.7468 9.84563 28.2277 10.1917 27.934L17.5632 21.6704C17.9093 21.376 18.4285 21.4188 18.7222 21.7649Z" fill="#BDBCBC"/>
<path d="M10.9351 29.3543C11.0164 29.3329 11.095 29.2984 11.1681 29.2508C11.095 29.2984 11.0164 29.3329 10.9351 29.3543Z" fill="#656263"/>
<path d="M10.728 29.3818C10.7976 29.3818 10.8673 29.3722 10.9348 29.3543C10.8666 29.3722 10.7976 29.3818 10.728 29.3818ZM10.1068 29.104C10.1034 29.0999 10.1006 29.0964 10.0972 29.093C10.1006 29.0964 10.1034 29.0999 10.1068 29.104Z" fill="#9C9A9A"/>
<path d="M18.7225 21.7649C18.719 21.7606 18.7155 21.7564 18.7119 21.7528C18.7155 21.7564 18.719 21.7606 18.7225 21.7649Z" fill="#686566"/>
<path d="M10.7236 29.3818C10.7229 29.3818 10.7222 29.3818 10.7209 29.3818C10.494 29.3811 10.2686 29.2867 10.1072 29.104C10.1038 29.0999 10.1011 29.0964 10.0976 29.093C10.0087 28.9875 9.9604 28.8661 9.93213 28.7413C10.0335 28.7806 10.1403 28.8013 10.2472 28.8013C10.4299 28.8013 10.6119 28.7413 10.7622 28.6131L18.1337 22.3495C18.3757 22.1448 18.4591 21.8304 18.3936 21.5422C18.5122 21.5877 18.6232 21.6518 18.7122 21.7532C18.7156 21.7566 18.7191 21.7608 18.7225 21.7649C18.8535 21.9186 18.9176 22.1069 18.9183 22.2944C18.919 22.5281 18.8204 22.7598 18.6281 22.9225L18.6136 22.9356L18.2806 23.2182L16.2516 24.9418L15.7448 25.372L13.1132 27.6072L11.2559 29.1853C11.2276 29.2095 11.1986 29.2315 11.1683 29.2508C11.0952 29.2984 11.0166 29.3329 10.9353 29.3543C10.8677 29.3722 10.7981 29.3818 10.7284 29.3818C10.7271 29.3818 10.725 29.3818 10.7236 29.3818Z" fill="#9C9A9A"/>
<path d="M38.0228 18.1191C38.4295 17.9185 38.9225 18.0846 39.1245 18.4907L43.6776 27.6623C43.8789 28.0691 43.712 28.5621 43.3053 28.7641C42.8985 28.9647 42.4062 28.7986 42.2042 28.3918L37.6505 19.2201C37.4491 18.8127 37.6153 18.3204 38.0228 18.1191Z" fill="#BDBCBC"/>
<path d="M42.9414 28.8489C42.9401 28.8489 42.9394 28.8489 42.938 28.8489C42.9394 28.8489 42.9401 28.8489 42.9414 28.8489ZM42.9428 28.8489C43.0586 28.8489 43.1765 28.8241 43.2875 28.7723C43.1765 28.8241 43.0586 28.8489 42.9428 28.8489ZM43.291 28.771C43.2924 28.7703 43.2938 28.7696 43.2958 28.7689C43.2938 28.7696 43.2924 28.7703 43.291 28.771Z" fill="#575454"/>
<path d="M43.3105 28.7613C43.3354 28.7489 43.3588 28.7351 43.3816 28.7206C43.3588 28.7358 43.3354 28.7489 43.3105 28.7613ZM43.3843 28.7192C43.385 28.7186 43.3857 28.7186 43.3864 28.7179C43.3857 28.7186 43.385 28.7186 43.3843 28.7192Z" fill="#9C9A9A"/>
<path d="M42.9418 28.8489C42.9405 28.8489 42.9398 28.8489 42.9384 28.8489C42.6371 28.8482 42.3469 28.68 42.2041 28.3918L41.2617 26.4944L40.404 24.7667L39.4533 22.8521L38.3323 20.5942L37.9455 19.8138L37.6504 19.2201C37.6463 19.2126 37.6428 19.2043 37.6387 19.196C37.8662 19.145 38.0999 19.0954 38.3378 19.0478L42.7812 27.9981C42.9246 28.2863 43.2142 28.4518 43.5162 28.4518C43.561 28.4518 43.6058 28.4483 43.6506 28.4407C43.5872 28.5503 43.4975 28.6462 43.3865 28.7179C43.3858 28.7186 43.3852 28.7186 43.3845 28.7193C43.3838 28.72 43.3831 28.7206 43.3817 28.7206C43.359 28.7351 43.3355 28.7489 43.3107 28.7613C43.3086 28.7627 43.3073 28.7634 43.3052 28.7641C43.3024 28.7655 43.299 28.7675 43.2962 28.7689C43.2942 28.7696 43.2928 28.7703 43.2914 28.771C43.29 28.7717 43.2893 28.7717 43.2879 28.7723C43.1769 28.8241 43.0591 28.8489 42.9432 28.8489C42.9432 28.8489 42.9425 28.8489 42.9418 28.8489Z" fill="#9C9A9A"/>
<path d="M16.7188 29.69H19.7404V26.9963H16.7188V29.69Z" fill="#989696"/>
<path d="M16.7188 29.69V27.9278H19.6544L19.7406 28.1312V28.8096H16.7188V29.69Z" fill="#7E7B7C"/>
<path d="M19.7406 29.69H16.7188V28.8096H19.7406V29.2508V29.69Z" fill="#6A6768"/>
<path d="M27.7539 26.6647L20.4499 29.8086L19.3999 27.3273L26.7045 24.1841L27.7539 26.6647Z" fill="#868484"/>
<path d="M20.1242 29.0385L19.8105 28.2973H19.8112L20.1249 29.0385H20.1242Z" fill="#605D5D"/>
<path d="M20.1247 29.0385L19.811 28.2973L23.2603 26.8226C23.3037 27.0977 23.3858 27.3597 23.5002 27.6037L20.1247 29.0385Z" fill="#716E6F"/>
<path d="M20.4499 29.8086L20.2134 29.2508H20.2141L20.4499 29.8086L22.1562 29.0792L22.1576 29.0819L20.4499 29.8086Z" fill="#BDBCBD"/>
<path d="M22.1581 29.0819L22.1567 29.0791L23.9645 28.3063C23.9658 28.3083 23.9679 28.3097 23.9693 28.3118L22.1581 29.0819Z" fill="#686566"/>
<path d="M20.2143 29.2508H20.2137L20.124 29.0385L20.2143 29.2508Z" fill="#605D5D"/>
<path d="M20.4501 29.8086L20.2144 29.2508L20.4501 29.8086L22.1537 29.075L22.1565 29.0792L20.4501 29.8086Z" fill="#9C9A9A"/>
<path d="M22.1566 29.0791L22.1538 29.075L23.9574 28.2987C23.9602 28.3014 23.9622 28.3035 23.9643 28.3063L22.1566 29.0791Z" fill="#585556"/>
<path d="M20.2143 29.2508L20.124 29.0385H20.1247L20.2143 29.2508Z" fill="#524F50"/>
<path d="M20.4499 29.8086L20.2141 29.2508L20.1245 29.0385L23.5 27.6038C23.6193 27.8575 23.7737 28.0912 23.9571 28.2987L22.1535 29.075L20.4499 29.8086Z" fill="#605D5D"/>
<path d="M41.0243 12.2044L37.8198 3.32991L39.1091 2.86867L42.315 11.7418L41.0243 12.2044Z" fill="#29242C"/>
<path d="M18.837 28.4297C18.837 29.2322 18.7177 30.0057 18.5074 30.7407H20.9846C21.1473 29.9954 21.2356 29.2225 21.2356 28.4297C21.2356 22.4702 16.4039 17.6392 10.4451 17.6392C10.2059 17.6392 9.9687 17.651 9.73291 17.6647C10.0831 18.45 10.4223 19.2394 10.7078 20.0502C15.2202 20.1909 18.837 23.8835 18.837 28.4297Z" fill="#1C181C"/>
<path d="M23.2246 26.3634C23.2246 27.9767 24.5325 29.2853 26.1472 29.2853C27.7605 29.2853 29.069 27.9767 29.069 26.3634C29.069 24.7495 27.7605 23.4409 26.1472 23.4409C24.5325 23.4409 23.2246 24.7495 23.2246 26.3634Z" fill="#989696"/>
<path d="M26.1468 27.7561C25.3767 27.7561 24.7534 27.1329 24.7534 26.3634C24.7534 26.3179 24.7555 26.2738 24.7596 26.2297H27.5332C27.5374 26.2738 27.5395 26.3179 27.5395 26.3634C27.5395 27.1329 26.9162 27.7561 26.1468 27.7561Z" fill="#7E7B7C"/>
<path d="M27.5692 26.2297H23.2243L21.9082 21.8062L3.70557 11.6894H7.74499L24.3385 18.9823L24.273 11.6894C24.273 11.6894 25.3892 9.65345 28.0835 9.78513C31.823 9.96646 33.5846 11.8211 37.411 11.3612C38.8085 11.1937 39.3117 9.61415 39.8916 9.0688C40.9016 8.11944 41.3387 8.07739 41.3387 8.07739L44.3743 14.121C44.3743 14.121 43.8552 18.1529 39.4476 18.8506C29.0687 20.4922 27.5692 26.2297 27.5692 26.2297Z" fill="#29B9DD"/>
<path d="M38.331 15.9591L24.0403 20.1633L7.8667 11.7556H13.4829C13.4829 11.7556 15.0031 13.3447 18.2297 13.9893C22.5001 14.8436 24.2878 13.3337 24.2878 13.3337L34.8494 13.595L38.331 15.9591Z" fill="#1C181C"/>
<path d="M33.2512 16.1576C32.1261 16.2741 31.1326 16.614 30.0812 16.9932C29.4214 17.2304 28.8457 17.3986 28.1542 17.26C27.9467 17.2187 27.8812 16.9264 28.0294 16.7885L28.0653 16.7492C26.3996 16.9381 24.8525 17.7275 23.1475 17.6937C22.9889 17.6903 22.8703 17.5669 22.8648 17.411C22.8248 16.2928 22.418 16.5092 21.8603 16.725C21.5687 16.8381 21.235 16.9512 20.8909 16.8733C20.5704 16.8009 20.2049 16.6851 20.0264 16.3789C19.9374 16.228 19.945 16.0652 19.8926 15.9067C19.3624 15.5716 18.7936 15.4013 18.1883 15.3972C17.7747 15.3641 17.2107 14.8705 16.866 14.8705C16.5061 14.8705 16.2896 14.887 16.0145 14.596C15.5436 14.0948 15.6408 13.211 14.6067 13.1668C14.1041 13.1462 13.6732 13.1103 13.1913 12.9545C13.0058 12.8945 12.9431 12.7084 13.0223 12.5408C13.1947 12.1678 13.2195 11.921 13.152 11.7556H7.8667L24.0403 20.1633L37.9656 16.0673C37.2431 16.1197 36.5185 16.108 35.7932 16.0963C34.9466 16.0832 34.0986 16.0701 33.2512 16.1576Z" fill="#110E0F"/>
<path d="M2.20068 11.7556H13.4828V10.7699H2.20068V11.7556Z" fill="#BDBCBC"/>
<path d="M13.4827 11.7556H2.20068V11.2626H13.4827V11.7556Z" fill="#9C9A9A"/>
<path d="M44.3745 7.28937C45.3597 10.7056 44.3745 14.121 44.3745 14.121L41.3389 8.0774L41.0576 2.88729C41.0576 2.88729 43.39 3.87388 44.3745 7.28937Z" fill="#B5E7FA"/>
<path d="M44.0611 7.34178C44.5906 9.17776 44.4534 11.0124 44.2797 12.1203C44.1763 12.7739 42.3031 8.01537 42.3031 8.01537C42.3031 8.01537 42.2072 5.55958 41.8618 3.97248C42.5182 4.46336 43.5241 5.4796 44.0611 7.34178Z" fill="white"/>
<path d="M41.1291 0.856191C41.2793 1.04923 41.2449 1.32707 41.0525 1.47875L38.3589 3.57948C38.1651 3.73047 37.8873 3.696 37.7356 3.50158C37.5853 3.30922 37.6198 3.03 37.8128 2.88039L40.5072 0.777594C40.6995 0.628675 40.9781 0.662458 41.1291 0.856191Z" fill="#29242C"/>
<path d="M40.5375 1.38016C40.8278 1.75108 41.3649 1.81795 41.7365 1.52701C42.1081 1.23744 42.1743 0.701059 41.8847 0.328761C41.5938 -0.0435375 41.0581 -0.109036 40.6851 0.180529C40.3128 0.470784 40.2473 1.00786 40.5375 1.38016Z" fill="#29242C"/>
<path d="M23.0303 25.5781C22.8814 25.4865 22.8125 25.3403 22.8718 25.1162C22.878 25.1142 22.8849 25.1128 22.8911 25.1107L23.0303 25.5781Z" fill="#999798"/>
<path d="M23.7472 25.714C23.4535 25.714 23.1943 25.6788 23.0309 25.5782L22.8916 25.1107C23.1902 25.0273 23.4756 25.0059 23.7548 25.0059C23.8975 25.0059 24.0389 25.0114 24.1788 25.017C24.3188 25.0225 24.4587 25.028 24.5973 25.028C25.0413 25.028 25.4839 24.9715 25.9528 24.6791C25.3964 24.4378 23.9596 24.6564 23.721 23.989C24.2974 23.8318 24.9062 23.8042 25.4667 23.6105C25.3612 23.2623 25.0103 23.2279 24.6373 23.2279C24.5918 23.2279 24.5463 23.2286 24.5008 23.2292C24.4553 23.2299 24.4091 23.2299 24.3643 23.2299C23.9982 23.2299 23.6638 23.1968 23.5756 22.8604C23.8389 22.8087 24.0954 22.7735 24.3429 22.6887C24.0685 22.4309 23.5301 22.3798 23.2246 22.1551C23.2874 22.1206 23.3632 22.1068 23.428 22.0737C22.9427 21.6353 21.9519 21.4201 21.3294 21.1002C20.462 20.6542 19.6271 20.1585 18.7846 19.6855C17.4395 18.9306 15.9607 18.4542 14.6742 17.6186C13.4725 16.8402 12.3839 16.1135 11.076 15.4854C9.83225 14.8891 9.02077 14.0286 7.89767 13.333C7.35025 12.9945 6.64358 12.9938 6.28369 12.4098C6.47605 12.3823 6.66082 12.3685 6.83938 12.3685C7.79081 12.3685 8.56712 12.7456 9.38135 13.2627C10.6637 14.0769 11.882 14.5354 13.285 15.098C14.4646 15.5702 15.5001 16.4513 16.5832 17.0408C17.8491 17.7309 19.1997 18.4838 20.5379 19.0209C21.1694 19.2739 21.8644 19.4621 22.4401 19.811C22.9799 20.1392 23.3411 20.9072 23.9947 20.9396C24.0154 20.941 24.0361 20.9417 24.0554 20.9417C24.436 20.9417 24.5332 20.7321 24.8924 20.6004C25.3074 20.4501 25.7776 20.4846 26.2016 20.3736C26.9786 20.1709 27.7984 19.9027 28.5837 19.669C29.4599 19.4097 30.2735 19.0464 31.0698 18.6314C31.8971 18.1977 32.5583 18.1749 33.4366 17.975C34.8031 17.6648 36.1903 17.3966 37.5464 17.0581C38.7233 16.7644 39.9656 15.8522 38.5337 14.8898C37.3885 14.121 36.1786 13.788 34.9327 13.3854C34.3639 13.202 33.9503 12.9662 33.3105 12.9642C33.3056 12.9642 33.3015 12.9642 33.2967 12.9642C32.9692 12.9642 32.6431 12.9993 32.3129 13.0352C31.9826 13.0703 31.6489 13.1055 31.3056 13.1055C31.298 13.1055 31.2897 13.1055 31.2821 13.1055C31.2746 13.1055 31.2663 13.1055 31.2587 13.1055C30.7713 13.1055 30.3114 13.16 29.8646 13.2151C29.4186 13.2696 28.9849 13.324 28.5499 13.324C28.0693 13.324 27.5867 13.2579 27.0821 13.051C26.8959 12.9745 26.596 12.9159 26.5353 12.8938L26.465 13.0352C26.365 13.0352 26.0934 13.0558 25.7914 13.0558C25.224 13.0558 24.5504 12.9821 24.7125 12.5553C24.7773 12.385 24.9731 12.3533 25.204 12.3533C25.2702 12.3533 25.3398 12.3561 25.4102 12.3588C25.4798 12.3616 25.5508 12.3636 25.6198 12.3636C25.9452 12.3636 26.232 12.3064 26.2403 11.9183C25.9472 11.8852 25.6425 11.7445 25.6273 11.4226C25.8749 11.3522 26.1561 11.3253 26.4257 11.3253C26.4829 11.3253 26.5402 11.3267 26.5967 11.3288C26.4885 11.2454 26.5381 11.1937 26.3333 11.1185C26.2327 10.6442 27.2903 10.4732 28.492 10.4732C29.8067 10.4732 31.2932 10.678 31.6255 10.9151C31.4648 11.1199 31.1367 11.164 30.7919 11.164C30.6589 11.164 30.5224 11.1578 30.3928 11.1509C30.2631 11.144 30.1397 11.1371 30.0308 11.1371C29.997 11.1371 29.9646 11.1378 29.9343 11.1399C29.9646 11.6004 34.5356 11.586 35.2761 11.7038C35.1802 11.9224 35.1844 11.9879 34.8693 12.0644C35.1099 12.214 35.4815 12.2561 35.8814 12.2561C36.1358 12.2561 36.4012 12.2389 36.6508 12.2216C36.9004 12.2051 37.1341 12.1878 37.3244 12.1878C37.3278 12.1878 37.3306 12.1878 37.3341 12.1878C37.5712 12.1885 37.9166 12.2078 38.2779 12.2078C38.8515 12.2078 39.4651 12.1589 39.7437 11.9079C39.5175 11.7886 39.2914 11.6115 39.2493 11.3515C39.3341 11.3557 39.4203 11.3612 39.5051 11.3612C39.7023 11.3612 39.8898 11.3329 40.0242 11.2012C39.2886 10.8027 40.027 10.5215 40.4207 10.1926C40.7516 9.91475 41.0598 9.42938 41.5438 9.42938C41.5934 9.42938 41.6451 9.43421 41.6989 9.44593C41.9347 10.0471 41.3955 10.1567 41.439 10.6959C41.5479 10.6814 41.641 10.6745 41.7196 10.6745C42.5152 10.6745 41.8699 11.375 41.8616 11.8948C42.1036 11.8645 42.278 11.83 42.407 11.83C42.6159 11.83 42.7055 11.9196 42.7668 12.2568C42.8627 12.7711 42.4897 13.171 43.2501 13.1889C43.2998 13.6095 41.8913 14.2389 41.5148 14.4637C41.0039 14.7712 40.0118 15.1917 39.9567 15.8481C40.5965 15.7902 41.3287 15.0552 41.9381 14.747C42.5111 14.4561 43.024 14.3637 43.6018 14.1714C44.478 16.3045 40.9819 18.0798 39.381 18.3149C36.9163 18.6762 34.4867 18.5976 32.3942 20.2364C31.5462 20.901 30.7395 21.6477 29.8557 22.2971C29.1414 22.8225 28.0163 23.3961 27.5061 24.1007C27.2186 24.4978 27.2137 24.9894 26.8332 25.3307C26.6167 25.523 26.4395 25.5699 26.2416 25.5699C26.1479 25.5699 26.05 25.5595 25.9404 25.5492C25.8314 25.5389 25.7115 25.5278 25.5749 25.5278C25.5653 25.5278 25.5563 25.5285 25.5467 25.5285C25.264 25.5313 24.4167 25.714 23.7472 25.714Z" fill="#4EC5E4"/>
</svg>
