<svg width="88" height="35" viewBox="0 0 88 35" fill="none" xmlns="http://www.w3.org/2000/svg">
<path d="M66.5779 8.64146C64.3833 7.75343 59.0203 3.78749 55.034 1.51514C52.6907 0.178463 51.0041 -1.90735e-06 51.0041 -1.90735e-06C51.0041 -1.90735e-06 25.672 0.358345 24.8522 0.358345C20.5514 0.358345 3.77186 7.86933 3.77186 7.86933L1.96166 8.09044C1.96166 8.09044 1.56422 9.40081 1.26844 10.6209C1.09567 11.339 3.05176e-05 12.0251 3.05176e-05 12.3948C3.05176e-05 13.3916 3.05176e-05 21.165 3.05176e-05 22.0103C3.05176e-05 22.9752 3.24857 26.8025 4.32573 26.8025C5.40218 26.8025 78.1783 26.8025 80.5696 26.8025C82.9609 26.8025 85.8312 23.1359 87.2663 21.3818C88.1415 20.3125 87.786 16.8784 86.8603 14.1787C86.2679 12.451 68.7224 9.50959 66.5779 8.64146Z" fill="#0D97D5"/>
<path d="M59.4617 8.13311C57.7597 5.99158 55.5929 3.75762 53.9839 1.90405C53.6604 1.37863 54.1283 0.997535 55.0343 1.51514C58.6665 3.58628 63.4347 7.05524 65.9131 8.32863C65.9131 8.32863 66.4311 9.35175 65.5057 9.35175C64.8577 9.35175 63.1982 9.35175 61.8501 9.35175C60.7287 9.35175 60.0927 8.9216 59.4617 8.13311Z" fill="#96D5D3"/>
<path d="M4.32594 26.8025H80.5699C82.9611 26.8025 85.8315 23.1359 87.2665 21.3818C87.2682 21.3804 87.2699 21.3783 87.2712 21.3761C87.2699 21.3783 87.2682 21.3804 87.2665 21.3818C85.8315 23.1359 82.9611 26.8025 80.5699 26.8025C78.1786 26.8025 5.40239 26.8025 4.32594 26.8025C3.24878 26.8025 0.000236511 22.9752 0.000236511 22.0103C0.000236511 21.7416 0.000236511 20.7704 0.000236511 19.5396V22.0103C0.000236511 22.9752 3.24878 26.8025 4.32594 26.8025ZM87.2724 21.3747C87.2738 21.3733 87.2748 21.3719 87.2763 21.3704C87.2748 21.3719 87.2738 21.3733 87.2724 21.3747ZM87.2771 21.369C87.2785 21.3676 87.2799 21.3655 87.2812 21.3641C87.2799 21.3655 87.2785 21.3676 87.2771 21.369ZM87.2835 21.3612C87.284 21.3605 87.2843 21.3598 87.2852 21.3591C87.2843 21.3598 87.284 21.3605 87.2835 21.3612Z" fill="#C8B4BF"/>
<path d="M4.3262 26.8025C5.40266 26.8025 78.1788 26.8025 80.5701 26.8025C82.9614 26.8025 85.8317 23.1359 87.2668 21.3818C87.2684 21.3804 87.2701 21.3783 87.2715 21.3761C87.2718 21.3761 87.2723 21.3754 87.2726 21.3747C87.274 21.3733 87.2751 21.3719 87.2765 21.3704C87.2768 21.3697 87.2771 21.3697 87.2773 21.369C87.2787 21.3676 87.2802 21.3655 87.2815 21.3641C87.2821 21.3633 87.2829 21.3619 87.2837 21.3612C87.2843 21.3605 87.2846 21.3598 87.2854 21.3591C87.5765 20.9844 87.724 20.3338 87.7578 19.5396H0.000511169C0.000511169 20.7704 0.000511169 21.7416 0.000511169 22.0103C0.000511169 22.9752 3.24905 26.8025 4.3262 26.8025Z" fill="#1080B3"/>
<path d="M22.4526 26.8025C22.4526 22.0025 18.5464 18.1127 13.7273 18.1127C8.91028 18.1127 5.00406 22.0025 5.00406 26.8025H22.4526Z" fill="#28030E"/>
<path d="M6.43498 26.8025C6.43498 30.8317 9.69916 34.098 13.7277 34.098C17.7562 34.098 21.0239 30.8317 21.0239 26.8025C21.0239 22.7732 17.7562 19.5091 13.7277 19.5091C9.69916 19.5091 6.43498 22.7732 6.43498 26.8025Z" fill="#29242C"/>
<path d="M9.46262 26.8025C9.46262 29.158 11.3724 31.0685 13.7272 31.0685C16.0841 31.0685 17.9932 29.158 17.9932 26.8025C17.9932 24.4469 16.0841 22.5379 13.7272 22.5379C11.3724 22.5379 9.46262 24.4469 9.46262 26.8025Z" fill="#656263"/>
<path d="M76.6704 26.8025C76.6704 21.8923 72.6738 17.91 67.7432 17.91C62.8134 17.91 58.8168 21.8923 58.8168 26.8025H76.6704Z" fill="#28030E"/>
<path d="M60.4862 26.8025C60.4862 30.8317 63.752 34.098 67.7814 34.098C71.8099 34.098 75.0752 30.8317 75.0752 26.8025C75.0752 22.7732 71.8099 19.5091 67.7814 19.5091C63.752 19.5091 60.4862 22.7732 60.4862 26.8025Z" fill="#29242C"/>
<path d="M63.5155 26.8025C63.5155 29.158 65.4249 31.0685 67.7815 31.0685C70.1366 31.0685 72.0469 29.158 72.0469 26.8025C72.0469 24.4469 70.1366 22.5379 67.7815 22.5379C65.4249 22.5379 63.5155 24.4469 63.5155 26.8025Z" fill="#656263"/>
<path d="M64.3941 26.8025C64.3941 28.6738 65.9111 30.1904 67.7816 30.1904C69.6522 30.1904 71.1694 28.6738 71.1694 26.8025C71.1694 24.9318 69.6522 23.416 67.7816 23.416C65.9111 23.416 64.3941 24.9318 64.3941 26.8025Z" fill="#888687"/>
<path d="M10.3418 26.8025C10.3418 28.6738 11.8584 30.1904 13.7276 30.1904C15.5997 30.1904 17.1162 28.6738 17.1162 26.8025C17.1162 24.9318 15.5997 23.416 13.7276 23.416C11.8584 23.416 10.3418 24.9318 10.3418 26.8025Z" fill="#888687"/>
<path d="M82.8762 19.3597C84.1516 19.8788 87.3075 19.9534 87.7463 19.7906C88.1832 19.6285 88.0374 16.2641 87.4505 16.36C86.8639 16.4553 83.9727 16.8933 82.2436 17.4358C80.8655 17.8674 81.6009 18.8414 82.8762 19.3597Z" fill="#F14624"/>
<path d="M82.2436 17.4358C82.6971 17.2936 83.2298 17.1599 83.7803 17.0355C83.883 18.0458 84.3427 19.0049 85.062 19.7849C84.2288 19.7074 83.3956 19.5702 82.8763 19.3597C81.6009 18.8414 80.8655 17.8673 82.2436 17.4358Z" fill="#F57C1D"/>
<path d="M31.9699 13.4947C31.9699 13.9391 32.3296 14.2989 32.774 14.2989H36.7218C37.1662 14.2989 37.5264 13.9391 37.5264 13.4947C37.5264 13.0504 37.1662 12.6906 36.7218 12.6906H32.774C32.3296 12.6906 31.9699 13.0504 31.9699 13.4947Z" fill="#29242C"/>
<path d="M32.6636 13.2928C32.6636 13.627 32.9345 13.8972 33.2679 13.8972H36.229C36.5618 13.8972 36.8325 13.627 36.8325 13.2928C36.8325 12.9608 36.5618 12.6906 36.229 12.6906H33.2679C32.9345 12.6906 32.6636 12.9608 32.6636 13.2928Z" fill="#171316"/>
<path d="M0.000188351 16.4205C0.810014 16.5314 3.24731 16.8706 4.75391 17.2822C6.05931 17.637 5.36395 18.4383 4.15668 18.8642C3.16768 19.2147 0.987052 19.3178 0.000188351 19.2716V16.4205Z" fill="#F14624"/>
<path d="M4.75391 17.2822C4.32589 17.1649 3.82179 17.0533 3.30063 16.9516C3.20323 17.7835 2.76668 18.5727 2.08625 19.2147C2.87617 19.1507 3.66395 19.0377 4.15668 18.8642C5.36395 18.4383 6.05931 17.637 4.75391 17.2822Z" fill="#F57C1D"/>
<path d="M38.821 1.67157V10.8904H55.0115L55.2634 10.3166L56.3979 7.70795C56.3979 7.70795 53.3862 2.96985 53.0646 2.36194C52.748 1.74764 52.1222 1.67157 51.6889 1.67157H40.3772C39.4293 1.67157 38.821 1.67157 38.821 1.67157Z" fill="#96D5D3"/>
<path d="M20.6349 10.8904H36.2998C36.6395 10.8904 36.8325 10.8904 36.8325 10.8904V1.67157C36.8325 1.67157 30.9657 1.67157 27.1519 1.67157H23.9638C23.6417 1.67157 23.2208 1.71211 22.8931 1.98726C22.7765 2.07543 22.6712 2.2041 22.5838 2.36194C22.5248 2.47784 22.384 2.71958 22.1913 3.02816C21.3843 4.3563 19.6822 7.02965 19.2492 7.70795C18.7174 8.54977 19.5187 10.8904 20.6349 10.8904Z" fill="#96D5D3"/>
<path d="M12.2279 10.8868C10.4248 10.8868 8.71629 10.8868 7.59718 10.8868C6.47807 10.8868 7.26373 8.12243 8.62031 7.59772C9.97831 7.07158 20.8281 1.97301 20.8281 1.97301C20.8281 1.97301 18.0019 6.28095 17.116 7.79182C16.2913 9.19817 14.0317 10.8868 12.2279 10.8868Z" fill="#96D5D3"/>
<path d="M56.5418 9.56647C56.3668 10.7922 56.2252 11.7848 56.944 11.8886C57.3403 11.9448 58.6415 11.1164 58.8165 9.89069C58.9909 8.66493 57.9727 7.50671 57.5755 7.45054C56.8584 7.34744 56.7162 8.34071 56.5418 9.56647Z" fill="#470B2E"/>
<path d="M52.8533 10.8904H55.0113L55.2632 10.3166L46.682 1.67157H43.7047L52.8533 10.8904Z" fill="#C4E8E7"/>
<path d="M49.5192 10.8904H51.2563L42.1134 1.67157H40.377L49.5192 10.8904Z" fill="#C4E8E7"/>
<path d="M33.3226 10.8904H36.2998L27.1519 1.67157H24.175L33.3226 10.8904Z" fill="#C4E8E7"/>
<path d="M29.9886 10.8904H31.7256L22.8929 1.98727C22.7763 2.07543 22.671 2.2041 22.5836 2.36195C22.5246 2.47784 22.3838 2.71958 22.1911 3.02816L29.9886 10.8904Z" fill="#C4E8E7"/>
</svg>
