<svg width="100" height="44" viewBox="0 0 100 44" fill="none" xmlns="http://www.w3.org/2000/svg">
<path d="M81.9783 1.48466H70.5752V3.17882H81.9783V1.48466Z" fill="#A7A5A6"/>
<path d="M54.0579 9.53674e-07H42.6548V1.69296H54.0579V9.53674e-07Z" fill="#A7A5A6"/>
<path d="M24.3244 9.53674e-07H12.9219V1.69296H24.3244V9.53674e-07Z" fill="#A7A5A6"/>
<path d="M96.7156 36.4478H63.7729C62.6805 36.4478 62.0913 35.7579 62.0913 33.9522C62.0913 33.9522 62.0913 9.7756 62.0913 6.53064C62.0913 3.28616 62.5624 2.44835 65.4252 2.44835C72.4163 2.44835 77.2469 2.44716 83.365 2.93303C85.0955 3.06911 94.9529 3.93911 94.3799 5.11746C94.854 5.38514 87.6918 9.19844 87.6918 9.19844C87.6918 9.19844 91.0167 19.9969 97.1485 22.9802C97.6285 23.1694 97.9195 23.6017 98.0627 24.1567C98.743 26.8496 99.0597 32.5895 99.0597 32.5895C99.0597 32.5895 99.1497 36.4478 96.7156 36.4478Z" fill="#BDBCBC"/>
<path d="M62.1566 1.48467C54.6175 1.48467 11.5096 1.48467 3.97057 1.48467C1.98906 1.48467 1.6748 2.59207 1.6748 4.67376C1.6748 7.91639 1.6748 33.9522 1.6748 33.9522C1.6748 35.7579 2.31106 36.4478 3.48936 36.4478H61.3677C62.5453 36.4478 63.181 35.7579 63.181 33.9522C63.181 33.9522 63.181 7.666 63.181 4.41985C63.181 2.85318 63.6551 1.48467 62.1566 1.48467Z" fill="#BDBCBC"/>
<path d="M97.1494 22.9802H87.3761C86.9253 22.9802 85.8895 22.5055 84.8638 21.8854C84.4476 21.6374 84.0356 21.363 83.6617 21.0877C83.4566 20.9361 83.261 20.783 83.0892 20.6367C82.552 20.1764 82.1906 19.7441 82.1906 19.4479L82.0821 17.3118L81.5508 6.89844C81.5508 5.80441 82.1524 5.11794 83.0469 5.11794H94.3778C94.8543 5.38628 94.9557 5.68091 95.1745 6.96535C95.3725 8.14835 97.1494 22.9802 97.1494 22.9802Z" fill="#3D4D57"/>
<path d="M73.952 28.4066H63.6694L59.5161 36.4425H78.104L73.952 28.4066Z" fill="#656263"/>
<path d="M61.4204 36.4425C61.4204 40.5455 64.7466 43.8711 68.8486 43.8711C72.9511 43.8711 76.2767 40.5455 76.2767 36.4425C76.2767 32.3415 72.9511 29.0147 68.8486 29.0147C64.7466 29.0147 61.4204 32.3415 61.4204 36.4425Z" fill="#29242C"/>
<path d="M63.9268 36.4425C63.9268 39.1614 66.1307 41.3661 68.8486 41.3661C71.566 41.3661 73.7711 39.1614 73.7711 36.4425C73.7711 33.7255 71.566 31.5223 68.8486 31.5223C66.1307 31.5223 63.9268 33.7255 63.9268 36.4425Z" fill="#7B7979"/>
<path d="M64.9228 38.3289C65.0033 38.496 65.2036 38.5663 65.3706 38.4859C65.5376 38.4054 65.6085 38.205 65.528 38.038C65.4475 37.871 65.2472 37.8007 65.0796 37.8812C64.9126 37.9611 64.8423 38.1621 64.9228 38.3289ZM66.1273 39.8425C66.2716 39.9587 66.4833 39.9355 66.599 39.7906C66.7153 39.6462 66.692 39.4347 66.5471 39.3189C66.4028 39.2027 66.1911 39.226 66.0754 39.3709C65.9592 39.5158 65.983 39.7268 66.1273 39.8425ZM67.8685 40.6869C68.0492 40.7279 68.2293 40.6152 68.2704 40.4347C68.3122 40.2539 68.1995 40.0738 68.0188 40.0322C67.8381 39.9909 67.658 40.1037 67.6163 40.2844C67.5745 40.465 67.6878 40.6452 67.8685 40.6869ZM69.8023 40.6923C69.9836 40.6517 70.0969 40.4722 70.057 40.2914C70.0158 40.1101 69.8363 39.9963 69.6556 40.0368C69.4744 40.0774 69.3611 40.2569 69.401 40.4381C69.4422 40.6189 69.6217 40.7328 69.8023 40.6923ZM71.5489 39.8586C71.6938 39.7435 71.7182 39.5325 71.6032 39.3874C71.4887 39.2421 71.2776 39.2176 71.1321 39.332C70.9866 39.4477 70.9621 39.6587 71.0772 39.8036C71.1923 39.9492 71.4034 39.9737 71.5489 39.8586ZM72.7624 38.353C72.8435 38.1859 72.7743 37.9849 72.6079 37.9038C72.4416 37.8221 72.24 37.8912 72.1589 38.0578C72.0778 38.2241 72.1464 38.4252 72.3128 38.5067C72.4797 38.5877 72.6801 38.5193 72.7618 38.353H72.7624ZM73.2025 36.4692C73.203 36.2838 73.054 36.1322 72.8685 36.131C72.6831 36.1298 72.5316 36.2796 72.531 36.465C72.5298 36.6505 72.6795 36.8014 72.8649 36.8026C73.0498 36.8037 73.2013 36.6546 73.2025 36.4692ZM72.7844 34.5794C72.7051 34.412 72.5048 34.3409 72.3372 34.4204C72.1697 34.4996 72.0981 34.6999 72.178 34.8676C72.2573 35.0351 72.4571 35.1066 72.6252 35.0274C72.7922 34.9475 72.8638 34.7472 72.7844 34.5794ZM71.5883 33.0596C71.4445 32.9427 71.2329 32.9648 71.116 33.109C70.9997 33.2527 71.0218 33.4644 71.1655 33.5814C71.3098 33.6976 71.5209 33.6755 71.6378 33.5317C71.7546 33.3876 71.7326 33.1765 71.5883 33.0596ZM69.8524 32.205C69.6723 32.1628 69.4911 32.2741 69.4487 32.4549C69.4058 32.635 69.5179 32.8162 69.698 32.8586C69.8787 32.901 70.0593 32.7894 70.1023 32.6093C70.1446 32.4286 70.0331 32.2481 69.8524 32.205ZM67.9186 32.1885C67.7373 32.2278 67.6228 32.4067 67.6616 32.5872C67.701 32.7684 67.8798 32.8837 68.0611 32.8444C68.2424 32.805 68.3569 32.6261 68.3181 32.4447C68.2788 32.2635 68.0999 32.1491 67.9186 32.1885ZM66.1679 33.0118C66.0212 33.1257 65.9955 33.3368 66.11 33.4828C66.2239 33.6291 66.435 33.6548 66.5811 33.5408C66.7272 33.4263 66.7528 33.2152 66.6383 33.0691C66.5245 32.9229 66.3134 32.8972 66.1673 33.0118H66.1679ZM64.9454 34.511C64.8631 34.6766 64.9311 34.8783 65.0969 34.9605C65.2633 35.0428 65.4648 34.9754 65.5471 34.8091C65.6294 34.6428 65.5614 34.4418 65.3956 34.3596C65.2293 34.2766 65.0277 34.3447 64.9454 34.511ZM64.4946 36.3924C64.4929 36.5778 64.6413 36.7292 64.8262 36.7315C65.0116 36.7333 65.1637 36.585 65.1655 36.4001H65.1661C65.1679 36.2146 65.0194 36.0625 64.8339 36.0602C64.6485 36.0583 64.4964 36.2067 64.4946 36.3924ZM64.4946 36.4425C64.4946 36.6279 64.6449 36.7781 64.8304 36.7781C65.0152 36.7781 65.1661 36.6279 65.1661 36.4425H65.1655C65.1655 36.2568 65.0152 36.1072 64.8304 36.1072C64.6449 36.1072 64.4946 36.2568 64.4946 36.4425Z" fill="#4F4C4C"/>
<path d="M66.9482 36.4425C66.9482 37.493 67.7992 38.3439 68.8487 38.3439C69.8982 38.3439 70.7503 37.493 70.7503 36.4425C70.7503 35.3936 69.8982 34.5424 68.8487 34.5424C67.7992 34.5424 66.9482 35.3936 66.9482 36.4425Z" fill="#918F90"/>
<path d="M21.4236 28.4066H11.1415L6.98828 36.4425H25.5762L21.4236 28.4066Z" fill="#656263"/>
<path d="M8.89209 36.4425C8.89209 40.5455 12.2183 43.8711 16.3202 43.8711C20.4222 43.8711 23.7484 40.5455 23.7484 36.4425C23.7484 32.3415 20.4222 29.0147 16.3202 29.0147C12.2183 29.0147 8.89209 32.3415 8.89209 36.4425Z" fill="#29242C"/>
<path d="M11.3989 36.4425C11.3989 39.1614 13.6023 41.3661 16.3202 41.3661C19.0382 41.3661 21.2421 39.1614 21.2421 36.4425C21.2421 33.7255 19.0382 31.5223 16.3202 31.5223C13.6023 31.5223 11.3989 33.7255 11.3989 36.4425Z" fill="#7B7979"/>
<path d="M12.3946 38.3289C12.4751 38.496 12.6754 38.5663 12.8424 38.4859C13.0093 38.406 13.0797 38.205 12.9998 38.038C12.9187 37.871 12.7184 37.8007 12.5514 37.8812C12.3844 37.9619 12.3141 38.1621 12.3946 38.3289ZM13.5991 39.8425C13.7434 39.9587 13.9551 39.9355 14.0708 39.7906C14.1864 39.6457 14.1632 39.4347 14.0189 39.3189C13.874 39.2027 13.6629 39.226 13.5466 39.3709C13.4309 39.5158 13.4542 39.7268 13.5991 39.8425ZM15.3403 40.6869C15.521 40.7279 15.7011 40.6152 15.7428 40.4347C15.7839 40.2539 15.6712 40.0738 15.4912 40.0322H15.4906C15.3099 39.9909 15.1298 40.1037 15.0881 40.2844C15.0469 40.465 15.1596 40.6452 15.3403 40.6869ZM17.2741 40.6923C17.4554 40.6517 17.5693 40.4722 17.5287 40.2914C17.4876 40.1101 17.3087 39.997 17.1274 40.0368C16.9467 40.0774 16.8328 40.2569 16.8734 40.4381C16.9139 40.6189 17.0934 40.7328 17.2741 40.6923ZM19.0207 39.8586C19.1662 39.7435 19.1906 39.5325 19.0755 39.3869C18.9604 39.2421 18.7494 39.2176 18.6039 39.3326C18.4584 39.4477 18.4339 39.6583 18.549 39.8036C18.6641 39.9492 18.8752 39.9737 19.0207 39.8586ZM20.2341 38.353C20.3152 38.1867 20.2461 37.9856 20.0803 37.9038C19.9133 37.8228 19.7124 37.8912 19.6313 38.0578C19.5496 38.2248 19.6188 38.4256 19.7851 38.5067C19.9515 38.5884 20.153 38.5193 20.2341 38.353ZM20.6742 36.4692C20.6754 36.2838 20.5257 36.1322 20.3403 36.131C20.1554 36.1298 20.004 36.2796 20.0028 36.465C20.0016 36.6505 20.1513 36.8014 20.3367 36.8026C20.5216 36.8037 20.673 36.6546 20.6742 36.4692ZM20.2562 34.5794C20.1769 34.412 19.9765 34.3405 19.809 34.4204C19.6414 34.4996 19.5705 34.6999 19.6498 34.8676C19.7291 35.0344 19.9294 35.1061 20.097 35.0267C20.2646 34.9475 20.3355 34.7472 20.2562 34.5794ZM19.0606 33.0596C18.9163 32.9427 18.7046 32.9648 18.5884 33.1085C18.4715 33.2527 18.4935 33.4637 18.6378 33.5806C18.7816 33.6976 18.9926 33.6755 19.1095 33.5313C19.2264 33.3876 19.2043 33.1758 19.0606 33.0596ZM17.3242 32.205C17.1435 32.1628 16.9628 32.2741 16.9205 32.4549C16.8776 32.635 16.9891 32.8157 17.1698 32.8586C17.3498 32.901 17.5311 32.7894 17.5734 32.6087C17.6164 32.4286 17.5043 32.2481 17.3242 32.205ZM15.3904 32.1885C15.2091 32.2278 15.094 32.4067 15.1334 32.5879C15.1727 32.7684 15.3516 32.8837 15.5329 32.8444C15.7142 32.805 15.8287 32.6261 15.7893 32.4447C15.75 32.2635 15.5717 32.1491 15.3904 32.1885ZM13.639 33.0118C13.4929 33.1257 13.4673 33.3368 13.5818 33.4828C13.6957 33.6291 13.9068 33.6548 14.0529 33.5408C14.199 33.4263 14.2246 33.2152 14.1101 33.0691C13.9956 32.9229 13.7845 32.8972 13.639 33.0118ZM12.4166 34.511C12.3343 34.6766 12.4023 34.8783 12.5681 34.9605C12.7345 35.0435 12.936 34.9754 13.0183 34.8091C13.1006 34.6433 13.0326 34.4418 12.8668 34.3596C12.7005 34.2766 12.4989 34.3447 12.4166 34.511ZM11.9664 36.3924C11.964 36.5778 12.1125 36.7292 12.2974 36.7315C12.4828 36.7333 12.6349 36.585 12.6373 36.4001C12.6396 36.2146 12.4906 36.0625 12.3051 36.0602C12.1197 36.0583 11.9682 36.2067 11.9658 36.3924H11.9664ZM11.9658 36.4425C11.9658 36.6279 12.1161 36.7781 12.3015 36.7781C12.487 36.7781 12.6373 36.6279 12.6373 36.4425C12.6373 36.2568 12.487 36.1072 12.3015 36.1072C12.1161 36.1072 11.9664 36.2568 11.9664 36.4425" fill="#4F4C4C"/>
<path d="M14.4199 36.4425C14.4199 37.493 15.2708 38.3439 16.3203 38.3439C17.3698 38.3439 18.2213 37.493 18.2213 36.4425C18.2213 35.3936 17.3698 34.5424 16.3203 34.5424C15.2708 34.5424 14.4199 35.3936 14.4199 36.4425Z" fill="#918F90"/>
<path d="M86.1265 26.146C86.1265 26.5293 85.882 26.8394 85.5803 26.8394H82.9786C82.6781 26.8394 82.4336 26.5293 82.4336 26.146C82.4336 25.7633 82.6781 25.4518 82.9786 25.4518H85.5803C85.882 25.4518 86.1265 25.7633 86.1265 26.146Z" fill="#29242C"/>
<path d="M53.1105 34.5424C53.1105 34.9261 52.866 35.2373 52.5643 35.2373H49.9626C49.6609 35.2373 49.417 34.9261 49.417 34.5424C49.417 34.1591 49.6609 33.8486 49.9626 33.8486H52.5643C52.866 33.8486 53.1105 34.1591 53.1105 34.5424Z" fill="#8D8B8B"/>
<path d="M36.1497 34.5424C36.1497 34.9261 35.9064 35.2373 35.6041 35.2373H33.003C32.7019 35.2373 32.458 34.9261 32.458 34.5424C32.458 34.1591 32.7019 33.8486 33.003 33.8486H35.6041C35.9064 33.8486 36.1497 34.1591 36.1497 34.5424Z" fill="#8D8B8B"/>
<path d="M100 33.4896C100 35.1245 99.996 36.4478 98.7783 36.4478H94.8803C93.6626 36.4478 93.6597 35.1245 93.6597 33.4896C93.6597 31.8574 93.6626 30.5342 94.8803 30.5342H98.7783C99.996 30.5342 100 31.8574 100 33.4896Z" fill="#918F90"/>
<path d="M98.7783 36.4478H94.8803C94.8779 36.4478 94.8755 36.4478 94.8725 36.4478C94.8725 36.4478 94.8719 36.4478 94.8713 36.4478C94.8689 36.4478 94.8672 36.4478 94.8648 36.4478H94.8642C94.1892 36.4406 93.8982 36.0113 93.7676 35.3565C93.8266 35.3623 93.8755 35.3821 93.9411 35.3821H97.8385C99.0562 35.3821 99.061 34.0589 99.061 32.4244C99.061 31.7137 99.0538 31.0697 98.9518 30.5593C99.9834 30.6916 100 31.9457 100 33.4896C100 35.1245 99.996 36.4478 98.7783 36.4478Z" fill="#7B7979"/>
<path d="M98.4704 29.9726C98.4704 29.9726 95.2933 29.9726 94.793 29.9726C94.2927 29.9726 93.883 27.8783 94.793 27.6619C95.7029 27.4441 98.2247 26.8395 98.2247 26.8395L98.4704 29.9726Z" fill="#F68712"/>
<path d="M6.34167 33.4896C6.34167 35.1245 6.33691 36.4478 5.11985 36.4478H1.22182C0.00417353 36.4478 0 35.1245 0 33.4896C0 31.8574 0.00417353 30.5342 1.22182 30.5342H5.11985C6.33691 30.5342 6.34167 31.8574 6.34167 33.4896Z" fill="#918F90"/>
<path d="M2.37109 29.9726C2.37109 29.9726 5.30252 29.9726 5.80222 29.9726C6.30192 29.9726 6.71218 27.8783 5.80222 27.6619C4.89107 27.4441 2.37109 26.8395 2.37109 26.8395V29.9726Z" fill="#F9A72B"/>
<path d="M80.1835 36.4478V6.47871C80.1835 6.39046 80.1113 6.31896 80.0231 6.31896C79.9348 6.31896 79.8633 6.39046 79.8633 6.47871V36.4478C79.8633 36.5361 79.9348 36.6076 80.0231 36.6076C80.1113 36.6076 80.1835 36.5361 80.1835 36.4478Z" fill="#918F90"/>
<path d="M78.1056 5.11794V22.9802C78.1056 22.9802 75.2273 22.9802 72.7753 22.9802C71.1641 22.9802 70.752 21.8794 70.1086 21.1282C69.7926 20.7572 69.4181 20.4711 68.8116 20.4471L68.7276 20.4455H67.8743C66.3304 20.4455 65.1021 20.4455 65.1021 20.4455V5.11794H78.1056Z" fill="#3D4D57"/>
<path d="M38.8486 20.7613H63.1808V5.11792H38.8486V20.7613Z" fill="#3D4D57"/>
<path d="M12.1592 20.7613H36.4921V5.11792H12.1592V20.7613Z" fill="#3D4D57"/>
<path d="M4.35596 20.7625H10.2337V5.11746C10.2337 5.11746 4.35596 5.09605 4.35596 11.6207C4.35596 15.1663 4.35596 20.7625 4.35596 20.7625Z" fill="#3D4D57"/>
<path d="M58.8304 35.6815V35.5217H43.8572V27.6356H58.6705V35.6815H58.8304V35.5217V35.6815H58.9902V27.4758L58.9437 27.3626L58.8304 27.316H43.6974L43.5847 27.3626L43.5376 27.4758V35.6815L43.5847 35.7942L43.6974 35.8413H58.8304L58.9437 35.7942L58.9902 35.6815H58.8304Z" fill="#918F90"/>
<path d="M41.8699 35.6815V35.5217H26.8968V27.6356H41.7095V35.6815H41.8699V35.5217V35.6815H42.0297V27.4758L41.9826 27.3626L41.8699 27.316H26.737L26.6243 27.3626L26.5771 27.4758V35.6815L26.6243 35.7942L26.737 35.8413H41.8699L41.9826 35.7942L42.0297 35.6815H41.8699Z" fill="#918F90"/>
<path d="M18.0638 20.7613H14.3584L27.0537 5.11792H30.7597L18.0638 20.7613Z" fill="#6E7984"/>
<path d="M20.8554 20.7613H19.0015L31.6973 5.11792H33.5506L20.8554 20.7613Z" fill="#6E7984"/>
<path d="M45.8114 20.7613H42.106L54.8018 5.11792H58.5061L45.8114 20.7613Z" fill="#6E7984"/>
<path d="M48.5985 20.7613H46.7476L59.4434 5.11792H61.2944L48.5985 20.7613Z" fill="#6E7984"/>
<path d="M67.8743 20.4455C66.3304 20.4455 65.1021 20.4455 65.1021 20.4455V19.2962L76.6059 5.11795H78.1056V7.84138L67.8743 20.4455Z" fill="#6E7984"/>
<path d="M70.1085 21.1282C69.7924 20.7571 69.418 20.4711 68.8115 20.4471L78.1055 8.99275V11.2755L70.1085 21.1282Z" fill="#6E7984"/>
<path d="M83.0897 20.6367C82.5524 20.1764 82.1911 19.7441 82.1911 19.4479L82.0825 17.3119L91.4403 5.77996V10.3447L83.0897 20.6367Z" fill="#6E7984"/>
<path d="M84.8638 21.8854C84.4475 21.6374 84.0355 21.363 83.6616 21.0877L91.4398 11.4984V13.7816L84.8638 21.8854Z" fill="#6E7984"/>
<path d="M93.6595 23.7424H91.0674V4.79717H92.3637L93.6595 23.7424Z" fill="#BDBCBC"/>
</svg>
