<svg width="161" height="50" viewBox="0 0 161 50" fill="none" xmlns="http://www.w3.org/2000/svg">
<path d="M81.9507 41.9218H54.7323V35.3801H81.9507V41.9218Z" fill="#171417"/>
<path d="M123.563 12.7257H126.646V41.5994H123.563V12.7257Z" fill="#030B05"/>
<path d="M157.905 42.9525H127.456C126.428 42.9525 125.872 42.3036 125.872 40.6046C125.872 40.6046 125.872 17.8361 125.872 14.7789C125.872 11.7225 126.315 10.9326 129.012 10.9326C135.595 10.9326 140.146 10.9326 145.907 11.3901C147.537 11.5186 150.193 12.3387 149.652 13.4476C150.1 13.7002 149.982 17.2913 149.982 17.2913C149.982 17.2913 152.511 23.5433 158.286 26.3537C158.738 26.5325 159.012 26.938 159.147 27.4609C159.788 29.9993 160.115 39.3203 160.115 39.3203C160.115 39.3203 160.199 42.9525 157.905 42.9525Z" fill="#F14624"/>
<path d="M123.425 32.0198C116.647 32.0198 8.85006 32.0198 2.07086 32.0198C1.02578 32.0198 0.752968 32.6696 0.752968 33.906C0.752968 36.9607 0.752968 39.8156 0.752968 39.8156H5.53349L6.10599 35.9551H11.8359L13.4845 42.9525C13.4845 42.9525 53.4504 42.9525 57.7491 42.9525C60.9003 35.7259 78.9488 36.8549 78.9488 36.8549V42.9525H122.716C123.776 42.9525 124.346 42.3036 124.346 40.6046C124.346 40.6046 124.346 37.8412 124.346 34.7841C124.346 33.3084 124.772 32.0198 123.425 32.0198Z" fill="#29242C"/>
<path d="M121.157 2.67029e-05C113.338 2.67029e-05 11.5468 2.67029e-05 3.72675 2.67029e-05C0.526024 2.67029e-05 -0.000289917 0.789082 -0.000289917 3.84627C-0.000289917 6.90178 -0.000289917 29.6712 -0.000289917 29.6712C-0.000289917 31.371 0.658653 32.0199 1.88002 32.0199H123.004C124.226 32.0199 124.885 31.371 124.885 29.6712C124.885 29.6712 124.885 6.90178 124.885 3.84627C124.885 0.789082 124.359 2.67029e-05 121.157 2.67029e-05Z" fill="#918F90"/>
<path d="M115.023 0.692497C108.401 0.692497 10.8059 0.692497 4.18449 0.692497C1.47231 0.692497 1.02575 2.47543 1.02575 5.07009C1.02575 7.66475 1.02575 25.887 1.02575 25.887C1.02575 27.3308 1.5848 27.8815 2.61981 27.8815H116.588C117.623 27.8815 118.182 27.3308 118.182 25.887C118.182 25.887 118.182 6.55252 118.182 3.95785C118.182 1.36319 117.735 0.692497 115.023 0.692497Z" fill="#ABAAAA"/>
<path d="M31.6514 42.95C31.6514 38.2979 27.8647 34.5239 23.195 34.5239C18.5236 34.5239 14.7369 38.2979 14.7369 42.95H31.6514Z" fill="#1B171B"/>
<path d="M16.1992 42.95C16.1992 46.813 19.3311 49.9449 23.195 49.9449C27.058 49.9449 30.1899 46.813 30.1899 42.95C30.1899 39.087 27.058 35.9551 23.195 35.9551C19.3311 35.9551 16.1992 39.087 16.1992 42.95Z" fill="#29242C"/>
<path d="M18.2958 42.95C18.2958 45.6538 20.4893 47.8489 23.1947 47.8489C25.8993 47.8489 28.0928 45.6538 28.0928 42.95C28.0928 40.2445 25.8993 38.0519 23.1947 38.0519C20.4893 38.0519 18.2958 40.2445 18.2958 42.95Z" fill="#7B7979"/>
<path d="M20.067 44.4525C20.1434 44.6095 20.0771 44.7984 19.9201 44.8739C19.7623 44.9503 19.5734 44.884 19.4978 44.7262C19.4223 44.5692 19.4886 44.3803 19.6456 44.3048C19.8034 44.2284 19.9923 44.2947 20.067 44.4525ZM21.0273 45.6579C21.1641 45.7671 21.1859 45.966 21.0776 46.102C20.9677 46.2388 20.7687 46.2606 20.6328 46.1515C20.4968 46.0424 20.4741 45.8434 20.5832 45.7075C20.6932 45.5706 20.8913 45.5488 21.0273 45.6579ZM22.414 46.3295C22.5844 46.3689 22.691 46.5385 22.6516 46.7081C22.613 46.8785 22.4434 46.9851 22.2721 46.9456C22.1026 46.9062 21.996 46.7366 22.0354 46.5662C22.0749 46.3966 22.2444 46.29 22.414 46.3295ZM23.956 46.3337C24.1264 46.2951 24.296 46.4025 24.3338 46.5729C24.3724 46.7433 24.2649 46.912 24.0945 46.9506H24.0937C23.9241 46.9884 23.7554 46.8818 23.7168 46.7114C23.679 46.541 23.7865 46.3714 23.956 46.3337ZM25.3461 45.6697C25.4829 45.5614 25.6819 45.5841 25.7902 45.7209C25.8993 45.8577 25.8758 46.0567 25.739 46.1658C25.6021 46.2741 25.4032 46.2506 25.2949 46.1137C25.1866 45.9769 25.2093 45.778 25.3461 45.6697ZM26.3123 44.4693C26.3895 44.3123 26.5792 44.2469 26.7362 44.3232C26.8932 44.4005 26.9578 44.5893 26.8814 44.7463C26.805 44.9033 26.6153 44.9688 26.4584 44.8924C26.3014 44.8151 26.2367 44.6263 26.3131 44.4693H26.3123ZM26.6623 42.9684C26.6632 42.7946 26.8059 42.6536 26.9805 42.6545C27.1542 42.6553 27.2953 42.798 27.2944 42.9726C27.2936 43.1472 27.1517 43.2882 26.9763 43.2866C26.8017 43.2857 26.6607 43.1439 26.6615 42.9684H26.6623ZM26.3291 41.4642C26.2552 41.3064 26.3224 41.1175 26.4802 41.0428C26.638 40.9681 26.826 41.0352 26.9007 41.193C26.9754 41.3508 26.9083 41.5389 26.7505 41.6136C26.5935 41.6891 26.4046 41.622 26.3299 41.4642H26.3291ZM25.3763 40.2529C25.2412 40.1429 25.2202 39.9431 25.3293 39.808C25.4401 39.672 25.6391 39.6518 25.7742 39.7618C25.9094 39.8709 25.9304 40.0699 25.8212 40.2059C25.7113 40.341 25.5123 40.362 25.3763 40.2529ZM23.9938 39.5729C23.8242 39.5326 23.7185 39.3622 23.7588 39.1927C23.7991 39.0223 23.9686 38.9174 24.139 38.9576C24.3094 38.9979 24.4144 39.1683 24.3741 39.3379C24.3338 39.5075 24.1634 39.6132 23.993 39.5729H23.9938ZM22.4526 39.5595C22.2822 39.5973 22.1135 39.489 22.0766 39.3186C22.0388 39.1482 22.1471 38.9795 22.3175 38.9417C22.4887 38.9048 22.6566 39.013 22.6935 39.1834C22.7313 39.3538 22.623 39.5226 22.4518 39.5595H22.4526ZM21.0583 40.2159C20.9215 40.3234 20.7226 40.299 20.6151 40.1622C20.5077 40.0246 20.532 39.8256 20.6688 39.7182C20.8065 39.6107 21.0055 39.6342 21.1129 39.7719C21.2203 39.9095 21.1968 40.1085 21.0592 40.2159H21.0583ZM20.0846 41.4113C20.0074 41.5674 19.8177 41.6312 19.6615 41.554C19.5046 41.4768 19.4408 41.287 19.518 41.1301C19.5961 40.9739 19.7858 40.9101 19.9419 40.9874C20.0989 41.0654 20.1627 41.2551 20.0846 41.4113ZM19.7262 42.9097C19.7245 43.0843 19.581 43.2236 19.4064 43.2219C19.2318 43.2202 19.0924 43.0767 19.0941 42.9021C19.0958 42.7275 19.2393 42.5882 19.4139 42.5898C19.5885 42.5915 19.7278 42.7351 19.7262 42.9097ZM19.7262 42.9499C19.7262 43.1245 19.5843 43.2664 19.4097 43.2664C19.2351 43.2664 19.0932 43.1245 19.0932 42.9499C19.0932 42.7753 19.2351 42.6335 19.4097 42.6335C19.5843 42.6335 19.7253 42.7753 19.7253 42.9499" fill="#4F4C4C"/>
<path d="M21.4037 42.95C21.4037 43.938 22.2062 44.7388 23.1951 44.7388C24.1822 44.7388 24.9839 43.938 24.9839 42.95C24.9839 41.9603 24.1822 41.1604 23.1951 41.1604C22.2062 41.1604 21.4037 41.9603 21.4037 42.95Z" fill="#918F90"/>
<path d="M50.665 42.95C50.665 38.2979 46.8784 34.5239 42.2087 34.5239C37.5373 34.5239 33.7523 38.2979 33.7523 42.95H50.665Z" fill="#1B171B"/>
<path d="M35.2134 42.95C35.2134 46.813 38.3445 49.9449 42.2092 49.9449C46.0714 49.9449 49.2041 46.813 49.2041 42.95C49.2041 39.087 46.0714 35.9551 42.2092 35.9551C38.3445 35.9551 35.2134 39.087 35.2134 42.95Z" fill="#29242C"/>
<path d="M37.3096 42.95C37.3096 45.6538 39.5031 47.8489 42.2085 47.8489C44.914 47.8489 47.1074 45.6538 47.1074 42.95C47.1074 40.2445 44.914 38.0519 42.2085 38.0519C39.5031 38.0519 37.3096 40.2445 37.3096 42.95Z" fill="#7B7979"/>
<path d="M39.0808 44.4526C39.1563 44.6096 39.0909 44.7985 38.9331 44.874C38.7761 44.9504 38.5864 44.8841 38.5108 44.7263C38.4353 44.5693 38.5016 44.3804 38.6586 44.3049C38.8164 44.2285 39.0052 44.2948 39.0808 44.4526ZM40.0411 45.658C40.1771 45.7672 40.1997 45.9661 40.0906 46.1021C39.9815 46.2389 39.7826 46.2607 39.6457 46.1516C39.5097 46.0425 39.4879 45.8436 39.597 45.7067C39.7062 45.5707 39.9051 45.5489 40.0411 45.658ZM41.4278 46.3296C41.5982 46.3682 41.704 46.5386 41.6645 46.7082C41.6259 46.8786 41.4564 46.9852 41.286 46.9457C41.1164 46.9063 41.0098 46.7375 41.0492 46.5671C41.0879 46.3967 41.2574 46.2901 41.427 46.3296H41.4278ZM42.969 46.3338C43.1394 46.296 43.309 46.4026 43.3467 46.573C43.3854 46.7434 43.2779 46.913 43.1075 46.9508C42.9371 46.9894 42.7684 46.8819 42.7306 46.7115C42.692 46.5411 42.7994 46.3716 42.9698 46.3338H42.969ZM44.3591 45.6706C44.4968 45.5615 44.6957 45.585 44.804 45.7218C44.9123 45.8587 44.8888 46.0576 44.7519 46.1659C44.616 46.2742 44.4162 46.2515 44.3079 46.1147C44.1996 45.9779 44.2231 45.7789 44.3591 45.6706ZM45.3269 44.4703C45.4033 44.3133 45.593 44.2478 45.75 44.325C45.907 44.4014 45.9716 44.5903 45.8952 44.7473C45.8189 44.9042 45.6291 44.9697 45.4722 44.8925C45.3152 44.8161 45.2506 44.6272 45.3269 44.4703ZM45.6762 42.9694C45.6778 42.7948 45.8197 42.6546 45.9943 42.6554C46.1689 42.6563 46.3099 42.799 46.3082 42.9736H46.3091C46.3082 43.1482 46.1655 43.2892 45.9909 43.2875C45.8163 43.2867 45.6753 43.144 45.6762 42.9694ZM45.3437 41.4651C45.269 41.3073 45.3362 41.1184 45.494 41.0437C45.6518 40.969 45.8407 41.0362 45.9145 41.194C45.9901 41.3518 45.9229 41.5407 45.7651 41.6154C45.6073 41.6901 45.4185 41.6229 45.3437 41.4651ZM44.391 40.253C44.255 40.143 44.234 39.9441 44.344 39.8081C44.4548 39.6729 44.6537 39.652 44.7889 39.7619C44.9249 39.8719 44.9459 40.0717 44.835 40.2068C44.7251 40.3428 44.5261 40.3629 44.391 40.253ZM43.0085 39.573C42.8389 39.5328 42.734 39.3623 42.7743 39.1919C42.8145 39.0224 42.985 38.9175 43.1545 38.9578H43.1537C43.3241 38.998 43.4299 39.1676 43.3896 39.338C43.3493 39.5076 43.1789 39.6133 43.0093 39.573H43.0085ZM41.4673 39.5596C41.296 39.5965 41.1281 39.4883 41.0912 39.3179C41.0534 39.1475 41.1617 38.9787 41.3321 38.9418C41.5034 38.9049 41.6721 39.0132 41.709 39.1836C41.746 39.354 41.6377 39.5227 41.4673 39.5596ZM40.073 40.2152C39.9353 40.3227 39.7372 40.2983 39.6298 40.1615C39.5223 40.0238 39.5467 39.8249 39.6835 39.7174C39.8212 39.61 40.0201 39.6343 40.1276 39.772C40.235 39.9088 40.2107 40.1078 40.073 40.2152ZM39.0984 41.4097C39.0212 41.5667 38.8315 41.6305 38.6753 41.5524C38.5184 41.4752 38.4546 41.2855 38.5326 41.1293C38.6099 40.9724 38.7996 40.9086 38.9557 40.9866C39.1127 41.0639 39.1765 41.2536 39.0984 41.4097ZM38.7391 42.9081C38.7375 43.0827 38.5939 43.222 38.4193 43.2203C38.2456 43.2187 38.1054 43.0751 38.1071 42.9005C38.1096 42.7259 38.2531 42.5866 38.4277 42.5883C38.6015 42.5908 38.7417 42.7335 38.7391 42.9081ZM38.7391 42.9501C38.7391 43.1247 38.5981 43.2665 38.4227 43.2665C38.2481 43.2665 38.1062 43.1247 38.1062 42.9501H38.1071C38.1071 42.7755 38.2489 42.6336 38.4227 42.6336C38.5973 42.6336 38.7391 42.7755 38.7391 42.9501Z" fill="#4F4C4C"/>
<path d="M40.4182 42.95C40.4182 43.938 41.2199 44.7388 42.2087 44.7388C43.1976 44.7388 43.9976 43.938 43.9976 42.95C43.9976 41.9603 43.1976 41.1604 42.2087 41.1604C41.2199 41.1604 40.4182 41.9603 40.4182 42.95Z" fill="#918F90"/>
<path d="M98.1172 42.95C98.1172 38.2979 94.331 34.5239 89.6605 34.5239C84.9899 34.5239 81.2041 38.2979 81.2041 42.95H98.1172Z" fill="#1B171B"/>
<path d="M82.6654 42.95C82.6654 46.813 85.7973 49.9449 89.6603 49.9449C93.5242 49.9449 96.6553 46.813 96.6553 42.95C96.6553 39.087 93.5242 35.9551 89.6603 35.9551C85.7973 35.9551 82.6654 39.087 82.6654 42.95Z" fill="#29242C"/>
<path d="M84.7618 42.95C84.7618 45.6538 86.9561 47.8489 89.6607 47.8489C92.3662 47.8489 94.5596 45.6538 94.5596 42.95C94.5596 40.2445 92.3662 38.0519 89.6607 38.0519C86.9561 38.0519 84.7618 40.2445 84.7618 42.95Z" fill="#7B7979"/>
<path d="M86.5338 44.4526C86.6093 44.6096 86.5439 44.7985 86.386 44.874C86.2291 44.9496 86.0402 44.8841 85.9638 44.7263C85.8891 44.5693 85.9546 44.3804 86.1124 44.3049C86.2694 44.2285 86.4582 44.2948 86.5338 44.4526ZM87.4941 45.658C87.6309 45.7672 87.6527 45.9661 87.5436 46.1021C87.4345 46.2389 87.2355 46.2607 87.0987 46.1516C86.9627 46.0425 86.9409 45.8436 87.05 45.7076C87.1592 45.5707 87.3581 45.5489 87.4941 45.658ZM88.8808 46.3296C89.0512 46.369 89.1578 46.5386 89.1184 46.7082C89.0789 46.8786 88.9094 46.9852 88.739 46.9457C88.5686 46.9063 88.4628 46.7367 88.5022 46.5663C88.5408 46.3967 88.7104 46.2901 88.8808 46.3296ZM90.422 46.3338C90.5932 46.296 90.762 46.4035 90.7997 46.5739C90.8384 46.7443 90.7309 46.913 90.5605 46.9508C90.3901 46.9894 90.2214 46.8819 90.1828 46.7115C90.1441 46.5411 90.2516 46.3724 90.422 46.3338ZM91.8129 45.6698C91.9498 45.5615 92.1487 45.585 92.257 45.7218C92.3653 45.8587 92.3426 46.0576 92.2049 46.1659C92.069 46.2742 91.87 46.2515 91.7617 46.1147C91.6526 45.977 91.6761 45.7789 91.8129 45.6698ZM92.7791 44.4694C92.8555 44.3124 93.0452 44.247 93.2022 44.3242C93.3592 44.4006 93.4246 44.5903 93.3482 44.7473H93.3474C93.271 44.9042 93.0821 44.9689 92.9252 44.8925C92.7682 44.8161 92.7036 44.6264 92.7799 44.4694H92.7791ZM93.1292 42.9694C93.13 42.7948 93.2718 42.6537 93.4464 42.6546C93.621 42.6554 93.7621 42.7981 93.7604 42.9727H93.7612C93.7604 43.1473 93.6185 43.2883 93.4431 43.2875C93.2685 43.2867 93.1275 43.144 93.1283 42.9694H93.1292ZM92.7959 41.4643C92.7212 41.3065 92.7883 41.1184 92.9462 41.0437C93.104 40.9682 93.2928 41.0353 93.3675 41.1931V41.194C93.4423 41.351 93.3751 41.5398 93.2173 41.6145C93.0595 41.6892 92.8706 41.6221 92.7959 41.4643ZM91.8431 40.253C91.708 40.143 91.687 39.9432 91.797 39.8081C91.9069 39.6721 92.1059 39.652 92.241 39.7619C92.377 39.8719 92.3972 40.0708 92.288 40.206C92.1781 40.342 91.9791 40.3629 91.8431 40.253ZM90.4606 39.573C90.2911 39.5328 90.1861 39.3623 90.2264 39.1919C90.2659 39.0224 90.4371 38.9175 90.6067 38.9578H90.6058C90.7762 38.9972 90.8812 39.1676 90.8409 39.338C90.8014 39.5076 90.631 39.6125 90.4606 39.573ZM88.9194 39.5596C88.749 39.5974 88.5803 39.4891 88.5434 39.3187C88.5056 39.1483 88.6139 38.9796 88.7843 38.9418C88.9555 38.9049 89.1243 39.0132 89.1612 39.1836C89.1981 39.354 89.0898 39.5227 88.9186 39.5596H88.9194ZM87.5251 40.2161C87.3883 40.3235 87.1894 40.2992 87.0819 40.1615C86.9745 40.0238 86.9988 39.8257 87.1357 39.7183C87.2733 39.61 87.4723 39.6343 87.5797 39.772C87.688 39.9097 87.6637 40.1078 87.526 40.2161H87.5251ZM86.5514 41.4106C86.4742 41.5675 86.2845 41.6313 86.1283 41.5532C85.9714 41.476 85.9076 41.2863 85.9848 41.1302C86.0629 40.9732 86.2526 40.9094 86.4087 40.9875C86.5657 41.0647 86.6295 41.2544 86.5514 41.4106ZM86.1921 42.9089C86.1905 43.0835 86.0478 43.2237 85.8732 43.2212C85.6986 43.2195 85.5584 43.076 85.5601 42.9022C85.5626 42.7276 85.7061 42.5874 85.8799 42.5891C86.0545 42.5916 86.1947 42.7343 86.1921 42.9089ZM86.1921 42.9501C86.1921 43.1247 86.0511 43.2665 85.8757 43.2665C85.7011 43.2665 85.5592 43.1247 85.5592 42.9501H85.5601C85.5601 42.7755 85.7019 42.6336 85.8757 42.6336C86.0503 42.6336 86.1921 42.7755 86.1921 42.9501Z" fill="#4F4C4C"/>
<path d="M87.8705 42.95C87.8705 43.938 88.673 44.7388 89.661 44.7388C90.6499 44.7388 91.4507 43.938 91.4507 42.95C91.4507 41.9603 90.6499 41.1604 89.661 41.1604C88.673 41.1604 87.8705 41.9603 87.8705 42.95Z" fill="#918F90"/>
<path d="M117.13 42.95C117.13 38.2979 113.345 34.5239 108.675 34.5239C104.004 34.5239 100.217 38.2979 100.217 42.95H117.13Z" fill="#1B171B"/>
<path d="M101.679 42.95C101.679 46.813 104.811 49.9449 108.675 49.9449C112.538 49.9449 115.67 46.813 115.67 42.95C115.67 39.087 112.538 35.9551 108.675 35.9551C104.811 35.9551 101.679 39.087 101.679 42.95Z" fill="#29242C"/>
<path d="M103.776 42.95C103.776 45.6538 105.97 47.8489 108.675 47.8489C111.379 47.8489 113.574 45.6538 113.574 42.95C113.574 40.2445 111.379 38.0519 108.675 38.0519C105.97 38.0519 103.776 40.2445 103.776 42.95Z" fill="#7B7979"/>
<path d="M105.548 44.4526C105.624 44.6095 105.558 44.7984 105.4 44.874C105.243 44.9503 105.054 44.884 104.978 44.7262C104.903 44.5692 104.969 44.3804 105.126 44.3048C105.284 44.2284 105.472 44.2947 105.548 44.4526ZM106.508 45.658C106.645 45.7671 106.667 45.966 106.558 46.102C106.448 46.2389 106.25 46.2607 106.113 46.1516C105.977 46.0424 105.955 45.8435 106.064 45.7075C106.173 45.5707 106.372 45.5488 106.508 45.658ZM107.895 46.3295C108.065 46.369 108.172 46.5385 108.132 46.7081C108.093 46.8785 107.924 46.9851 107.753 46.9456H107.753C107.583 46.907 107.477 46.7375 107.516 46.5671C107.555 46.3967 107.724 46.2909 107.894 46.3295H107.895ZM109.436 46.3337C109.607 46.2951 109.776 46.4025 109.814 46.5729C109.853 46.7434 109.746 46.9121 109.575 46.9507H109.574C109.404 46.9885 109.236 46.881 109.197 46.7115C109.159 46.5411 109.267 46.3715 109.437 46.3337H109.436ZM110.827 45.6697C110.963 45.5614 111.163 45.5841 111.271 45.7209C111.38 45.8578 111.356 46.0567 111.219 46.1658C111.083 46.2741 110.884 46.2506 110.776 46.1138C110.667 45.977 110.69 45.778 110.827 45.6697ZM111.793 44.4693C111.87 44.3124 112.06 44.2469 112.217 44.3233C112.373 44.3997 112.439 44.5894 112.362 44.7464H112.362C112.286 44.9033 112.096 44.9688 111.939 44.8916C111.782 44.8152 111.717 44.6263 111.794 44.4693H111.793ZM112.143 42.9685C112.144 42.7938 112.286 42.6537 112.461 42.6545C112.635 42.6553 112.776 42.798 112.775 42.9718H112.775C112.774 43.1473 112.632 43.2874 112.457 43.2866C112.283 43.2858 112.142 43.1439 112.142 42.9685H112.143ZM111.81 41.4642C111.735 41.3064 111.802 41.1184 111.96 41.0437C112.117 40.9681 112.306 41.0353 112.381 41.1931H112.381C112.456 41.3509 112.389 41.5398 112.231 41.6145C112.073 41.6892 111.885 41.622 111.81 41.4642H111.81ZM110.857 40.2529C110.721 40.1429 110.7 39.944 110.81 39.808C110.92 39.6729 111.119 39.6519 111.254 39.7618H111.255C111.39 39.8718 111.411 40.0708 111.302 40.2059C111.191 40.3419 110.992 40.3629 110.856 40.2529H110.857ZM109.474 39.573C109.305 39.5327 109.199 39.3623 109.239 39.1927C109.279 39.0223 109.45 38.9174 109.619 38.9577C109.789 38.9971 109.894 39.1675 109.855 39.3371C109.814 39.5075 109.644 39.6124 109.474 39.573ZM107.933 39.5595C107.762 39.5965 107.594 39.489 107.557 39.3178C107.52 39.1474 107.628 38.9795 107.798 38.9417H107.798C107.969 38.9048 108.137 39.0131 108.174 39.1835C108.212 39.3539 108.104 39.5226 107.933 39.5595H107.933ZM106.539 40.216C106.402 40.3243 106.203 40.2999 106.095 40.1623C105.987 40.0246 106.011 39.8265 106.149 39.7182H106.149C106.287 39.6108 106.485 39.6351 106.593 39.7728C106.7 39.9104 106.676 40.1085 106.539 40.216H106.539ZM105.565 41.4113C105.488 41.5675 105.298 41.6321 105.142 41.554C104.985 41.4768 104.921 41.2871 104.999 41.131C105.077 40.974 105.266 40.9102 105.423 40.9874C105.579 41.0655 105.643 41.2552 105.565 41.4113ZM105.206 42.9097C105.205 43.0843 105.062 43.2236 104.887 43.222C104.713 43.2203 104.573 43.0767 104.574 42.9021C104.577 42.7284 104.72 42.5882 104.894 42.5899C105.069 42.5924 105.208 42.7351 105.206 42.9097ZM105.206 42.95C105.206 43.1246 105.065 43.2665 104.89 43.2665C104.716 43.2665 104.574 43.1246 104.574 42.95H104.574C104.574 42.7754 104.716 42.6335 104.89 42.6335C105.065 42.6335 105.206 42.7754 105.206 42.95" fill="#4F4C4C"/>
<path d="M106.885 42.95C106.885 43.938 107.687 44.7388 108.676 44.7388C109.663 44.7388 110.464 43.938 110.464 42.95C110.464 41.9603 109.663 41.1604 108.676 41.1604C107.687 41.1604 106.885 41.9603 106.885 42.95Z" fill="#918F90"/>
<path d="M151.784 42.95C151.784 38.4784 148.147 34.8554 143.659 34.8554C139.173 34.8554 135.535 38.4784 135.535 42.95H151.784Z" fill="#D02921"/>
<path d="M136.7 42.95C136.7 46.813 139.831 49.9449 143.696 49.9449C147.558 49.9449 150.69 46.813 150.69 42.95C150.69 39.087 147.558 35.9551 143.696 35.9551C139.831 35.9551 136.7 39.087 136.7 42.95Z" fill="#29242C"/>
<path d="M139.06 42.95C139.06 45.5086 141.135 47.5862 143.696 47.5862C146.255 47.5862 148.331 45.5086 148.331 42.95C148.331 40.3898 146.255 38.3139 143.696 38.3139C141.135 38.3139 139.06 40.3898 139.06 42.95Z" fill="#7B7979"/>
<path d="M158.286 26.3537H145.557C144.578 26.3537 144.199 25.8643 144.199 24.9116V15.1247C144.199 14.0964 144.763 13.4475 145.607 13.4475H149.652C150.1 13.7002 150.504 13.978 150.857 14.2811C153.565 16.6499 156.818 22.3236 158.286 26.3537Z" fill="#96D5D3"/>
<path d="M158.286 26.3537C158.282 26.3437 158.278 26.3345 158.275 26.3245C158.278 26.3345 158.282 26.3437 158.286 26.3537Z" fill="#95B7C6"/>
<path d="M144.199 15.1247C144.199 15.1214 144.199 15.1172 144.199 15.1138C144.199 15.1172 144.199 15.1214 144.199 15.1247ZM144.199 15.1105C144.199 15.108 144.199 15.1055 144.199 15.103C144.199 15.1055 144.199 15.108 144.199 15.1105ZM144.199 15.0988C144.199 15.0963 144.199 15.0947 144.199 15.0921C144.199 15.0947 144.199 15.0963 144.199 15.0988ZM144.199 15.088C144.199 15.0846 144.199 15.0813 144.199 15.0788C144.199 15.0813 144.199 15.0846 144.199 15.088ZM144.199 15.0721C144.199 15.0713 144.2 15.0696 144.2 15.068C144.2 15.0696 144.199 15.0713 144.199 15.0721ZM144.2 15.0613C144.2 15.0604 144.2 15.0596 144.2 15.0588C144.2 15.0596 144.2 15.0604 144.2 15.0613Z" fill="#A33D25"/>
<path d="M145.557 26.3537H158.286C158.282 26.3436 158.278 26.3344 158.275 26.3243C158.223 26.1816 158.164 26.0347 158.109 25.8895H146.127C145.15 25.8895 144.771 25.4001 144.771 24.4474V14.6597C144.771 14.2055 144.886 13.832 145.082 13.5491C144.554 13.7598 144.218 14.2979 144.2 15.0584C144.2 15.0592 144.2 15.0601 144.2 15.0609C144.2 15.0634 144.2 15.066 144.2 15.0676C144.2 15.0693 144.199 15.071 144.199 15.0718C144.199 15.0743 144.199 15.076 144.199 15.0785C144.199 15.0811 144.199 15.0844 144.199 15.0878C144.199 15.0895 144.199 15.0903 144.199 15.092C144.199 15.0945 144.199 15.0962 144.199 15.0987C144.199 15.1004 144.199 15.102 144.199 15.1029C144.199 15.1054 144.199 15.1079 144.199 15.1104C144.199 15.1113 144.199 15.113 144.199 15.1138C144.199 15.1172 144.199 15.1213 144.199 15.1247V24.9116C144.199 25.8643 144.578 26.3537 145.557 26.3537Z" fill="#60ADB6"/>
<path d="M140.568 44.4526C140.644 44.6096 140.578 44.7985 140.42 44.874C140.263 44.9504 140.074 44.8841 139.998 44.7263C139.923 44.5693 139.989 44.3804 140.146 44.3049C140.303 44.2285 140.492 44.2948 140.568 44.4526ZM141.528 45.658C141.664 45.7672 141.687 45.9661 141.578 46.1021C141.468 46.2389 141.269 46.2607 141.133 46.1516C140.997 46.0425 140.975 45.8436 141.084 45.7076C141.193 45.5707 141.392 45.5489 141.528 45.658ZM142.915 46.3296C143.085 46.3682 143.191 46.5378 143.152 46.7082C143.114 46.8786 142.944 46.9843 142.774 46.9457H142.773C142.603 46.9063 142.497 46.7367 142.536 46.5663C142.575 46.3967 142.745 46.2901 142.915 46.3296H142.915ZM144.457 46.3338C144.627 46.296 144.796 46.4035 144.834 46.5739C144.872 46.7443 144.765 46.913 144.594 46.9508H144.595C144.425 46.9894 144.255 46.8819 144.217 46.7115C144.179 46.5411 144.286 46.3724 144.456 46.3338H144.457ZM145.847 45.6698C145.984 45.5615 146.183 45.585 146.291 45.7218C146.4 45.8587 146.376 46.0576 146.24 46.1659C146.103 46.2742 145.904 46.2515 145.796 46.1147C145.687 45.977 145.71 45.7789 145.847 45.6698ZM146.814 44.4694C146.891 44.3124 147.08 44.2478 147.237 44.3242C147.394 44.4006 147.458 44.5903 147.382 44.7473C147.306 44.9042 147.116 44.9689 146.959 44.8925C146.802 44.8161 146.737 44.6264 146.814 44.4694ZM147.163 42.9694C147.165 42.7948 147.307 42.6537 147.481 42.6546C147.656 42.6554 147.797 42.7981 147.796 42.9727H147.796C147.795 43.1473 147.653 43.2883 147.478 43.2875C147.303 43.2867 147.162 43.144 147.163 42.9694H147.163ZM146.831 41.4643C146.756 41.3065 146.823 41.1184 146.981 41.0429C147.139 40.9682 147.327 41.0353 147.402 41.1931H147.402C147.476 41.351 147.409 41.539 147.252 41.6145C147.094 41.6892 146.906 41.6221 146.831 41.4643H146.831ZM145.877 40.253C145.742 40.143 145.721 39.9432 145.831 39.8081C145.941 39.6721 146.14 39.652 146.276 39.7619H146.275C146.411 39.871 146.432 40.07 146.322 40.206C146.212 40.3411 146.013 40.3621 145.878 40.253H145.877ZM144.495 39.573C144.325 39.5328 144.22 39.3624 144.26 39.1928C144.3 39.0224 144.47 38.9175 144.64 38.9578C144.81 38.9972 144.915 39.1676 144.875 39.3372C144.835 39.5076 144.665 39.6125 144.495 39.573ZM142.953 39.5596C142.783 39.5965 142.614 39.4883 142.577 39.3179C142.54 39.1475 142.648 38.9787 142.819 38.9418H142.818C142.989 38.9049 143.158 39.0123 143.195 39.1836C143.232 39.354 143.125 39.5227 142.953 39.5596H142.953ZM141.559 40.2161C141.422 40.3235 141.223 40.2992 141.115 40.1623C141.008 40.0247 141.032 39.8257 141.169 39.7183H141.169C141.307 39.6108 141.506 39.6343 141.613 39.772C141.721 39.9097 141.697 40.1086 141.559 40.2161H141.559ZM140.585 41.4106C140.508 41.5675 140.318 41.6313 140.162 41.5533C140.005 41.476 139.941 41.2863 140.019 41.1302C140.097 40.9732 140.286 40.9094 140.443 40.9875C140.599 41.0647 140.663 41.2544 140.585 41.4106ZM140.226 42.9089C140.225 43.0835 140.081 43.2237 139.907 43.2212C139.732 43.2195 139.592 43.0768 139.594 42.9022C139.596 42.7276 139.739 42.5874 139.914 42.5899C140.089 42.5916 140.228 42.7343 140.226 42.9089ZM140.226 42.9501C140.226 43.1247 140.085 43.2665 139.91 43.2665C139.735 43.2665 139.593 43.1247 139.593 42.9501H139.594C139.594 42.7755 139.736 42.6336 139.91 42.6336C140.085 42.6336 140.226 42.7755 140.226 42.9501" fill="#4F4C4C"/>
<path d="M141.905 42.95C141.905 43.938 142.707 44.7388 143.695 44.7388C144.684 44.7388 145.485 43.938 145.485 42.95C145.485 41.9603 144.684 41.1604 143.695 41.1604C142.707 41.1604 141.905 41.9603 141.905 42.95Z" fill="#918F90"/>
<path d="M140.708 24.9074C140.708 25.7065 139.999 26.3537 139.123 26.3537H131.439C130.563 26.3537 129.853 25.7065 129.853 24.9074V16.5232C129.853 15.7257 130.563 15.0785 131.439 15.0785H139.123C139.999 15.0785 140.708 15.7257 140.708 16.5232V24.9074Z" fill="#96D5D3"/>
<path d="M131.438 26.3537H139.122C139.125 26.3537 139.129 26.3537 139.132 26.3537C139.129 26.3537 139.125 26.3537 139.122 26.3537H131.438C130.563 26.3537 129.853 25.7065 129.853 24.9074V16.5232V24.9074C129.853 25.7065 130.563 26.3537 131.438 26.3537ZM139.134 26.3537C139.137 26.3537 139.14 26.3537 139.143 26.3537C139.14 26.3537 139.137 26.3537 139.134 26.3537ZM139.144 26.3537C139.147 26.3537 139.149 26.3537 139.152 26.3537C139.149 26.3537 139.147 26.3537 139.144 26.3537ZM139.154 26.3537C139.157 26.3537 139.16 26.3537 139.163 26.3529C139.16 26.3537 139.157 26.3537 139.154 26.3537ZM139.164 26.3529C139.171 26.3529 139.177 26.3529 139.183 26.3529C139.177 26.3529 139.171 26.3529 139.164 26.3529ZM139.184 26.3529C139.333 26.3478 139.476 26.3235 139.612 26.2832C139.476 26.3235 139.333 26.3478 139.184 26.3529ZM139.613 26.2832C139.616 26.2824 139.618 26.2815 139.621 26.2807C139.618 26.2815 139.616 26.2824 139.613 26.2832ZM139.625 26.2798C139.626 26.279 139.627 26.279 139.627 26.279C139.627 26.279 139.626 26.279 139.625 26.2798ZM129.853 16.5232C129.853 16.5207 129.853 16.5173 129.853 16.5148C129.853 16.5173 129.853 16.5207 129.853 16.5232ZM129.853 16.5123C129.853 16.5106 129.853 16.5081 129.853 16.5064C129.853 16.5081 129.853 16.5106 129.853 16.5123ZM129.853 16.5039C129.853 16.5005 129.853 16.498 129.853 16.4955C129.853 16.498 129.853 16.5005 129.853 16.5039ZM129.853 16.4955C129.853 16.4921 129.853 16.4896 129.853 16.4863C129.853 16.4896 129.853 16.4921 129.853 16.4955ZM129.853 16.4846C129.853 16.4821 129.853 16.4804 129.853 16.4779C129.853 16.4804 129.853 16.4821 129.853 16.4846ZM129.853 16.4762C129.854 16.4703 129.854 16.4644 129.854 16.4586C129.854 16.4644 129.854 16.4703 129.853 16.4762ZM129.854 16.4577C129.854 16.4552 129.855 16.4527 129.855 16.4493C129.855 16.4527 129.854 16.4552 129.854 16.4577ZM129.855 16.4485C129.864 16.2856 129.903 16.1303 129.966 15.986C129.903 16.1303 129.864 16.2856 129.855 16.4485ZM129.966 15.9851C129.968 15.9826 129.969 15.9809 129.969 15.9784C129.969 15.9809 129.968 15.9826 129.966 15.9851ZM129.97 15.9767C129.971 15.975 129.972 15.9725 129.973 15.97C129.972 15.9725 129.971 15.975 129.97 15.9767ZM129.975 15.9658C129.975 15.965 129.976 15.9641 129.976 15.9641C129.976 15.965 129.975 15.965 129.975 15.9658Z" fill="#A33D25"/>
<path d="M131.439 26.3537H139.123C139.126 26.3537 139.129 26.3537 139.132 26.3537C139.133 26.3537 139.134 26.3537 139.134 26.3537C139.137 26.3537 139.14 26.3537 139.143 26.3537C139.144 26.3537 139.144 26.3537 139.144 26.3537C139.148 26.3537 139.15 26.3537 139.153 26.3537C139.153 26.3537 139.154 26.3537 139.154 26.3537C139.158 26.3537 139.161 26.3537 139.164 26.3529C139.164 26.3529 139.165 26.3529 139.165 26.3529C139.171 26.3529 139.178 26.3529 139.184 26.3529C139.184 26.3529 139.185 26.3529 139.185 26.3529C139.333 26.3478 139.477 26.3235 139.613 26.2832C139.613 26.2832 139.613 26.2832 139.614 26.2832C139.616 26.2824 139.619 26.2815 139.621 26.2807C139.623 26.2807 139.624 26.2798 139.626 26.2798C139.627 26.279 139.628 26.279 139.628 26.279C139.964 26.1757 140.249 25.9726 140.441 25.7082C140.256 25.7787 140.053 25.8181 139.841 25.8181H132.155C131.281 25.8181 130.571 25.1701 130.571 24.371V15.9868C130.571 15.6922 130.668 15.416 130.837 15.1868C130.45 15.332 130.139 15.6124 129.977 15.9641C129.976 15.9641 129.976 15.965 129.976 15.9658C129.975 15.9675 129.974 15.9692 129.974 15.97C129.973 15.9725 129.972 15.975 129.971 15.9767C129.97 15.9776 129.97 15.9776 129.97 15.9784C129.969 15.9809 129.968 15.9826 129.967 15.9851C129.967 15.9851 129.967 15.986 129.967 15.986C129.903 16.1303 129.865 16.2856 129.855 16.4485V16.4493C129.855 16.4527 129.855 16.4552 129.855 16.4577V16.4586C129.855 16.4644 129.854 16.4703 129.854 16.4762C129.854 16.4762 129.854 16.477 129.854 16.4779C129.854 16.4804 129.854 16.4821 129.854 16.4846C129.854 16.4854 129.854 16.4863 129.854 16.4863C129.854 16.4896 129.854 16.4921 129.854 16.4955C129.854 16.498 129.854 16.5005 129.853 16.5039C129.853 16.5047 129.853 16.5056 129.853 16.5064C129.853 16.5081 129.853 16.5106 129.853 16.5123C129.853 16.5131 129.853 16.514 129.853 16.5148C129.853 16.5173 129.853 16.5207 129.853 16.5232V24.9074C129.853 25.7065 130.563 26.3537 131.439 26.3537Z" fill="#60ADB6"/>
<path d="M133.753 28.4405C133.753 28.8006 133.523 29.0936 133.239 29.0936H130.789C130.506 29.0936 130.274 28.8006 130.274 28.4405C130.274 28.0804 130.506 27.7866 130.789 27.7866H133.239C133.523 27.7866 133.753 28.0804 133.753 28.4405Z" fill="#29242C"/>
<path d="M161 40.1681C161 41.7068 160.996 42.9525 159.849 42.9525H156.178C155.031 42.9525 155.028 41.7068 155.028 40.1681C155.028 38.6295 155.031 37.3829 156.178 37.3829H159.849C160.996 37.3829 161 38.6295 161 40.1681Z" fill="#918F90"/>
<path d="M156.178 42.9525H159.849C160.989 42.9525 161 41.7211 161 40.195C161 40.1866 161 40.1774 161 40.1681C161 38.7143 160.984 37.5332 160.014 37.4073C160.109 37.8891 160.115 38.4943 160.115 39.1642C160.115 40.7029 160.111 41.9502 158.964 41.9502H155.294L155.131 41.9259C155.253 42.5429 155.527 42.9466 156.162 42.9525C156.163 42.9525 156.163 42.9525 156.163 42.9525C156.165 42.9525 156.167 42.9525 156.169 42.9525C156.17 42.9525 156.17 42.9525 156.171 42.9525C156.173 42.9525 156.176 42.9525 156.178 42.9525Z" fill="#7B7979"/>
<path d="M159.559 36.8549C159.559 36.8549 156.567 36.8549 156.096 36.8549C155.624 36.8549 155.239 34.884 156.096 34.6783C156.952 34.4743 159.328 33.906 159.328 33.906L159.559 36.8549Z" fill="#F68712"/>
<path d="M5.14795 38.4952C5.14795 39.4891 5.14459 40.2958 4.15574 40.2958H0.990274C0.00143099 40.2958 -0.000231266 39.4891 -0.000231266 38.4952C-0.000231266 37.4997 0.00143099 36.6938 0.990274 36.6938H4.15574C5.14459 36.6938 5.14795 37.4997 5.14795 38.4952Z" fill="#918F90"/>
<path d="M0.752911 36.2715C0.752911 36.2715 3.51294 36.2715 3.9847 36.2715C4.45478 36.2715 4.84091 34.6901 3.9847 34.5255C3.12597 34.361 0.752911 33.906 0.752911 33.906V36.2715Z" fill="#FDDD10"/>
<path d="M3.05293 34.3476C3.42227 34.4173 3.75721 34.4827 3.9847 34.5255C4.84091 34.6901 4.45478 36.2715 3.9847 36.2715H3.51713L3.05293 34.3476Z" fill="#F6871B"/>
<path d="M59.3989 44.0346H75.2456V37.383H59.3989V44.0346Z" fill="#BDBCBC"/>
<path d="M58.4176 42.7796C58.4176 43.4679 58.8566 44.0245 59.3989 44.0245C59.942 44.0245 60.3818 43.4679 60.3818 42.7796V38.6278C60.3818 37.9403 59.942 37.3829 59.3989 37.3829C58.8566 37.3829 58.4176 37.9403 58.4176 38.6278V42.7796Z" fill="#BDBCBC"/>
<path d="M74.2633 42.7796C74.2633 43.4679 74.7031 44.0245 75.2454 44.0245C75.7877 44.0245 76.2275 43.4679 76.2275 42.7796V38.6278C76.2275 37.9403 75.7877 37.3829 75.2454 37.3829C74.7031 37.3829 74.2633 37.9403 74.2633 38.6278V42.7796Z" fill="#BDBCBC"/>
<path d="M0.980267 34.8521C0.980267 35.1299 1.20607 35.3557 1.48392 35.3557C1.76261 35.3557 1.98926 35.1299 1.98926 34.8521C1.98926 34.5725 1.76261 34.3476 1.48392 34.3476C1.20607 34.3476 0.980267 34.5725 0.980267 34.8521Z" fill="#F6871B"/>
</svg>
