<svg width="166" height="35" viewBox="0 0 166 35" fill="none" xmlns="http://www.w3.org/2000/svg">
<path d="M74.7777 24.6585H72.3701V21.0131H74.7777V24.6585Z" fill="#707070"/>
<path d="M4.97529 16.188H2.81348V10.9817H4.97529V16.188Z" fill="#E5310E"/>
<path d="M76.8666 22.8304H60.1982V24.136H76.8666V22.8304Z" fill="#181D1E"/>
<path d="M93.412 21.4167H71.4692V22.7227H93.412V21.4167Z" fill="#181D1E"/>
<path d="M38.6346 18.5153H17.04V25.6244H38.6346V18.5153Z" fill="#605E5E"/>
<path d="M18.9999 26.2934C18.9999 30.3226 22.2641 33.589 26.2926 33.589C30.3211 33.589 33.5889 30.3226 33.5889 26.2934C33.5889 22.2642 30.3211 19 26.2926 19C22.2641 19 18.9999 22.2642 18.9999 26.2934Z" fill="#29242C"/>
<path d="M22.0276 26.2934C22.0276 28.649 23.9373 30.5594 26.2921 30.5594C28.6491 30.5594 30.5581 28.649 30.5581 26.2934C30.5581 23.9379 28.6491 22.0289 26.2921 22.0289C23.9373 22.0289 22.0276 23.9379 22.0276 26.2934Z" fill="#656263"/>
<path d="M22.9068 26.2933C22.9068 28.1647 24.4233 29.6812 26.2925 29.6812C28.1646 29.6812 29.6812 28.1647 29.6812 26.2933C29.6812 24.4227 28.1646 22.9069 26.2925 22.9069C24.4233 22.9069 22.9068 24.4227 22.9068 26.2933Z" fill="#888687"/>
<path d="M61.6612 25.6266H35.0252L33.6811 22.0709C33.1479 20.6579 31.7938 19.7203 30.2808 19.7203H21.783C20.2716 19.7203 18.9171 20.6579 18.3839 22.0709L17.0411 25.6266H10.585C7.03818 25.6266 4.16101 22.7507 4.16101 19.2029L4.16064 8H66.5508L66.5 19.5C66.5 23.5 64.8025 25.6266 61.6612 25.6266Z" fill="black"/>
<path d="M57.6707 27.0536H44.332V25.6245H57.6707V27.0536Z" fill="#181D1E"/>
<path d="M12.0116 19.9211H0C0 18.2625 1.34404 16.9194 3.00228 16.9194H9.00935C10.6676 16.9194 12.0116 18.2625 12.0116 19.9211Z" fill="#CECECE"/>
<path d="M12.0116 19.9211C12.0116 21.5794 10.6676 22.9234 9.00935 22.9234H3.00228C1.34404 22.9234 0 21.5794 0 19.9211H12.0116Z" fill="#B7B7B7"/>
<path d="M144.578 8.64145C142.383 7.75342 137.02 3.78748 133.034 1.51513C130.691 0.178455 129.004 -9.53674e-06 129.004 -9.53674e-06C129.004 -9.53674e-06 103.672 0.358337 102.852 0.358337C98.5514 0.358337 81.7719 7.86932 81.7719 7.86932L79.9617 8.09043C79.9617 8.09043 79.5642 9.4008 79.2684 10.6209C79.0957 11.339 78 12.0251 78 12.3948C78 13.3916 78 21.165 78 22.0103C78 22.9752 81.2486 26.8025 82.3257 26.8025C83.4022 26.8025 156.178 26.8025 158.57 26.8025C160.961 26.8025 163.831 23.1358 165.266 21.3818C166.141 20.3125 165.786 16.8784 164.86 14.1787C164.268 12.451 146.722 9.50958 144.578 8.64145Z" fill="#0D97D5"/>
<path d="M137.462 8.1331C135.76 5.99158 133.593 3.75762 131.984 1.90405C131.66 1.37862 132.128 0.997531 133.034 1.51514C136.666 3.58627 141.435 7.05523 143.913 8.32863C143.913 8.32863 144.431 9.35175 143.506 9.35175C142.858 9.35175 141.198 9.35175 139.85 9.35175C138.729 9.35175 138.093 8.9216 137.462 8.1331Z" fill="#96D5D3"/>
<path d="M82.3259 26.8025H158.57C160.961 26.8025 163.831 23.1358 165.267 21.3818C165.268 21.3804 165.27 21.3783 165.271 21.3761C165.27 21.3783 165.268 21.3804 165.267 21.3818C163.831 23.1358 160.961 26.8025 158.57 26.8025C156.179 26.8025 83.4024 26.8025 82.3259 26.8025C81.2488 26.8025 78.0002 22.9752 78.0002 22.0103C78.0002 21.7416 78.0002 20.7704 78.0002 19.5396V22.0103C78.0002 22.9752 81.2488 26.8025 82.3259 26.8025ZM165.272 21.3747C165.274 21.3733 165.275 21.3719 165.276 21.3704C165.275 21.3719 165.274 21.3733 165.272 21.3747ZM165.277 21.369C165.278 21.3676 165.28 21.3655 165.281 21.364C165.28 21.3655 165.278 21.3676 165.277 21.369ZM165.283 21.3612C165.284 21.3605 165.284 21.3598 165.285 21.3591C165.284 21.3598 165.284 21.3605 165.283 21.3612Z" fill="#C8B4BF"/>
<path d="M82.3262 26.8025C83.4027 26.8025 156.179 26.8025 158.57 26.8025C160.961 26.8025 163.832 23.1358 165.267 21.3818C165.268 21.3804 165.27 21.3783 165.271 21.3761C165.272 21.3761 165.272 21.3754 165.273 21.3747C165.274 21.3733 165.275 21.3719 165.277 21.3704C165.277 21.3697 165.277 21.3697 165.277 21.369C165.279 21.3676 165.28 21.3655 165.282 21.364C165.282 21.3633 165.283 21.3619 165.284 21.3612C165.284 21.3605 165.285 21.3598 165.285 21.3591C165.577 20.9844 165.724 20.3338 165.758 19.5396H78.0005C78.0005 20.7704 78.0005 21.7416 78.0005 22.0103C78.0005 22.9752 81.249 26.8025 82.3262 26.8025Z" fill="#1080B3"/>
<path d="M100.453 26.8025C100.453 22.0025 96.5464 18.1126 91.7273 18.1126C86.9103 18.1126 83.0041 22.0025 83.0041 26.8025H100.453Z" fill="#28030E"/>
<path d="M84.435 26.8025C84.435 30.8317 87.6992 34.098 91.7277 34.098C95.7562 34.098 99.0239 30.8317 99.0239 26.8025C99.0239 22.7733 95.7562 19.5091 91.7277 19.5091C87.6992 19.5091 84.435 22.7733 84.435 26.8025Z" fill="#29242C"/>
<path d="M87.4626 26.8025C87.4626 29.158 89.3724 31.0685 91.7272 31.0685C94.0841 31.0685 95.9932 29.158 95.9932 26.8025C95.9932 24.4469 94.0841 22.5379 91.7272 22.5379C89.3724 22.5379 87.4626 24.4469 87.4626 26.8025Z" fill="#656263"/>
<path d="M154.67 26.8025C154.67 21.8923 150.674 17.91 145.743 17.91C140.813 17.91 136.817 21.8923 136.817 26.8025H154.67Z" fill="#28030E"/>
<path d="M138.486 26.8025C138.486 30.8317 141.752 34.098 145.781 34.098C149.81 34.098 153.075 30.8317 153.075 26.8025C153.075 22.7733 149.81 19.5091 145.781 19.5091C141.752 19.5091 138.486 22.7733 138.486 26.8025Z" fill="#29242C"/>
<path d="M141.515 26.8025C141.515 29.158 143.425 31.0685 145.781 31.0685C148.137 31.0685 150.047 29.158 150.047 26.8025C150.047 24.4469 148.137 22.5379 145.781 22.5379C143.425 22.5379 141.515 24.4469 141.515 26.8025Z" fill="#656263"/>
<path d="M142.394 26.8025C142.394 28.6738 143.911 30.1904 145.782 30.1904C147.652 30.1904 149.169 28.6738 149.169 26.8025C149.169 24.9318 147.652 23.416 145.782 23.416C143.911 23.416 142.394 24.9318 142.394 26.8025Z" fill="#888687"/>
<path d="M88.3418 26.8025C88.3418 28.6738 89.8584 30.1904 91.7276 30.1904C93.5997 30.1904 95.1162 28.6738 95.1162 26.8025C95.1162 24.9318 93.5997 23.416 91.7276 23.416C89.8584 23.416 88.3418 24.9318 88.3418 26.8025Z" fill="#888687"/>
<path d="M160.876 19.3597C162.152 19.8788 165.307 19.9534 165.746 19.7906C166.183 19.6285 166.037 16.264 165.451 16.36C164.864 16.4553 161.973 16.8933 160.244 17.4358C158.865 17.8673 159.601 18.8414 160.876 19.3597Z" fill="#F14624"/>
<path d="M160.244 17.4358C160.697 17.2936 161.23 17.1599 161.78 17.0355C161.883 18.0458 162.343 19.0049 163.062 19.7849C162.229 19.7074 161.396 19.5702 160.876 19.3597C159.601 18.8414 158.865 17.8674 160.244 17.4358Z" fill="#F57C1D"/>
<path d="M109.97 13.4947C109.97 13.9391 110.33 14.2989 110.774 14.2989H114.722C115.166 14.2989 115.526 13.9391 115.526 13.4947C115.526 13.0503 115.166 12.6906 114.722 12.6906H110.774C110.33 12.6906 109.97 13.0503 109.97 13.4947Z" fill="#29242C"/>
<path d="M110.664 13.2928C110.664 13.627 110.934 13.8972 111.268 13.8972H114.229C114.562 13.8972 114.833 13.627 114.833 13.2928C114.833 12.9608 114.562 12.6906 114.229 12.6906H111.268C110.934 12.6906 110.664 12.9608 110.664 13.2928Z" fill="#171316"/>
<path d="M78.0002 16.4205C78.81 16.5314 81.2473 16.8706 82.7539 17.2822C84.0593 17.637 83.3639 18.4383 82.1567 18.8642C81.1677 19.2147 78.9871 19.3178 78.0002 19.2716V16.4205Z" fill="#F14624"/>
<path d="M82.7539 17.2822C82.3259 17.1649 81.8218 17.0533 81.3006 16.9516C81.2032 17.7835 80.7667 18.5727 80.0863 19.2147C80.8762 19.1507 81.664 19.0377 82.1567 18.8642C83.3639 18.4383 84.0593 17.637 82.7539 17.2822Z" fill="#F57C1D"/>
<path d="M116.821 1.67158V10.8904H133.012L133.263 10.3166L134.398 7.70796C134.398 7.70796 131.386 2.96986 131.065 2.36196C130.748 1.74765 130.122 1.67158 129.689 1.67158H118.377C117.429 1.67158 116.821 1.67158 116.821 1.67158Z" fill="#96D5D3"/>
<path d="M98.6349 10.8904H114.3C114.639 10.8904 114.833 10.8904 114.833 10.8904V1.67158C114.833 1.67158 108.966 1.67158 105.152 1.67158H101.964C101.642 1.67158 101.221 1.71212 100.893 1.98728C100.776 2.07544 100.671 2.20411 100.584 2.36196C100.525 2.47785 100.384 2.71959 100.191 3.02817C99.3843 4.35631 97.6822 7.02967 97.2492 7.70796C96.7174 8.54978 97.5187 10.8904 98.6349 10.8904Z" fill="#96D5D3"/>
<path d="M90.2279 10.8868C88.4248 10.8868 86.7163 10.8868 85.5972 10.8868C84.4781 10.8868 85.2637 8.12242 86.6203 7.59771C87.9783 7.07157 98.8281 1.973 98.8281 1.973C98.8281 1.973 96.0019 6.28094 95.116 7.79181C94.2913 9.19816 92.0317 10.8868 90.2279 10.8868Z" fill="#96D5D3"/>
<path d="M134.542 9.56648C134.367 10.7922 134.225 11.7848 134.944 11.8886C135.34 11.9448 136.642 11.1165 136.817 9.8907C136.991 8.66494 135.973 7.50672 135.576 7.45055C134.858 7.34746 134.716 8.34072 134.542 9.56648Z" fill="#470B2E"/>
<path d="M130.853 10.8904H133.011L133.263 10.3166L124.682 1.67158H121.705L130.853 10.8904Z" fill="#C4E8E7"/>
<path d="M127.519 10.8904H129.256L120.113 1.67158H118.377L127.519 10.8904Z" fill="#C4E8E7"/>
<path d="M111.323 10.8904H114.3L105.152 1.67158H102.175L111.323 10.8904Z" fill="#C4E8E7"/>
<path d="M107.989 10.8904H109.726L100.893 1.98728C100.776 2.07544 100.671 2.20411 100.584 2.36196C100.525 2.47785 100.384 2.7196 100.191 3.02817L107.989 10.8904Z" fill="#C4E8E7"/>
</svg>
