<svg width="90" height="50" viewBox="0 0 90 50" fill="none" xmlns="http://www.w3.org/2000/svg">
<path d="M67.444 6.64571H61.252C61.252 6.64571 62.207 3.21095 62.8371 3.21095C63.4688 3.21095 65.3561 3.21095 66.009 3.21095C66.6636 3.21095 67.444 6.64571 67.444 6.64571Z" fill="#C13331"/>
<path d="M66.7435 6.64571H63.9854C63.9854 6.64571 64.4109 3.85077 64.6926 3.85077C64.9734 3.85077 65.8144 3.85077 66.1047 3.85077C66.3965 3.85077 66.7435 6.64571 66.7435 6.64571Z" fill="#D83633"/>
<path d="M86.5504 41.4802H58.3572C57.211 41.4802 56.5918 40.7556 56.5918 38.862C56.5918 38.862 56.5918 13.4797 56.5918 10.0733C56.5918 6.66536 57.1003 5.94869 59.2561 5.94869C61.5747 5.94869 67.3639 6.10453 71.2564 6.29349C73.0776 6.38294 73.9579 8.7832 73.9579 8.7832L80.4528 19.3233C80.4528 19.3233 85.3649 22.1923 86.9744 22.9749C87.4779 23.1741 87.7839 23.6255 87.9342 24.21C88.6477 27.039 89.0127 37.4297 89.0127 37.4297C89.0127 37.4297 89.1071 41.4802 86.5504 41.4802Z" fill="#DEDDDE"/>
<path d="M88.5006 28.5226C88.403 27.3939 88.2937 26.338 88.171 25.4893H56.5918V28.5226H88.5006Z" fill="#EE2629"/>
<path d="M56.0222 0C48.4667 0 11.5984 0 4.04193 0C1.49133 0 0.84082 0.463989 0.84082 3.27395C0.84082 7.0163 0.84082 36.1065 0.84082 37.6381C0.84082 40.6471 1.36074 41.4802 3.40644 41.4802C5.45088 41.4802 20.9004 41.4802 20.9004 41.4802H56.269C57.45 41.4802 58.0867 40.684 58.0867 38.6033C58.0867 38.6033 58.0867 6.3414 58.0867 2.5967C58.0867 0.789761 57.5253 0 56.0222 0Z" fill="#DEDDDE"/>
<path d="M58.0867 28.3631V25.1685H0.84082V28.3631H58.0867Z" fill="#EE2629"/>
<path d="M25.699 41.4762C25.699 36.2896 21.4782 32.0849 16.2716 32.0849C11.0648 32.0849 6.84375 36.2896 6.84375 41.4762H25.699Z" fill="#868484"/>
<path d="M8.47363 41.4762C8.47363 45.7842 11.9652 49.274 16.272 49.274C20.5788 49.274 24.0706 45.7842 24.0706 41.4762C24.0706 37.1685 20.5788 33.6773 16.272 33.6773C11.9652 33.6773 8.47363 37.1685 8.47363 41.4762Z" fill="#29242C"/>
<path d="M10.811 41.4763C10.811 44.4918 13.2565 46.9367 16.2717 46.9367C19.2873 46.9367 21.7334 44.4918 21.7334 41.4763C21.7334 38.461 19.2873 36.0153 16.2717 36.0153C13.2565 36.0153 10.811 38.461 10.811 41.4763Z" fill="#7B7979"/>
<path d="M12.1507 43.4571C12.2349 43.6319 12.4454 43.7057 12.6209 43.6218C12.796 43.5367 12.8694 43.3268 12.7853 43.1514H12.7859C12.7014 42.9758 12.4903 42.9018 12.3148 42.986C12.1396 43.0711 12.0658 43.2819 12.1504 43.4571H12.1507ZM13.4162 45.0455C13.5676 45.1666 13.7896 45.1423 13.9112 44.9905C14.0326 44.8387 14.008 44.6168 13.8562 44.4949C13.7041 44.3738 13.4825 44.398 13.3608 44.5498C13.2394 44.7017 13.264 44.9235 13.4162 45.0455ZM15.2443 45.9306C15.4336 45.9738 15.6228 45.8558 15.6668 45.6662C15.7102 45.4766 15.5919 45.287 15.4026 45.2437H15.4019C15.2124 45.1998 15.0233 45.3184 14.9794 45.508C14.9361 45.6976 15.0547 45.8872 15.2446 45.9306H15.2443ZM17.2746 45.9361C17.4642 45.8937 17.5837 45.7047 17.541 45.515C17.4986 45.3248 17.31 45.2053 17.1201 45.2487H17.1206C16.9304 45.2911 16.8109 45.4791 16.8533 45.6687C16.896 45.859 17.0841 45.9785 17.2743 45.9361H17.2746ZM19.1076 45.0606C19.2601 44.9401 19.2859 44.7183 19.1655 44.5655C19.0443 44.4131 18.8231 44.387 18.6706 44.5084H18.6701C18.5173 44.6295 18.4915 44.8504 18.6126 45.0031C18.7333 45.1555 18.9553 45.1816 19.1079 45.0606H19.1076ZM20.3814 43.4792C20.4669 43.3047 20.394 43.0938 20.2195 43.0081C20.0446 42.923 19.8338 42.9955 19.7484 43.1701H19.7481C19.6623 43.3446 19.7349 43.5563 19.91 43.6415C20.0852 43.7272 20.2963 43.6547 20.3817 43.4792H20.3814ZM20.8427 41.5014C20.8436 41.3063 20.6865 41.1484 20.492 41.1468C20.2972 41.1459 20.1384 41.3032 20.1374 41.4977H20.138C20.1368 41.692 20.2935 41.8508 20.4883 41.8517C20.6826 41.8533 20.8411 41.696 20.8424 41.5014H20.8427ZM20.4032 39.5184C20.3196 39.3429 20.1095 39.2673 19.9333 39.3506C19.7576 39.4343 19.6826 39.645 19.7665 39.8205C19.8498 39.9966 20.06 40.0712 20.2357 39.988C20.4118 39.9047 20.4865 39.6945 20.4032 39.5184ZM19.1476 37.923C18.9961 37.8 18.7742 37.8237 18.6519 37.9749C18.5297 38.1258 18.5529 38.3476 18.7041 38.4696H18.7038C18.8547 38.5922 19.077 38.5695 19.1995 38.4186C19.3222 38.2674 19.2991 38.0449 19.1479 37.923H19.1476ZM17.325 37.0259C17.1351 36.9814 16.9455 37.0984 16.9009 37.288C16.8557 37.4776 16.9731 37.6673 17.1628 37.7121H17.163C17.3527 37.7561 17.542 37.639 17.5865 37.4494C17.6311 37.2604 17.514 37.0708 17.3244 37.0259H17.325ZM15.2946 37.0087C15.1042 37.0496 14.9837 37.2377 15.0252 37.4282C15.0667 37.6184 15.2541 37.7389 15.4447 37.6971C15.6349 37.6562 15.7553 37.4681 15.7139 37.2779C15.6723 37.0883 15.4849 36.9669 15.2946 37.0087ZM13.4564 37.8735C13.3031 37.9936 13.2757 38.2154 13.3962 38.3688C13.5163 38.5215 13.7379 38.5492 13.8913 38.4287H13.891C14.0437 38.3092 14.071 38.0873 13.9511 37.934C13.8313 37.7813 13.6097 37.7536 13.4567 37.8735H13.4564ZM12.1738 39.4475C12.0871 39.622 12.1584 39.8337 12.3329 39.9195C12.5072 40.0061 12.7186 39.9351 12.8053 39.7606C12.8916 39.586 12.8203 39.3753 12.6458 39.2886C12.4715 39.2019 12.2601 39.2729 12.1738 39.4475ZM11.7005 41.4228C11.6984 41.6173 11.8538 41.7768 12.0487 41.7792C12.2429 41.7808 12.4027 41.6249 12.4051 41.4307H12.4055C12.4073 41.2356 12.2515 41.0758 12.0566 41.0743C11.8619 41.0721 11.702 41.2276 11.7002 41.4228H11.7005ZM11.7002 41.4763C11.7002 41.6707 11.8582 41.8287 12.0526 41.8287C12.2472 41.8287 12.4055 41.6707 12.4055 41.4763H12.4051C12.4051 41.282 12.2472 41.1237 12.0526 41.1237C11.8582 41.1237 11.7005 41.282 11.7005 41.4763" fill="#4F4C4C"/>
<path d="M14.2754 41.4763C14.2754 42.577 15.1691 43.4722 16.2713 43.4722C17.3739 43.4722 18.266 42.577 18.266 41.4763C18.266 40.3733 17.3739 39.4812 16.2713 39.4812C15.1691 39.4812 14.2754 40.3733 14.2754 41.4763Z" fill="#918F90"/>
<path d="M70.1394 41.4762C70.1394 36.4927 66.084 32.4529 61.0831 32.4529C56.0808 32.4529 52.0254 36.4927 52.0254 41.4762H70.1394Z" fill="#868484"/>
<path d="M53.3242 41.4762C53.3242 45.7842 56.8161 49.274 61.1231 49.274C65.4294 49.274 68.9207 45.7842 68.9207 41.4762C68.9207 37.1685 65.4294 33.6773 61.1231 33.6773C56.8161 33.6773 53.3242 37.1685 53.3242 41.4762Z" fill="#29242C"/>
<path d="M55.9556 41.4763C55.9556 44.3298 58.2689 46.6434 61.123 46.6434C63.9763 46.6434 66.2892 44.3298 66.2892 41.4763C66.2892 38.6229 63.9763 36.3093 61.123 36.3093C58.2689 36.3093 55.9556 38.6229 55.9556 41.4763Z" fill="#7B7979"/>
<path d="M57.0017 43.4571C57.086 43.6326 57.2965 43.7057 57.4719 43.6218C57.6471 43.5367 57.7202 43.3268 57.6363 43.1514H57.6367C57.5522 42.9758 57.3413 42.9018 57.1656 42.9869C56.9907 43.0711 56.9166 43.2819 57.0015 43.4571H57.0017ZM58.267 45.0455C58.4187 45.1675 58.6403 45.1423 58.7619 44.9905C58.8833 44.8387 58.8591 44.6168 58.7073 44.4957C58.5552 44.3738 58.3333 44.398 58.2116 44.5508C58.0902 44.7025 58.1148 44.9245 58.267 45.0455ZM60.0958 45.9306C60.2846 45.9738 60.4742 45.8558 60.5174 45.6654C60.5607 45.4757 60.4419 45.287 60.2531 45.2437C60.0635 45.1998 59.8739 45.3184 59.8306 45.508C59.7866 45.6976 59.9054 45.8866 60.095 45.9306H60.0958ZM62.1262 45.9361C62.3158 45.8937 62.4354 45.7047 62.3921 45.515C62.3496 45.3248 62.1616 45.2053 61.9712 45.2477H61.972C61.7816 45.2901 61.6621 45.4791 61.7045 45.6687C61.747 45.859 61.935 45.9785 62.1254 45.9361H62.1262ZM63.9592 45.0606C64.1118 44.9395 64.1378 44.7176 64.0166 44.5655C63.8955 44.4131 63.6736 44.387 63.5218 44.5084C63.3692 44.6285 63.3432 44.8504 63.4636 45.0031C63.5847 45.1555 63.8058 45.1816 63.9592 45.0606ZM65.2328 43.4792C65.3186 43.3047 65.2454 43.0938 65.0708 43.0081C64.8961 42.9223 64.6853 42.9946 64.6003 43.1701H64.5995C64.5138 43.3446 64.587 43.5563 64.7616 43.6415C64.9362 43.7272 65.1479 43.6537 65.2336 43.4792H65.2328ZM65.6946 41.5008C65.6954 41.3063 65.5381 41.1474 65.343 41.1468C65.1487 41.1453 64.9897 41.3026 64.989 41.4977H64.9897C64.9882 41.692 65.1455 41.8499 65.3398 41.8517C65.5341 41.8524 65.693 41.696 65.6938 41.5008H65.6946ZM65.2549 39.5175C65.1707 39.3421 64.9606 39.2673 64.7852 39.3506C64.609 39.4343 64.5342 39.6441 64.6176 39.8205H64.6184C64.7018 39.9956 64.9119 40.0706 65.0873 39.9871C65.2627 39.9038 65.3375 39.6936 65.2541 39.5175H65.2549ZM63.9985 37.922C63.8475 37.7994 63.6248 37.823 63.5029 37.9739C63.3802 38.1258 63.4038 38.3476 63.5556 38.4696H63.5548C63.7059 38.5922 63.9277 38.5695 64.0504 38.4177C64.1732 38.2668 64.1496 38.0449 63.9985 37.922ZM62.1758 37.0259C61.9854 36.9814 61.7966 37.0984 61.7517 37.288C61.7069 37.4776 61.8241 37.6673 62.0145 37.7121H62.0137C62.2033 37.757 62.3929 37.6396 62.4377 37.45C62.4826 37.2604 62.3654 37.0708 62.1758 37.0259ZM60.1453 37.0087C59.9542 37.0505 59.8346 37.2385 59.8755 37.4282C59.9172 37.6184 60.1052 37.7389 60.2956 37.6971H60.2948C60.4852 37.6562 60.6055 37.4681 60.5646 37.2779C60.5229 37.0883 60.3357 36.9669 60.1453 37.0087ZM58.3068 37.8741C58.1535 37.9936 58.1265 38.2154 58.2463 38.3682C58.3662 38.5215 58.5878 38.5492 58.7411 38.4287H58.7414C58.8941 38.3092 58.9212 38.0873 58.8013 37.934C58.6811 37.7803 58.4596 37.7536 58.3065 37.8741H58.3068ZM57.0245 39.4483C56.9378 39.6229 57.0088 39.8337 57.1834 39.9204C57.3579 40.0067 57.5693 39.9351 57.656 39.7615C57.7421 39.5866 57.6707 39.3753 57.4966 39.2886C57.322 39.2028 57.1102 39.2735 57.0245 39.4483ZM56.5516 41.4237C56.5491 41.6179 56.7052 41.7777 56.8995 41.7802C57.0942 41.7817 57.2538 41.6259 57.2559 41.4317H57.2565C57.2583 41.2366 57.1023 41.0767 56.9074 41.0752C56.7129 41.0728 56.5531 41.2285 56.5513 41.4237H56.5516ZM56.5513 41.4763C56.5513 41.6707 56.7089 41.8287 56.9037 41.8287C57.0979 41.8287 57.2565 41.6707 57.2565 41.4763H57.2559C57.2559 41.282 57.0979 41.1237 56.9037 41.1237C56.7089 41.1237 56.5516 41.282 56.5516 41.4763" fill="#4F4C4C"/>
<path d="M59.127 41.4763C59.127 42.577 60.0209 43.4722 61.1231 43.4722C62.2245 43.4722 63.1189 42.577 63.1189 41.4763C63.1189 40.3733 62.2245 39.4812 61.1231 39.4812C60.0209 39.4812 59.127 40.3733 59.127 41.4763Z" fill="#918F90"/>
<path d="M77.5625 20.0793C77.9189 20.8337 76.8002 22.975 75.8247 22.975H62.798C61.8217 22.975 61.0303 22.2537 61.0303 21.3638V12.0182C61.0303 11.1268 61.8217 10.4055 62.798 10.4055H71.365C72.3405 10.4055 72.8329 11.1228 73.1303 12.0182C73.1303 12.0182 77.2069 19.3248 77.5625 20.0793Z" fill="#3D4D57"/>
<path d="M74.7548 22.3795H63.5957C62.621 22.3795 61.8295 21.6566 61.8295 20.7676V11.4193C61.8295 11.0899 61.9389 10.7823 62.1261 10.5272C61.4834 10.7687 61.0303 11.3446 61.0303 12.0182V21.3638C61.0303 22.2537 61.8217 22.975 62.798 22.975H75.8247C75.8247 22.975 75.4927 22.3795 74.7548 22.3795Z" fill="#252E33"/>
<path d="M66.2869 26.0305C66.2869 26.4333 66.0305 26.759 65.7142 26.759H62.9837C62.6674 26.759 62.4102 26.4333 62.4102 26.0305C62.4102 25.6279 62.6674 25.3006 62.9837 25.3006H65.7142C66.0305 25.3006 66.2869 25.6279 66.2869 26.0305Z" fill="#29242C"/>
<path d="M90.0002 38.3743C90.0002 40.0903 89.9955 41.4802 88.7171 41.4802H84.6256C83.3472 41.4802 83.3433 40.0903 83.3433 38.3743C83.3433 36.6617 83.3472 35.2703 84.6256 35.2703H88.7171C89.9955 35.2703 90.0002 36.6617 90.0002 38.3743Z" fill="#918F90"/>
<path d="M88.7166 41.4802H84.6251C84.6219 41.4802 84.6196 41.4802 84.6164 41.4802C84.6164 41.4802 84.6156 41.4802 84.6148 41.4802C84.6133 41.4802 84.6109 41.4802 84.6086 41.4802C84.6078 41.4802 84.6078 41.4802 84.607 41.4802C83.8982 41.4725 83.5937 41.0223 83.4561 40.3349L83.6386 40.3617H87.7301C89.0085 40.3617 89.014 38.9708 89.014 37.2567C89.014 36.5093 89.0053 35.8342 88.8991 35.2971C89.9816 35.4368 89.9997 36.7545 89.9997 38.3743C89.9997 40.0903 89.995 41.4802 88.7166 41.4802Z" fill="#7B7979"/>
<path d="M88.3943 34.6824C88.3943 34.6824 85.0587 34.6824 84.5332 34.6824C84.0077 34.6824 83.5782 32.4837 84.5332 32.2563C85.4883 32.0283 88.1363 31.394 88.1363 31.394L88.3943 34.6824Z" fill="#F68712"/>
<path d="M5.73974 37.7884C5.73974 38.8983 5.73518 39.7968 4.6335 39.7968H1.10569C0.00306872 39.7968 0 38.8983 0 37.7884C0 36.6799 0.00306872 35.7798 1.10569 35.7798H4.6335C5.73518 35.7798 5.73974 36.6799 5.73974 37.7884Z" fill="#918F90"/>
<path d="M0.84082 35.3096C0.84082 35.3096 3.91842 35.3096 4.44298 35.3096C4.96691 35.3096 5.3981 33.5473 4.44298 33.3626C3.48723 33.1806 0.84082 32.6718 0.84082 32.6718V35.3096Z" fill="#FDDD10"/>
<path d="M3.40527 33.165C3.81608 33.2437 4.18944 33.3152 4.44299 33.3626C5.39811 33.5473 4.96693 35.3096 4.44299 35.3096H3.92213L3.40527 33.165Z" fill="#F6871B"/>
<path d="M1.09375 33.7267C1.09375 34.0383 1.34573 34.29 1.65607 34.29C1.96705 34.29 2.21848 34.0383 2.21848 33.7267C2.21848 33.4166 1.96705 33.165 1.65607 33.165C1.34573 33.165 1.09375 33.4166 1.09375 33.7267Z" fill="#F6871B"/>
<path d="M58.406 32.7126V8.4646C58.406 8.28846 58.2631 8.14528 58.0866 8.14528C57.91 8.14528 57.7671 8.28846 57.7671 8.4646V32.7126C57.7671 32.8887 57.91 33.032 58.0866 33.032C58.2631 33.032 58.406 32.8887 58.406 32.7126Z" fill="#A7A5A6"/>
<path d="M55.1568 22.049C55.1568 22.9058 54.4614 23.6012 53.6043 23.6012H33.8825C33.0242 23.6012 32.3291 22.9058 32.3291 22.049V11.3335C32.3291 10.4752 33.0242 9.7807 33.8825 9.7807H53.6043C54.4614 9.7807 55.1568 10.4752 55.1568 11.3335V22.049Z" fill="#3D4D57"/>
<path d="M54.3999 22.9749H34.6784C33.8204 22.9749 33.125 22.2804 33.125 21.4227V10.7091C33.125 10.3999 33.2172 10.115 33.3723 9.87259C32.766 10.0852 32.3291 10.6547 32.3291 11.3335V22.049C32.3291 22.9058 33.0242 23.6012 33.8825 23.6012H53.6043C54.1541 23.6012 54.6338 23.3142 54.9109 22.8821C54.7497 22.9396 54.5791 22.9749 54.3999 22.9749Z" fill="#252E33"/>
<path d="M18.1899 21.3349H14.3569V10.5271H18.1899V21.3349Z" fill="#EE2629"/>
<path d="M10.8509 17.7936L10.8887 13.9617L21.6971 14.0685L21.6591 17.9013L10.8509 17.7936Z" fill="#EE2629"/>
</svg>
