<svg width="1920" height="813" viewBox="0 0 1920 813" fill="none" xmlns="http://www.w3.org/2000/svg">
<path d="M1920 0H0V813H1920V0Z" fill="url(#paint0_linear)"/>
<path d="M1155.23 0L989 813H1058.89L1920 352.5V0H1155.23Z" fill="url(#paint1_linear)" fill-opacity="0.36"/>
<path d="M0 80.6488L1847.5 813H1919L1920 0H0V80.6488Z" fill="url(#paint2_linear)"/>
<g style="mix-blend-mode:darken" opacity="0.25">
<path d="M1155.23 0L989 813H1010.5L1802 0H1368.5H1155.23Z" fill="url(#paint3_linear)"/>
<path d="M1155.23 0L989 813H1010.5L1802 0H1368.5H1155.23Z" fill="url(#paint4_linear)"/>
<path d="M1155.23 0L989 813H1010.5L1802 0H1368.5H1155.23Z" fill="url(#paint5_linear)"/>
</g>
<path d="M1920 73L92 812.5H1920V73Z" fill="url(#paint6_linear)" fill-opacity="0.1"/>
<path d="M0 690.5L1458.5 0.5L1920 587.5V813H0V690.5Z" fill="url(#paint7_linear)"/>
<defs>
<linearGradient id="paint0_linear" x1="9.69528e-06" y1="375.5" x2="1920" y2="375.5" gradientUnits="userSpaceOnUse">
<stop stop-color="#0A6B9B"/>
<stop offset="1" stop-color="#156F9E"/>
</linearGradient>
<linearGradient id="paint1_linear" x1="1128.28" y1="192" x2="1799.19" y2="809.922" gradientUnits="userSpaceOnUse">
<stop stop-color="#004B82"/>
<stop offset="1" stop-color="#004B82" stop-opacity="0.26"/>
</linearGradient>
<linearGradient id="paint2_linear" x1="45" y1="-11.5213" x2="1920.43" y2="727.981" gradientUnits="userSpaceOnUse">
<stop stop-color="#004B82"/>
<stop offset="1" stop-color="#0D5A92" stop-opacity="0"/>
</linearGradient>
<linearGradient id="paint3_linear" x1="1128.28" y1="192" x2="1799.19" y2="809.922" gradientUnits="userSpaceOnUse">
<stop stop-color="#031571"/>
<stop offset="1" stop-color="#004B82" stop-opacity="0.26"/>
<stop offset="1" stop-color="#0A3E64" stop-opacity="0.62"/>
</linearGradient>
<linearGradient id="paint4_linear" x1="1119.5" y1="222" x2="1503" y2="222" gradientUnits="userSpaceOnUse">
<stop stop-color="#003872"/>
<stop offset="1" stop-color="#06558B" stop-opacity="0"/>
</linearGradient>
<linearGradient id="paint5_linear" x1="1095.5" y1="315" x2="1761" y2="448.5" gradientUnits="userSpaceOnUse">
<stop stop-color="#003F78"/>
<stop offset="1" stop-color="#06568B" stop-opacity="0"/>
</linearGradient>
<linearGradient id="paint6_linear" x1="1130" y1="405.5" x2="1349" y2="955" gradientUnits="userSpaceOnUse">
<stop stop-color="#044270" stop-opacity="0.86"/>
<stop offset="1" stop-color="#004B82" stop-opacity="0.25"/>
</linearGradient>
<linearGradient id="paint7_linear" x1="1450" y1="15.5" x2="1611.5" y2="861.5" gradientUnits="userSpaceOnUse">
<stop stop-color="#003C74" stop-opacity="0.78"/>
<stop offset="0.973958" stop-color="#276F9C" stop-opacity="0"/>
<stop offset="1" stop-color="#003C74" stop-opacity="0"/>
</linearGradient>
</defs>
</svg>
